JetBrainsMoro-ExtraBold.ufo
<glyph name="numbersign" format="2">
  <advance width="600"/>
  <unicode hex="0023"/>
  <outline>
    <contour>
      <point x="73" y="0" type="line"/>
      <point x="173" y="0" type="line"/>
      <point x="203" y="175" type="line"/>
      <point x="333" y="175" type="line"/>
      <point x="303" y="0" type="line"/>
      <point x="403" y="0" type="line"/>
      <point x="433" y="175" type="line"/>
      <point x="530" y="175" type="line"/>
      <point x="530" y="275" type="line"/>
      <point x="450" y="275" type="line"/>
      <point x="479" y="455" type="line"/>
      <point x="565" y="455" type="line"/>
      <point x="565" y="555" type="line"/>
      <point x="496" y="555" type="line"/>
      <point x="527" y="730" type="line"/>
      <point x="427" y="730" type="line"/>
      <point x="396" y="555" type="line"/>
      <point x="266" y="555" type="line"/>
      <point x="297" y="730" type="line"/>
      <point x="197" y="730" type="line"/>
      <point x="166" y="555" type="line"/>
      <point x="70" y="555" type="line"/>
      <point x="70" y="455" type="line"/>
      <point x="149" y="455" type="line"/>
      <point x="120" y="275" type="line"/>
      <point x="35" y="275" type="line"/>
      <point x="35" y="175" type="line"/>
      <point x="103" y="175" type="line"/>
    </contour>
    <contour>
      <point x="220" y="275" type="line"/>
      <point x="249" y="455" type="line"/>
      <point x="379" y="455" type="line"/>
      <point x="350" y="275" type="line"/>
    </contour>
  </outline>
</glyph>
<glyph name="parenright" format="2">
  <advance width="600"/>
  <unicode hex="0029"/>
  <outline>
    <contour>
      <point x="115" y="-120" type="line"/>
      <point x="327" y="-63"/>
      <point x="445" y="76"/>
      <point x="445" y="269" type="curve" smooth="yes"/>
      <point x="445" y="450" type="line" smooth="yes"/>
      <point x="445" y="640"/>
      <point x="322" y="784"/>
      <point x="115" y="840" type="curve"/>
      <point x="115" y="690" type="line"/>
      <point x="228" y="662"/>
      <point x="295" y="573"/>
      <point x="295" y="450" type="curve" smooth="yes"/>
      <point x="295" y="269" type="line" smooth="yes"/>
      <point x="295" y="149"/>
      <point x="227" y="59"/>
      <point x="115" y="32" type="curve"/>
    </contour>
  </outline>
</glyph>
<glyph name="hyphen" format="2">
  <advance width="600"/>
  <unicode hex="002D"/>
  <outline>
    <contour>
      <point x="140" y="260" type="line"/>
      <point x="460" y="260" type="line"/>
      <point x="460" y="400" type="line"/>
      <point x="140" y="400" type="line"/>
    </contour>
  </outline>
</glyph>
<glyph name="two" format="2">
  <advance width="600"/>
  <unicode hex="0032"/>
  <outline>
    <contour>
      <point x="70" y="0" type="line"/>
      <point x="542" y="0" type="line"/>
      <point x="542" y="135" type="line"/>
      <point x="259" y="135" type="line"/>
      <point x="414" y="286" type="line" smooth="yes"/>
      <point x="498" y="367"/>
      <point x="534" y="438"/>
      <point x="534" y="521" type="curve" smooth="yes"/>
      <point x="534" y="656"/>
      <point x="440" y="740"/>
      <point x="297" y="740" type="curve" smooth="yes"/>
      <point x="147" y="740"/>
      <point x="50" y="648"/>
      <point x="50" y="505" type="curve"/>
      <point x="200" y="505" type="line"/>
      <point x="200" y="568"/>
      <point x="236" y="605"/>
      <point x="294" y="605" type="curve" smooth="yes"/>
      <point x="350" y="605"/>
      <point x="384" y="570"/>
      <point x="384" y="507" type="curve" smooth="yes"/>
      <point x="384" y="465"/>
      <point x="364" y="427"/>
      <point x="327" y="389" type="curve" smooth="yes"/>
      <point x="70" y="132" type="line"/>
    </contour>
  </outline>
</glyph>
<glyph name="four" format="2">
  <advance width="600"/>
  <unicode hex="0034"/>
  <outline>
    <contour>
      <point x="370" y="0" type="line"/>
      <point x="520" y="0" type="line"/>
      <point x="520" y="420" type="line"/>
      <point x="370" y="420" type="line"/>
      <point x="370" y="264" type="line"/>
      <point x="190" y="264" type="line"/>
      <point x="190" y="301" type="line"/>
      <point x="489" y="730" type="line"/>
      <point x="324" y="730" type="line"/>
      <point x="50" y="343" type="line"/>
      <point x="50" y="134" type="line"/>
      <point x="370" y="134" type="line"/>
    </contour>
  </outline>
</glyph>
<glyph name="six" format="2">
  <advance width="600"/>
  <unicode hex="0036"/>
  <outline>
    <contour>
      <point x="300" y="-10" type="curve" smooth="yes"/>
      <point x="453" y="-10"/>
      <point x="555" y="85"/>
      <point x="555" y="226" type="curve" smooth="yes"/>
      <point x="555" y="358"/>
      <point x="478" y="446"/>
      <point x="364" y="446" type="curve" smooth="yes"/>
      <point x="307" y="446"/>
      <point x="269" y="421"/>
      <point x="240" y="378" type="curve"/>
      <point x="233" y="382" type="line"/>
      <point x="437" y="730" type="line"/>
      <point x="274" y="730" type="line"/>
      <point x="116" y="456" type="line" smooth="yes"/>
      <point x="68" y="372"/>
      <point x="45" y="302"/>
      <point x="45" y="242" type="curve" smooth="yes"/>
      <point x="45" y="91"/>
      <point x="147" y="-10"/>
    </contour>
    <contour>
      <point x="300" y="115" type="curve" smooth="yes"/>
      <point x="235" y="115"/>
      <point x="191" y="160"/>
      <point x="191" y="224" type="curve" smooth="yes"/>
      <point x="191" y="289"/>
      <point x="235" y="335"/>
      <point x="300" y="335" type="curve" smooth="yes"/>
      <point x="365" y="335"/>
      <point x="409" y="289"/>
      <point x="409" y="224" type="curve" smooth="yes"/>
      <point x="409" y="160"/>
      <point x="365" y="115"/>
    </contour>
  </outline>
</glyph>
<glyph name="less" format="2">
  <advance width="600"/>
  <unicode hex="003C"/>
  <outline>
    <contour>
      <point x="530" y="49" type="line"/>
      <point x="530" y="186" type="line"/>
      <point x="254" y="307" type="line" smooth="yes"/>
      <point x="227" y="319"/>
      <point x="194" y="326"/>
      <point x="177" y="329" type="curve"/>
      <point x="194" y="332"/>
      <point x="227" y="340"/>
      <point x="254" y="352" type="curve" smooth="yes"/>
      <point x="530" y="473" type="line"/>
      <point x="530" y="609" type="line"/>
      <point x="70" y="400" type="line"/>
      <point x="70" y="257" type="line"/>
    </contour>
  </outline>
</glyph>
<glyph name="question" format="2">
  <advance width="600"/>
  <unicode hex="003F"/>
  <outline>
    <contour>
      <point x="176" y="225" type="line"/>
      <point x="301" y="225" type="line"/>
      <point x="301" y="305" type="line"/>
      <point x="427" y="305"/>
      <point x="510" y="389"/>
      <point x="510" y="515" type="curve" smooth="yes"/>
      <point x="510" y="646"/>
      <point x="413" y="730"/>
      <point x="260" y="730" type="curve" smooth="yes"/>
      <point x="105" y="730" type="line"/>
      <point x="105" y="590" type="line"/>
      <point x="270" y="590" type="line" smooth="yes"/>
      <point x="325" y="590"/>
      <point x="360" y="561"/>
      <point x="360" y="515" type="curve" smooth="yes"/>
      <point x="360" y="470"/>
      <point x="325" y="440"/>
      <point x="271" y="440" type="curve" smooth="yes"/>
      <point x="171" y="440" type="line"/>
    </contour>
    <contour>
      <point x="224" y="-5" type="curve" smooth="yes"/>
      <point x="253" y="-5" type="line" smooth="yes"/>
      <point x="299" y="-5"/>
      <point x="329" y="22"/>
      <point x="329" y="65" type="curve" smooth="yes"/>
      <point x="329" y="107"/>
      <point x="299" y="135"/>
      <point x="254" y="135" type="curve" smooth="yes"/>
      <point x="224" y="135" type="line" smooth="yes"/>
      <point x="179" y="135"/>
      <point x="149" y="107"/>
      <point x="149" y="65" type="curve" smooth="yes"/>
      <point x="149" y="23"/>
      <point x="179" y="-5"/>
    </contour>
  </outline>
</glyph>
<glyph name="B" format="2">
  <advance width="600"/>
  <unicode hex="0042"/>
  <anchor x="300" y="0" name="bottom"/>
  <anchor x="300" y="730" name="top"/>
  <outline>
    <contour>
      <point x="66" y="0" type="line"/>
      <point x="310" y="0" type="line" smooth="yes"/>
      <point x="460" y="0"/>
      <point x="560" y="84"/>
      <point x="560" y="211" type="curve" smooth="yes"/>
      <point x="560" y="320"/>
      <point x="488" y="391"/>
      <point x="380" y="390" type="curve"/>
      <point x="380" y="383" type="line"/>
      <point x="479" y="383"/>
      <point x="544" y="447"/>
      <point x="544" y="543" type="curve" smooth="yes"/>
      <point x="544" y="655"/>
      <point x="447" y="730"/>
      <point x="301" y="730" type="curve" smooth="yes"/>
      <point x="66" y="730" type="line"/>
    </contour>
    <contour>
      <point x="211" y="121" type="line"/>
      <point x="211" y="318" type="line"/>
      <point x="304" y="318" type="line" smooth="yes"/>
      <point x="369" y="318"/>
      <point x="409" y="280"/>
      <point x="409" y="219" type="curve" smooth="yes"/>
      <point x="409" y="158"/>
      <point x="369" y="121"/>
      <point x="304" y="121" type="curve" smooth="yes"/>
    </contour>
    <contour>
      <point x="211" y="436" type="line"/>
      <point x="211" y="609" type="line"/>
      <point x="299" y="609" type="line" smooth="yes"/>
      <point x="357" y="609"/>
      <point x="393" y="577"/>
      <point x="393" y="523" type="curve" smooth="yes"/>
      <point x="393" y="469"/>
      <point x="357" y="436"/>
      <point x="299" y="436" type="curve" smooth="yes"/>
    </contour>
  </outline>
</glyph>
<glyph name="D" format="2">
  <advance width="600"/>
  <unicode hex="0044"/>
  <anchor x="300" y="0" name="bottom"/>
  <anchor x="300" y="365" name="center"/>
  <anchor x="300" y="730" name="top"/>
  <outline>
    <contour>
      <point x="63" y="0" type="line"/>
      <point x="300" y="0" type="line" smooth="yes"/>
      <point x="451" y="0"/>
      <point x="552" y="94"/>
      <point x="552" y="235" type="curve" smooth="yes"/>
      <point x="552" y="496" type="line" smooth="yes"/>
      <point x="552" y="637"/>
      <point x="451" y="730"/>
      <point x="300" y="730" type="curve" smooth="yes"/>
      <point x="63" y="730" type="line"/>
    </contour>
    <contour>
      <point x="213" y="135" type="line"/>
      <point x="213" y="595" type="line"/>
      <point x="300" y="595" type="line" smooth="yes"/>
      <point x="360" y="595"/>
      <point x="402" y="555"/>
      <point x="402" y="496" type="curve" smooth="yes"/>
      <point x="402" y="235" type="line" smooth="yes"/>
      <point x="402" y="176"/>
      <point x="360" y="135"/>
      <point x="300" y="135" type="curve" smooth="yes"/>
    </contour>
  </outline>
</glyph>
<glyph name="E" format="2">
  <advance width="600"/>
  <unicode hex="0045"/>
  <anchor x="320" y="0" name="bottom"/>
  <anchor x="430" y="0" name="ogonek"/>
  <anchor x="320" y="730" name="top"/>
  <anchor x="20" y="730" name="topleft"/>
  <outline>
    <contour>
      <point x="80" y="0" type="line"/>
      <point x="530" y="0" type="line"/>
      <point x="530" y="130" type="line"/>
      <point x="227" y="130" type="line"/>
      <point x="227" y="312" type="line"/>
      <point x="495" y="312" type="line"/>
      <point x="495" y="436" type="line"/>
      <point x="227" y="436" type="line"/>
      <point x="227" y="600" type="line"/>
      <point x="530" y="600" type="line"/>
      <point x="530" y="730" type="line"/>
      <point x="80" y="730" type="line"/>
    </contour>
  </outline>
</glyph>
<glyph name="I" format="2">
  <advance width="600"/>
  <unicode hex="0049"/>
  <anchor x="300" y="0" name="bottom"/>
  <anchor x="320" y="0" name="ogonek"/>
  <anchor x="300" y="730" name="top"/>
  <anchor x="20" y="730" name="topleft"/>
  <outline>
    <contour>
      <point x="80" y="0" type="line"/>
      <point x="520" y="0" type="line"/>
      <point x="520" y="135" type="line"/>
      <point x="375" y="135" type="line"/>
      <point x="375" y="595" type="line"/>
      <point x="520" y="595" type="line"/>
      <point x="520" y="730" type="line"/>
      <point x="80" y="730" type="line"/>
      <point x="80" y="595" type="line"/>
      <point x="225" y="595" type="line"/>
      <point x="225" y="135" type="line"/>
      <point x="80" y="135" type="line"/>
    </contour>
  </outline>
</glyph>
<glyph name="U" format="2">
  <advance width="600"/>
  <unicode hex="0055"/>
  <anchor x="300" y="0" name="bottom"/>
  <anchor x="385" y="730" name="horn"/>
  <anchor x="345" y="0" name="ogonek"/>
  <anchor x="300" y="730" name="top"/>
  <anchor x="580" y="730" name="topright"/>
  <outline>
    <contour>
      <point x="300" y="-10" type="curve" smooth="yes"/>
      <point x="448" y="-10"/>
      <point x="540" y="76"/>
      <point x="540" y="214" type="curve" smooth="yes"/>
      <point x="540" y="730" type="line"/>
      <point x="390" y="730" type="line"/>
      <point x="390" y="215" type="line" smooth="yes"/>
      <point x="390" y="154"/>
      <point x="356" y="120"/>
      <point x="300" y="120" type="curve" smooth="yes"/>
      <point x="243" y="120"/>
      <point x="210" y="154"/>
      <point x="210" y="215" type="curve" smooth="yes"/>
      <point x="210" y="730" type="line"/>
      <point x="60" y="730" type="line"/>
      <point x="60" y="214" type="line" smooth="yes"/>
      <point x="60" y="75"/>
      <point x="152" y="-10"/>
    </contour>
  </outline>
</glyph>
<glyph name="X" format="2">
  <advance width="600"/>
  <unicode hex="0058"/>
  <anchor x="300" y="0" name="bottom"/>
  <anchor x="300" y="730" name="top"/>
  <outline>
    <contour>
      <point x="20" y="0" type="line"/>
      <point x="181" y="0" type="line"/>
      <point x="269" y="180" type="line" smooth="yes"/>
      <point x="283" y="209"/>
      <point x="293" y="237"/>
      <point x="297" y="250" type="curve"/>
      <point x="302" y="237"/>
      <point x="313" y="209"/>
      <point x="327" y="180" type="curve" smooth="yes"/>
      <point x="415" y="0" type="line"/>
      <point x="580" y="0" type="line"/>
      <point x="384" y="377" type="line"/>
      <point x="567" y="730" type="line"/>
      <point x="406" y="730" type="line"/>
      <point x="328" y="570" type="line" smooth="yes"/>
      <point x="314" y="541"/>
      <point x="305" y="515"/>
      <point x="302" y="504" type="curve"/>
      <point x="299" y="515"/>
      <point x="289" y="541"/>
      <point x="274" y="570" type="curve" smooth="yes"/>
      <point x="198" y="730" type="line"/>
      <point x="33" y="730" type="line"/>
      <point x="216" y="377" type="line"/>
    </contour>
  </outline>
</glyph>
<glyph name="a" format="2">
  <advance width="600"/>
  <unicode hex="0061"/>
  <anchor x="305" y="0" name="bottom"/>
  <anchor x="440" y="0" name="ogonek"/>
  <anchor x="305" y="550" name="top"/>
  <outline>
    <contour>
      <point x="229" y="-10" type="curve" smooth="yes"/>
      <point x="330" y="-10"/>
      <point x="393" y="42"/>
      <point x="393" y="125" type="curve"/>
      <point x="367" y="85" type="line"/>
      <point x="391" y="85" type="line"/>
      <point x="391" y="0" type="line"/>
      <point x="536" y="0" type="line"/>
      <point x="536" y="370" type="line" smooth="yes"/>
      <point x="536" y="488"/>
      <point x="447" y="560"/>
      <point x="305" y="560" type="curve" smooth="yes"/>
      <point x="165" y="560"/>
      <point x="75" y="490"/>
      <point x="72" y="380" type="curve"/>
      <point x="212" y="380" type="line"/>
      <point x="212" y="416"/>
      <point x="246" y="439"/>
      <point x="299" y="439" type="curve" smooth="yes"/>
      <point x="354" y="439"/>
      <point x="386" y="414"/>
      <point x="386" y="370" type="curve" smooth="yes"/>
      <point x="386" y="330" type="line"/>
      <point x="281" y="330" type="line" smooth="yes"/>
      <point x="132" y="330"/>
      <point x="49" y="269"/>
      <point x="49" y="157" type="curve" smooth="yes"/>
      <point x="49" y="54"/>
      <point x="118" y="-10"/>
    </contour>
    <contour>
      <point x="285" y="99" type="curve" smooth="yes"/>
      <point x="232" y="99"/>
      <point x="199" y="126"/>
      <point x="199" y="171" type="curve" smooth="yes"/>
      <point x="199" y="215"/>
      <point x="231" y="241"/>
      <point x="284" y="241" type="curve" smooth="yes"/>
      <point x="386" y="241" type="line"/>
      <point x="386" y="183" type="line" smooth="yes"/>
      <point x="386" y="132"/>
      <point x="344" y="99"/>
    </contour>
  </outline>
</glyph>
<glyph name="f" format="2">
  <advance width="600"/>
  <unicode hex="0066"/>
  <anchor x="300" y="0" name="bottom"/>
  <anchor x="300" y="730" name="top"/>
  <outline>
    <contour>
      <point x="195" y="0" type="line"/>
      <point x="345" y="0" type="line"/>
      <point x="345" y="350" type="line"/>
      <point x="546" y="350" type="line"/>
      <point x="546" y="485" type="line"/>
      <point x="345" y="485" type="line"/>
      <point x="345" y="555" type="line" smooth="yes"/>
      <point x="345" y="582"/>
      <point x="363" y="600"/>
      <point x="390" y="600" type="curve" smooth="yes"/>
      <point x="546" y="600" type="line"/>
      <point x="546" y="730" type="line"/>
      <point x="385" y="730" type="line" smooth="yes"/>
      <point x="271" y="730"/>
      <point x="195" y="662"/>
      <point x="195" y="560" type="curve" smooth="yes"/>
      <point x="195" y="485" type="line"/>
      <point x="49" y="485" type="line"/>
      <point x="49" y="350" type="line"/>
      <point x="195" y="350" type="line"/>
    </contour>
  </outline>
</glyph>
<glyph name="l" format="2">
  <advance width="600"/>
  <unicode hex="006C"/>
  <anchor x="320" y="0" name="bottom"/>
  <anchor x="300" y="365" name="center"/>
  <anchor x="270" y="730" name="top"/>
  <anchor x="580" y="730" name="topright"/>
  <outline>
    <contour>
      <point x="395" y="0" type="curve" smooth="yes"/>
      <point x="565" y="0" type="line"/>
      <point x="565" y="135" type="line"/>
      <point x="410" y="135" type="line" smooth="yes"/>
      <point x="374" y="135"/>
      <point x="350" y="161"/>
      <point x="350" y="200" type="curve" smooth="yes"/>
      <point x="350" y="730" type="line"/>
      <point x="25" y="730" type="line"/>
      <point x="25" y="595" type="line"/>
      <point x="200" y="595" type="line"/>
      <point x="200" y="195" type="line" smooth="yes"/>
      <point x="200" y="78"/>
      <point x="278" y="0"/>
    </contour>
  </outline>
</glyph>
<glyph name="m" format="2">
  <advance width="600"/>
  <unicode hex="006D"/>
  <anchor x="300" y="0" name="bottom"/>
  <anchor x="300" y="550" name="top"/>
  <outline>
    <contour>
      <point x="42" y="0" type="line"/>
      <point x="168" y="0" type="line"/>
      <point x="168" y="403" type="line" smooth="yes"/>
      <point x="168" y="434"/>
      <point x="182" y="451"/>
      <point x="207" y="451" type="curve" smooth="yes"/>
      <point x="232" y="451"/>
      <point x="246" y="434"/>
      <point x="246" y="403" type="curve" smooth="yes"/>
      <point x="246" y="0" type="line"/>
      <point x="355" y="0" type="line"/>
      <point x="355" y="403" type="line" smooth="yes"/>
      <point x="355" y="434"/>
      <point x="369" y="451"/>
      <point x="394" y="451" type="curve" smooth="yes"/>
      <point x="419" y="451"/>
      <point x="433" y="434"/>
      <point x="433" y="403" type="curve" smooth="yes"/>
      <point x="433" y="0" type="line"/>
      <point x="559" y="0" type="line"/>
      <point x="559" y="420" type="line" smooth="yes"/>
      <point x="559" y="502"/>
      <point x="512" y="560"/>
      <point x="447" y="560" type="curve" smooth="yes"/>
      <point x="391" y="560"/>
      <point x="351" y="517"/>
      <point x="351" y="456" type="curve"/>
      <point x="360" y="470" type="line"/>
      <point x="332" y="470" type="line"/>
      <point x="353" y="440" type="line"/>
      <point x="353" y="510"/>
      <point x="311" y="560"/>
      <point x="255" y="560" type="curve" smooth="yes"/>
      <point x="202" y="560"/>
      <point x="163" y="517"/>
      <point x="163" y="456" type="curve"/>
      <point x="184" y="470" type="line"/>
      <point x="160" y="470" type="line"/>
      <point x="160" y="550" type="line"/>
      <point x="42" y="550" type="line"/>
    </contour>
  </outline>
</glyph>
<glyph name="p" format="2">
  <advance width="600"/>
  <unicode hex="0070"/>
  <anchor x="300" y="0" name="bottom"/>
  <anchor x="300" y="550" name="top"/>
  <outline>
    <contour>
      <point x="66" y="-180" type="line"/>
      <point x="216" y="-180" type="line"/>
      <point x="216" y="-30" type="line"/>
      <point x="211" y="95" type="line"/>
      <point x="246" y="95" type="line"/>
      <point x="199" y="190" type="line"/>
      <point x="199" y="65"/>
      <point x="260" y="-10"/>
      <point x="362" y="-10" type="curve" smooth="yes"/>
      <point x="468" y="-10"/>
      <point x="540" y="74"/>
      <point x="540" y="205" type="curve" smooth="yes"/>
      <point x="540" y="345" type="line" smooth="yes"/>
      <point x="540" y="476"/>
      <point x="468" y="560"/>
      <point x="362" y="560" type="curve" smooth="yes"/>
      <point x="260" y="560"/>
      <point x="199" y="485"/>
      <point x="199" y="360" type="curve"/>
      <point x="246" y="455" type="line"/>
      <point x="211" y="455" type="line"/>
      <point x="211" y="550" type="line"/>
      <point x="66" y="550" type="line"/>
    </contour>
    <contour>
      <point x="304" y="120" type="curve" smooth="yes"/>
      <point x="247" y="120"/>
      <point x="216" y="154"/>
      <point x="216" y="215" type="curve" smooth="yes"/>
      <point x="216" y="335" type="line" smooth="yes"/>
      <point x="216" y="396"/>
      <point x="247" y="430"/>
      <point x="304" y="430" type="curve" smooth="yes"/>
      <point x="359" y="430"/>
      <point x="390" y="398"/>
      <point x="390" y="340" type="curve" smooth="yes"/>
      <point x="390" y="210" type="line" smooth="yes"/>
      <point x="390" y="152"/>
      <point x="359" y="120"/>
    </contour>
  </outline>
</glyph>
<glyph name="r" format="2">
  <advance width="600"/>
  <unicode hex="0072"/>
  <anchor x="145" y="0" name="bottom"/>
  <anchor x="320" y="550" name="top"/>
  <outline>
    <contour>
      <point x="82" y="0" type="line"/>
      <point x="232" y="0" type="line"/>
      <point x="232" y="328" type="line" smooth="yes"/>
      <point x="232" y="395"/>
      <point x="263" y="430"/>
      <point x="322" y="430" type="curve" smooth="yes"/>
      <point x="379" y="430"/>
      <point x="410" y="397"/>
      <point x="410" y="340" type="curve" smooth="yes"/>
      <point x="410" y="300" type="line"/>
      <point x="570" y="300" type="line"/>
      <point x="570" y="350" type="line" smooth="yes"/>
      <point x="570" y="479"/>
      <point x="496" y="560"/>
      <point x="384" y="560" type="curve" smooth="yes"/>
      <point x="288" y="560"/>
      <point x="227" y="502"/>
      <point x="227" y="410" type="curve"/>
      <point x="271" y="445" type="line"/>
      <point x="227" y="445" type="line"/>
      <point x="227" y="550" type="line"/>
      <point x="82" y="550" type="line"/>
    </contour>
  </outline>
</glyph>
<glyph name="s" format="2">
  <advance width="600"/>
  <unicode hex="0073"/>
  <anchor x="300" y="0" name="bottom"/>
  <anchor x="300" y="550" name="top"/>
  <outline>
    <contour>
      <point x="277" y="-10" type="curve" smooth="yes"/>
      <point x="321" y="-10" type="line" smooth="yes"/>
      <point x="471" y="-10"/>
      <point x="550" y="52"/>
      <point x="550" y="160" type="curve" smooth="yes"/>
      <point x="550" y="259"/>
      <point x="484" y="317"/>
      <point x="357" y="333" type="curve" smooth="yes"/>
      <point x="276" y="344" type="line" smooth="yes"/>
      <point x="233" y="350"/>
      <point x="211" y="368"/>
      <point x="211" y="398" type="curve" smooth="yes"/>
      <point x="211" y="429"/>
      <point x="235" y="446"/>
      <point x="282" y="446" type="curve" smooth="yes"/>
      <point x="320" y="446" type="line" smooth="yes"/>
      <point x="367" y="446"/>
      <point x="391" y="430"/>
      <point x="391" y="398" type="curve"/>
      <point x="541" y="398" type="line"/>
      <point x="541" y="496"/>
      <point x="454" y="560"/>
      <point x="320" y="560" type="curve" smooth="yes"/>
      <point x="282" y="560" type="line" smooth="yes"/>
      <point x="140" y="560"/>
      <point x="66" y="504"/>
      <point x="66" y="398" type="curve" smooth="yes"/>
      <point x="66" y="301"/>
      <point x="128" y="243"/>
      <point x="248" y="228" type="curve" smooth="yes"/>
      <point x="327" y="218" type="line" smooth="yes"/>
      <point x="378" y="211"/>
      <point x="405" y="191"/>
      <point x="405" y="158" type="curve" smooth="yes"/>
      <point x="405" y="123"/>
      <point x="376" y="104"/>
      <point x="321" y="104" type="curve" smooth="yes"/>
      <point x="277" y="104" type="line" smooth="yes"/>
      <point x="226" y="104"/>
      <point x="200" y="123"/>
      <point x="200" y="160" type="curve"/>
      <point x="50" y="160" type="line"/>
      <point x="50" y="58"/>
      <point x="141" y="-10"/>
    </contour>
  </outline>
</glyph>
<glyph name="t" format="2">
  <advance width="600"/>
  <unicode hex="0074"/>
  <anchor x="360" y="0" name="bottom"/>
  <anchor x="300" y="275" name="center"/>
  <anchor x="300" y="705" name="top"/>
  <anchor x="580" y="550" name="topright"/>
  <outline>
    <contour>
      <point x="360" y="0" type="curve" smooth="yes"/>
      <point x="525" y="0" type="line"/>
      <point x="525" y="135" type="line"/>
      <point x="375" y="135" type="line" smooth="yes"/>
      <point x="346" y="135"/>
      <point x="330" y="156"/>
      <point x="330" y="185" type="curve" smooth="yes"/>
      <point x="330" y="415" type="line"/>
      <point x="535" y="415" type="line"/>
      <point x="535" y="550" type="line"/>
      <point x="330" y="550" type="line"/>
      <point x="330" y="705" type="line"/>
      <point x="180" y="705" type="line"/>
      <point x="180" y="550" type="line"/>
      <point x="35" y="550" type="line"/>
      <point x="35" y="415" type="line"/>
      <point x="180" y="415" type="line"/>
      <point x="180" y="180" type="line" smooth="yes"/>
      <point x="180" y="68"/>
      <point x="248" y="0"/>
    </contour>
  </outline>
</glyph>
<glyph name="x" format="2">
  <advance width="600"/>
  <unicode hex="0078"/>
  <anchor x="300" y="0" name="bottom"/>
  <anchor x="300" y="550" name="top"/>
  <outline>
    <contour>
      <point x="26" y="0" type="line"/>
      <point x="193" y="0" type="line"/>
      <point x="274" y="130" type="line" smooth="yes"/>
      <point x="285" y="148"/>
      <point x="295" y="172"/>
      <point x="300" y="185" type="curve"/>
      <point x="305" y="172"/>
      <point x="316" y="148"/>
      <point x="327" y="130" type="curve" smooth="yes"/>
      <point x="407" y="0" type="line"/>
      <point x="574" y="0" type="line"/>
      <point x="385" y="285" type="line"/>
      <point x="561" y="550" type="line"/>
      <point x="394" y="550" type="line"/>
      <point x="326" y="440" type="line" smooth="yes"/>
      <point x="316" y="422"/>
      <point x="305" y="398"/>
      <point x="300" y="385" type="curve"/>
      <point x="295" y="398"/>
      <point x="285" y="422"/>
      <point x="274" y="440" type="curve" smooth="yes"/>
      <point x="206" y="550" type="line"/>
      <point x="39" y="550" type="line"/>
      <point x="216" y="285" type="line"/>
    </contour>
  </outline>
</glyph>
<glyph name="y" format="2">
  <advance width="600"/>
  <unicode hex="0079"/>
  <anchor x="300" y="0" name="bottom"/>
  <anchor x="300" y="550" name="top"/>
  <outline>
    <contour>
      <point x="157" y="-180" type="line"/>
      <point x="314" y="-180" type="line"/>
      <point x="581" y="550" type="line"/>
      <point x="425" y="550" type="line"/>
      <point x="338" y="310" type="line" smooth="yes"/>
      <point x="325" y="274"/>
      <point x="312" y="214"/>
      <point x="305" y="182" type="curve"/>
      <point x="298" y="214"/>
      <point x="285" y="274"/>
      <point x="272" y="310" type="curve" smooth="yes"/>
      <point x="182" y="550" type="line"/>
      <point x="19" y="550" type="line"/>
      <point x="232" y="27" type="line"/>
    </contour>
  </outline>
</glyph>
<glyph name="braceright" format="2">
  <advance width="600"/>
  <unicode hex="007D"/>
  <outline>
    <contour>
      <point x="85" y="-111" type="line"/>
      <point x="170" y="-111" type="line" smooth="yes"/>
      <point x="288" y="-111"/>
      <point x="362" y="-36"/>
      <point x="350" y="74" type="curve" smooth="yes"/>
      <point x="335" y="219" type="line" smooth="yes"/>
      <point x="331" y="261"/>
      <point x="355" y="289"/>
      <point x="395" y="289" type="curve" smooth="yes"/>
      <point x="535" y="289" type="line"/>
      <point x="535" y="429" type="line"/>
      <point x="395" y="429" type="line" smooth="yes"/>
      <point x="355" y="429"/>
      <point x="331" y="457"/>
      <point x="335" y="499" type="curve" smooth="yes"/>
      <point x="350" y="650" type="line" smooth="yes"/>
      <point x="361" y="757"/>
      <point x="287" y="830"/>
      <point x="170" y="830" type="curve" smooth="yes"/>
      <point x="85" y="830" type="line"/>
      <point x="85" y="690" type="line"/>
      <point x="140" y="690" type="line" smooth="yes"/>
      <point x="179" y="690"/>
      <point x="203" y="666"/>
      <point x="200" y="630" type="curve" smooth="yes"/>
      <point x="185" y="479" type="line" smooth="yes"/>
      <point x="178" y="407"/>
      <point x="241" y="357"/>
      <point x="340" y="357" type="curve"/>
      <point x="340" y="364" type="line"/>
      <point x="241" y="364"/>
      <point x="178" y="313"/>
      <point x="185" y="239" type="curve" smooth="yes"/>
      <point x="200" y="89" type="line" smooth="yes"/>
      <point x="204" y="53"/>
      <point x="180" y="29"/>
      <point x="140" y="29" type="curve" smooth="yes"/>
      <point x="85" y="29" type="line"/>
    </contour>
  </outline>
</glyph>
<glyph name="currency" format="2">
  <advance width="600"/>
  <unicode hex="00A4"/>
  <outline>
    <contour>
      <point x="493" y="110" type="line"/>
      <point x="564" y="180" type="line"/>
      <point x="477" y="267" type="line"/>
      <point x="495" y="298"/>
      <point x="505" y="334"/>
      <point x="505" y="373" type="curve" smooth="yes"/>
      <point x="505" y="411"/>
      <point x="495" y="447"/>
      <point x="478" y="477" type="curve"/>
      <point x="562" y="562" type="line"/>
      <point x="492" y="632" type="line"/>
      <point x="408" y="547" type="line"/>
      <point x="377" y="565"/>
      <point x="341" y="575"/>
      <point x="301" y="575" type="curve" smooth="yes"/>
      <point x="262" y="575"/>
      <point x="226" y="565"/>
      <point x="196" y="548" type="curve"/>
      <point x="108" y="636" type="line"/>
      <point x="38" y="565" type="line"/>
      <point x="124" y="478" type="line"/>
      <point x="105" y="448"/>
      <point x="95" y="412"/>
      <point x="95" y="373" type="curve" smooth="yes"/>
      <point x="95" y="333"/>
      <point x="106" y="296"/>
      <point x="125" y="265" type="curve"/>
      <point x="40" y="180" type="line"/>
      <point x="110" y="110" type="line"/>
      <point x="197" y="197" type="line"/>
      <point x="227" y="180"/>
      <point x="263" y="171"/>
      <point x="301" y="171" type="curve" smooth="yes"/>
      <point x="339" y="171"/>
      <point x="375" y="180"/>
      <point x="405" y="197" type="curve"/>
    </contour>
    <contour>
      <point x="301" y="266" type="curve" smooth="yes"/>
      <point x="241" y="266"/>
      <point x="195" y="312"/>
      <point x="195" y="373" type="curve" smooth="yes"/>
      <point x="195" y="434"/>
      <point x="241" y="480"/>
      <point x="301" y="480" type="curve" smooth="yes"/>
      <point x="360" y="480"/>
      <point x="405" y="434"/>
      <point x="405" y="373" type="curve" smooth="yes"/>
      <point x="405" y="312"/>
      <point x="360" y="266"/>
    </contour>
  </outline>
</glyph>
<glyph name="yen" format="2">
  <advance width="600"/>
  <unicode hex="00A5"/>
  <anchor x="300" y="0" name="bottom"/>
  <anchor x="300" y="730" name="top"/>
  <anchor x="20" y="730" name="topleft"/>
  <outline>
    <contour>
      <point x="60" y="260" type="line"/>
      <point x="540" y="260" type="line"/>
      <point x="540" y="365" type="line"/>
      <point x="60" y="365" type="line"/>
    </contour>
    <contour>
      <point x="60" y="100" type="line"/>
      <point x="540" y="100" type="line"/>
      <point x="540" y="205" type="line"/>
      <point x="60" y="205" type="line"/>
    </contour>
    <component base="Y"/>
  </outline>
</glyph>
<glyph name="Oslash" format="2">
  <advance width="600"/>
  <unicode hex="00D8"/>
  <anchor x="300" y="0" name="bottom"/>
  <anchor x="320" y="730" name="horn"/>
  <anchor x="300" y="730" name="top"/>
  <outline>
    <contour>
      <point x="15" y="-40" type="line"/>
      <point x="133" y="-40" type="line"/>
      <point x="585" y="750" type="line"/>
      <point x="467" y="750" type="line"/>
    </contour>
    <contour>
      <point x="300" y="-10" type="curve" smooth="yes"/>
      <point x="447" y="-10"/>
      <point x="540" y="78"/>
      <point x="540" y="210" type="curve" smooth="yes"/>
      <point x="540" y="520" type="line" smooth="yes"/>
      <point x="540" y="652"/>
      <point x="447" y="740"/>
      <point x="300" y="740" type="curve" smooth="yes"/>
      <point x="153" y="740"/>
      <point x="60" y="652"/>
      <point x="60" y="520" type="curve" smooth="yes"/>
      <point x="60" y="210" type="line" smooth="yes"/>
      <point x="60" y="78"/>
      <point x="153" y="-10"/>
    </contour>
    <contour>
      <point x="300" y="120" type="curve" smooth="yes"/>
      <point x="239" y="120"/>
      <point x="205" y="152"/>
      <point x="205" y="210" type="curve" smooth="yes"/>
      <point x="205" y="520" type="line" smooth="yes"/>
      <point x="205" y="578"/>
      <point x="239" y="610"/>
      <point x="300" y="610" type="curve" smooth="yes"/>
      <point x="361" y="610"/>
      <point x="395" y="578"/>
      <point x="395" y="520" type="curve" smooth="yes"/>
      <point x="395" y="210" type="line" smooth="yes"/>
      <point x="395" y="152"/>
      <point x="361" y="120"/>
    </contour>
  </outline>
</glyph>
<glyph name="ccedilla" format="2">
  <advance width="600"/>
  <unicode hex="00E7"/>
  <anchor x="303" y="0" name="_bottom"/>
  <anchor x="303" y="0" name="bottom"/>
  <anchor x="303" y="550" name="top"/>
  <outline>
    <contour>
      <point x="193" y="-225" type="line"/>
      <point x="303" y="-225" type="line" smooth="yes"/>
      <point x="387" y="-225"/>
      <point x="443" y="-182"/>
      <point x="443" y="-133" type="curve" smooth="yes"/>
      <point x="443" y="-72"/>
      <point x="362" y="-43"/>
      <point x="301" y="-39" type="curve"/>
      <point x="320" y="16" type="line"/>
      <point x="247" y="16" type="line"/>
      <point x="212" y="-69" type="line"/>
      <point x="285" y="-69"/>
      <point x="328" y="-88"/>
      <point x="328" y="-119" type="curve" smooth="yes"/>
      <point x="328" y="-135"/>
      <point x="306" y="-155"/>
      <point x="273" y="-155" type="curve" smooth="yes"/>
      <point x="193" y="-155" type="line"/>
    </contour>
    <component base="c"/>
  </outline>
</glyph>
<glyph name="divide" format="2">
  <advance width="600"/>
  <unicode hex="00F7"/>
  <outline>
    <contour>
      <point x="100" y="260" type="line"/>
      <point x="500" y="260" type="line"/>
      <point x="500" y="400" type="line"/>
      <point x="100" y="400" type="line"/>
    </contour>
    <contour>
      <point x="300" y="460" type="curve" smooth="yes"/>
      <point x="360" y="460"/>
      <point x="400" y="496"/>
      <point x="400" y="550" type="curve" smooth="yes"/>
      <point x="400" y="604"/>
      <point x="360" y="640"/>
      <point x="300" y="640" type="curve" smooth="yes"/>
      <point x="240" y="640"/>
      <point x="200" y="604"/>
      <point x="200" y="550" type="curve" smooth="yes"/>
      <point x="200" y="496"/>
      <point x="240" y="460"/>
    </contour>
    <contour>
      <point x="300" y="20" type="curve" smooth="yes"/>
      <point x="360" y="20"/>
      <point x="400" y="56"/>
      <point x="400" y="110" type="curve" smooth="yes"/>
      <point x="400" y="164"/>
      <point x="360" y="200"/>
      <point x="300" y="200" type="curve" smooth="yes"/>
      <point x="240" y="200"/>
      <point x="200" y="164"/>
      <point x="200" y="110" type="curve" smooth="yes"/>
      <point x="200" y="56"/>
      <point x="240" y="20"/>
    </contour>
  </outline>
</glyph>
<glyph name="oslash" format="2">
  <advance width="600"/>
  <unicode hex="00F8"/>
  <anchor x="300" y="0" name="bottom"/>
  <anchor x="320" y="550" name="horn"/>
  <anchor x="300" y="550" name="top"/>
  <outline>
    <contour>
      <point x="25" y="-30" type="line"/>
      <point x="140" y="-30" type="line"/>
      <point x="575" y="590" type="line"/>
      <point x="460" y="590" type="line"/>
    </contour>
    <contour>
      <point x="300" y="-10" type="curve" smooth="yes"/>
      <point x="447" y="-10"/>
      <point x="540" y="78"/>
      <point x="540" y="210" type="curve" smooth="yes"/>
      <point x="540" y="340" type="line" smooth="yes"/>
      <point x="540" y="472"/>
      <point x="447" y="560"/>
      <point x="300" y="560" type="curve" smooth="yes"/>
      <point x="153" y="560"/>
      <point x="60" y="472"/>
      <point x="60" y="340" type="curve" smooth="yes"/>
      <point x="60" y="210" type="line" smooth="yes"/>
      <point x="60" y="78"/>
      <point x="153" y="-10"/>
    </contour>
    <contour>
      <point x="300" y="120" type="curve" smooth="yes"/>
      <point x="237" y="120"/>
      <point x="200" y="154"/>
      <point x="200" y="210" type="curve" smooth="yes"/>
      <point x="200" y="340" type="line" smooth="yes"/>
      <point x="200" y="396"/>
      <point x="237" y="430"/>
      <point x="300" y="430" type="curve" smooth="yes"/>
      <point x="363" y="430"/>
      <point x="400" y="396"/>
      <point x="400" y="340" type="curve" smooth="yes"/>
      <point x="400" y="210" type="line" smooth="yes"/>
      <point x="400" y="154"/>
      <point x="363" y="120"/>
    </contour>
  </outline>
</glyph>
<glyph name="dcaron" format="2">
  <advance width="600"/>
  <unicode hex="010F"/>
  <outline>
    <contour>
      <point x="505" y="550" type="line"/>
      <point x="605" y="550" type="line"/>
      <point x="615" y="730" type="line"/>
      <point x="505" y="730" type="line"/>
    </contour>
    <contour>
      <point x="203" y="-10" type="curve" smooth="yes"/>
      <point x="280" y="-10"/>
      <point x="329" y="48"/>
      <point x="329" y="140" type="curve"/>
      <point x="294" y="105" type="line"/>
      <point x="329" y="105" type="line"/>
      <point x="329" y="0" type="line"/>
      <point x="464" y="0" type="line"/>
      <point x="464" y="730" type="line"/>
      <point x="324" y="730" type="line"/>
      <point x="324" y="580" type="line"/>
      <point x="329" y="445" type="line"/>
      <point x="294" y="445" type="line"/>
      <point x="329" y="410" type="line"/>
      <point x="329" y="502"/>
      <point x="280" y="560"/>
      <point x="203" y="560" type="curve" smooth="yes"/>
      <point x="103" y="560"/>
      <point x="40" y="479"/>
      <point x="40" y="351" type="curve" smooth="yes"/>
      <point x="40" y="200" type="line" smooth="yes"/>
      <point x="40" y="71"/>
      <point x="103" y="-10"/>
    </contour>
    <contour>
      <point x="257" y="110" type="curve" smooth="yes"/>
      <point x="209" y="110"/>
      <point x="180" y="145"/>
      <point x="180" y="205" type="curve" smooth="yes"/>
      <point x="180" y="346" type="line" smooth="yes"/>
      <point x="180" y="405"/>
      <point x="209" y="440"/>
      <point x="257" y="440" type="curve" smooth="yes"/>
      <point x="299" y="440"/>
      <point x="324" y="405"/>
      <point x="324" y="346" type="curve" smooth="yes"/>
      <point x="324" y="205" type="line" smooth="yes"/>
      <point x="324" y="145"/>
      <point x="299" y="110"/>
    </contour>
  </outline>
</glyph>
<glyph name="eogonek" format="2">
  <advance width="600"/>
  <unicode hex="0119"/>
  <anchor x="300" y="550" name="top"/>
  <outline>
    <contour>
      <point x="360" y="-225" type="curve" smooth="yes"/>
      <point x="468" y="-225" type="line"/>
      <point x="468" y="-120" type="line"/>
      <point x="399" y="-120" type="line" smooth="yes"/>
      <point x="370" y="-120"/>
      <point x="353" y="-103"/>
      <point x="353" y="-83" type="curve" smooth="yes"/>
      <point x="353" y="-66"/>
      <point x="368" y="-42"/>
      <point x="394" y="-18" type="curve" smooth="yes"/>
      <point x="445" y="29" type="line"/>
      <point x="489" y="58"/>
      <point x="522" y="99"/>
      <point x="535" y="150" type="curve"/>
      <point x="388" y="150" type="line"/>
      <point x="379" y="122"/>
      <point x="350" y="105"/>
      <point x="303" y="105" type="curve" smooth="yes"/>
      <point x="236" y="105"/>
      <point x="203" y="141"/>
      <point x="203" y="210" type="curve" smooth="yes"/>
      <point x="203" y="240" type="line"/>
      <point x="540" y="240" type="line"/>
      <point x="540" y="340" type="line" smooth="yes"/>
      <point x="540" y="472"/>
      <point x="447" y="560"/>
      <point x="301" y="560" type="curve" smooth="yes"/>
      <point x="154" y="560"/>
      <point x="60" y="472"/>
      <point x="60" y="340" type="curve" smooth="yes"/>
      <point x="60" y="210" type="line" smooth="yes"/>
      <point x="60" y="78"/>
      <point x="154" y="-10"/>
      <point x="301" y="-10" type="curve" smooth="yes"/>
      <point x="336" y="-10"/>
      <point x="359" y="9"/>
      <point x="359" y="29" type="curve"/>
      <point x="272" y="-19"/>
      <point x="229" y="-68"/>
      <point x="229" y="-115" type="curve" smooth="yes"/>
      <point x="229" y="-180"/>
      <point x="279" y="-225"/>
    </contour>
    <contour>
      <point x="397" y="317" type="line"/>
      <point x="407" y="327" type="line"/>
      <point x="203" y="325" type="line"/>
      <point x="203" y="340" type="line" smooth="yes"/>
      <point x="203" y="408"/>
      <point x="235" y="447"/>
      <point x="301" y="447" type="curve" smooth="yes"/>
      <point x="366" y="447"/>
      <point x="397" y="410"/>
      <point x="397" y="342" type="curve" smooth="yes"/>
    </contour>
  </outline>
</glyph>
<glyph name="Iogonek" format="2">
  <advance width="600"/>
  <unicode hex="012E"/>
  <anchor x="300" y="0" name="bottom"/>
  <anchor x="320" y="0" name="ogonek"/>
  <anchor x="300" y="730" name="top"/>
  <anchor x="20" y="730" name="topleft"/>
  <outline>
    <contour>
      <point x="296" y="-225" type="curve" smooth="yes"/>
      <point x="404" y="-225" type="line"/>
      <point x="404" y="-120" type="line"/>
      <point x="335" y="-120" type="line" smooth="yes"/>
      <point x="306" y="-120"/>
      <point x="289" y="-103"/>
      <point x="289" y="-83" type="curve" smooth="yes"/>
      <point x="289" y="-66"/>
      <point x="304" y="-42"/>
      <point x="330" y="-18" type="curve" smooth="yes"/>
      <point x="362" y="11" type="line"/>
      <point x="276" y="11" type="line"/>
      <point x="208" y="-19"/>
      <point x="165" y="-68"/>
      <point x="165" y="-115" type="curve" smooth="yes"/>
      <point x="165" y="-180"/>
      <point x="215" y="-225"/>
    </contour>
    <component base="I"/>
  </outline>
</glyph>
<glyph name="Tcedilla" format="2">
  <advance width="600"/>
  <unicode hex="0162"/>
  <anchor x="300" y="0" name="_bottom"/>
  <anchor x="300" y="0" name="bottom"/>
  <anchor x="300" y="365" name="center"/>
  <anchor x="300" y="730" name="top"/>
  <outline>
    <contour>
      <point x="254" y="-225" type="line"/>
      <point x="364" y="-225" type="line" smooth="yes"/>
      <point x="448" y="-225"/>
      <point x="504" y="-182"/>
      <point x="504" y="-133" type="curve" smooth="yes"/>
      <point x="504" y="-72"/>
      <point x="423" y="-43"/>
      <point x="362" y="-39" type="curve"/>
      <point x="375" y="0" type="line"/>
      <point x="308" y="16" type="line"/>
      <point x="273" y="-69" type="line"/>
      <point x="346" y="-69"/>
      <point x="389" y="-88"/>
      <point x="389" y="-119" type="curve" smooth="yes"/>
      <point x="389" y="-135"/>
      <point x="367" y="-155"/>
      <point x="334" y="-155" type="curve" smooth="yes"/>
      <point x="254" y="-155" type="line"/>
    </contour>
    <component base="T"/>
  </outline>
</glyph>
<glyph name="Uogonek" format="2">
  <advance width="600"/>
  <unicode hex="0172"/>
  <anchor x="385" y="730" name="horn"/>
  <anchor x="300" y="730" name="top"/>
  <outline>
    <contour>
      <point x="354" y="-225" type="curve" smooth="yes"/>
      <point x="462" y="-225" type="line"/>
      <point x="462" y="-120" type="line"/>
      <point x="393" y="-120" type="line" smooth="yes"/>
      <point x="364" y="-120"/>
      <point x="347" y="-103"/>
      <point x="347" y="-82" type="curve" smooth="yes"/>
      <point x="347" y="-65"/>
      <point x="359" y="-38"/>
      <point x="386" y="-17" type="curve" smooth="yes"/>
      <point x="434" y="21" type="line"/>
      <point x="498" y="58"/>
      <point x="540" y="127"/>
      <point x="540" y="210" type="curve" smooth="yes"/>
      <point x="540" y="730" type="line"/>
      <point x="390" y="730" type="line"/>
      <point x="390" y="210" type="line" smooth="yes"/>
      <point x="390" y="152"/>
      <point x="360" y="120"/>
      <point x="300" y="120" type="curve" smooth="yes"/>
      <point x="240" y="120"/>
      <point x="210" y="152"/>
      <point x="210" y="210" type="curve" smooth="yes"/>
      <point x="210" y="730" type="line"/>
      <point x="60" y="730" type="line"/>
      <point x="60" y="210" type="line" smooth="yes"/>
      <point x="60" y="78"/>
      <point x="153" y="-10"/>
      <point x="300" y="-10" type="curve" smooth="yes"/>
      <point x="333" y="-10"/>
      <point x="348" y="11"/>
      <point x="348" y="21" type="curve"/>
      <point x="280" y="-9"/>
      <point x="223" y="-68"/>
      <point x="223" y="-115" type="curve" smooth="yes"/>
      <point x="223" y="-180"/>
      <point x="273" y="-225"/>
    </contour>
  </outline>
</glyph>
<glyph name="ohorn" format="2">
  <advance width="600"/>
  <unicode hex="01A1"/>
  <anchor x="290" y="550" name="top"/>
  <anchor x="300" y="0" name="bottom"/>
  <anchor x="300" y="275" name="center"/>
  <anchor x="320" y="550" name="horn"/>
  <anchor x="345" y="0" name="ogonek"/>
  <anchor x="580" y="550" name="topright"/>
  <outline>
    <contour>
      <point x="365" y="430" type="line"/>
      <point x="435" y="430" type="line" smooth="yes"/>
      <point x="522" y="430"/>
      <point x="580" y="484"/>
      <point x="580" y="565" type="curve" smooth="yes"/>
      <point x="580" y="640" type="line"/>
      <point x="460" y="640" type="line"/>
      <point x="460" y="565" type="line" smooth="yes"/>
      <point x="460" y="543"/>
      <point x="447" y="530"/>
      <point x="425" y="530" type="curve" smooth="yes"/>
      <point x="365" y="530" type="line"/>
    </contour>
    <component base="o"/>
  </outline>
</glyph>
<glyph name="Uhorn" format="2">
  <advance width="600"/>
  <unicode hex="01AF"/>
  <anchor x="300" y="730" name="top"/>
  <anchor x="300" y="0" name="bottom"/>
  <anchor x="385" y="730" name="horn"/>
  <anchor x="345" y="0" name="ogonek"/>
  <anchor x="580" y="730" name="topright"/>
  <outline>
    <contour>
      <point x="446" y="630" type="line"/>
      <point x="506" y="630" type="line" smooth="yes"/>
      <point x="593" y="630"/>
      <point x="651" y="684"/>
      <point x="651" y="765" type="curve" smooth="yes"/>
      <point x="651" y="840" type="line"/>
      <point x="531" y="840" type="line"/>
      <point x="531" y="765" type="line" smooth="yes"/>
      <point x="531" y="743"/>
      <point x="518" y="730"/>
      <point x="496" y="730" type="curve" smooth="yes"/>
      <point x="446" y="730" type="line"/>
    </contour>
    <component base="U"/>
  </outline>
</glyph>
<glyph name="uhorn" format="2">
  <advance width="600"/>
  <unicode hex="01B0"/>
  <anchor x="280" y="0" name="bottom"/>
  <anchor x="280" y="550" name="top"/>
  <outline>
    <contour>
      <point x="64" y="209" type="line" smooth="yes"/>
      <point x="64" y="72"/>
      <point x="145" y="-10"/>
      <point x="280" y="-10" type="curve" smooth="yes"/>
      <point x="415" y="-10"/>
      <point x="496" y="72"/>
      <point x="496" y="209" type="curve" smooth="yes"/>
      <point x="496" y="450" type="line"/>
      <point x="583" y="450"/>
      <point x="635" y="504"/>
      <point x="635" y="585" type="curve" smooth="yes"/>
      <point x="635" y="660" type="line"/>
      <point x="515" y="660" type="line"/>
      <point x="515" y="585" type="line" smooth="yes"/>
      <point x="515" y="563"/>
      <point x="502" y="550"/>
      <point x="480" y="550" type="curve" smooth="yes"/>
      <point x="346" y="550" type="line"/>
      <point x="346" y="206" type="line" smooth="yes"/>
      <point x="346" y="150"/>
      <point x="323" y="120"/>
      <point x="280" y="120" type="curve" smooth="yes"/>
      <point x="237" y="120"/>
      <point x="214" y="150"/>
      <point x="214" y="206" type="curve" smooth="yes"/>
      <point x="214" y="550" type="line"/>
      <point x="64" y="550" type="line"/>
    </contour>
  </outline>
</glyph>
<glyph name="jdotless" format="2">
  <advance width="600"/>
  <unicode hex="0237"/>
  <anchor x="300" y="-270" name="bottom"/>
  <anchor x="395" y="550" name="top"/>
  <outline>
    <contour>
      <point x="60" y="-180" type="line"/>
      <point x="246" y="-180" type="line" smooth="yes"/>
      <point x="384" y="-180"/>
      <point x="470" y="-96"/>
      <point x="470" y="40" type="curve" smooth="yes"/>
      <point x="470" y="550" type="line"/>
      <point x="80" y="550" type="line"/>
      <point x="80" y="415" type="line"/>
      <point x="320" y="415" type="line"/>
      <point x="320" y="45" type="line" smooth="yes"/>
      <point x="320" y="-9"/>
      <point x="286" y="-45"/>
      <point x="235" y="-45" type="curve" smooth="yes"/>
      <point x="60" y="-45" type="line"/>
    </contour>
  </outline>
</glyph>
<glyph name="lowtildemod" format="2">
  <advance width="600"/>
  <unicode hex="02F7"/>
  <anchor x="300" y="-310" name="_top"/>
  <outline>
    <contour>
      <point x="370" y="-240" type="curve" smooth="yes"/>
      <point x="436" y="-240"/>
      <point x="480" y="-189"/>
      <point x="480" y="-120" type="curve" smooth="yes"/>
      <point x="480" y="-85" type="line"/>
      <point x="395" y="-85" type="line"/>
      <point x="395" y="-112" type="line" smooth="yes"/>
      <point x="395" y="-129"/>
      <point x="383" y="-140"/>
      <point x="365" y="-140" type="curve" smooth="yes"/>
      <point x="325" y="-140"/>
      <point x="315" y="-80"/>
      <point x="230" y="-80" type="curve" smooth="yes"/>
      <point x="164" y="-80"/>
      <point x="120" y="-131"/>
      <point x="120" y="-200" type="curve" smooth="yes"/>
      <point x="120" y="-235" type="line"/>
      <point x="205" y="-235" type="line"/>
      <point x="205" y="-213" type="line" smooth="yes"/>
      <point x="205" y="-193"/>
      <point x="217" y="-180"/>
      <point x="235" y="-180" type="curve" smooth="yes"/>
      <point x="275" y="-180"/>
      <point x="285" y="-240"/>
    </contour>
  </outline>
</glyph>
<glyph name="acutecomb" format="2">
  <unicode hex="0301"/>
  <anchor x="-310" y="550" name="_top"/>
  <anchor x="-265" y="785" name="top"/>
  <outline>
    <contour>
      <point x="-398" y="645" type="line"/>
      <point x="-249" y="645" type="line"/>
      <point x="-132" y="785" type="line"/>
      <point x="-293" y="785" type="line"/>
    </contour>
  </outline>
</glyph>
<glyph name="circumflexcomb" format="2">
  <unicode hex="0302"/>
  <anchor x="-300" y="550" name="_top"/>
  <anchor x="-300" y="785" name="top"/>
  <outline>
    <contour>
      <point x="-505" y="645" type="line"/>
      <point x="-369" y="645" type="line"/>
      <point x="-302" y="715" type="line"/>
      <point x="-230" y="645" type="line"/>
      <point x="-95" y="645" type="line"/>
      <point x="-230" y="785" type="line"/>
      <point x="-370" y="785" type="line"/>
    </contour>
  </outline>
</glyph>
<glyph name="tildecomb" format="2">
  <unicode hex="0303"/>
  <anchor x="-300" y="550" name="_top"/>
  <anchor x="-300" y="795" name="top"/>
  <outline>
    <contour>
      <point x="-230" y="635" type="curve" smooth="yes"/>
      <point x="-164" y="635"/>
      <point x="-120" y="686"/>
      <point x="-120" y="755" type="curve" smooth="yes"/>
      <point x="-120" y="790" type="line"/>
      <point x="-205" y="790" type="line"/>
      <point x="-205" y="763" type="line" smooth="yes"/>
      <point x="-205" y="746"/>
      <point x="-217" y="735"/>
      <point x="-235" y="735" type="curve" smooth="yes"/>
      <point x="-275" y="735"/>
      <point x="-285" y="795"/>
      <point x="-370" y="795" type="curve" smooth="yes"/>
      <point x="-436" y="795"/>
      <point x="-480" y="744"/>
      <point x="-480" y="675" type="curve" smooth="yes"/>
      <point x="-480" y="640" type="line"/>
      <point x="-395" y="640" type="line"/>
      <point x="-395" y="662" type="line" smooth="yes"/>
      <point x="-395" y="682"/>
      <point x="-383" y="695"/>
      <point x="-365" y="695" type="curve" smooth="yes"/>
      <point x="-325" y="695"/>
      <point x="-315" y="635"/>
    </contour>
  </outline>
</glyph>
<glyph name="dotaccentcomb" format="2">
  <unicode hex="0307"/>
  <anchor x="-300" y="550" name="_top"/>
  <anchor x="-300" y="793" name="top"/>
  <outline>
    <contour>
      <point x="-300" y="637" type="curve" smooth="yes"/>
      <point x="-245" y="637"/>
      <point x="-210" y="667"/>
      <point x="-210" y="715" type="curve" smooth="yes"/>
      <point x="-210" y="763"/>
      <point x="-245" y="793"/>
      <point x="-300" y="793" type="curve" smooth="yes"/>
      <point x="-355" y="793"/>
      <point x="-390" y="763"/>
      <point x="-390" y="715" type="curve" smooth="yes"/>
      <point x="-390" y="667"/>
      <point x="-355" y="637"/>
    </contour>
  </outline>
</glyph>
<glyph name="ringcomb" format="2">
  <unicode hex="030A"/>
  <anchor x="-300" y="550" name="_top"/>
  <anchor x="-300" y="853" name="top"/>
  <outline>
    <contour>
      <point x="-300" y="599" type="curve" smooth="yes"/>
      <point x="-216" y="599"/>
      <point x="-160" y="650"/>
      <point x="-160" y="726" type="curve" smooth="yes"/>
      <point x="-160" y="802"/>
      <point x="-216" y="853"/>
      <point x="-300" y="853" type="curve" smooth="yes"/>
      <point x="-384" y="853"/>
      <point x="-440" y="802"/>
      <point x="-440" y="726" type="curve" smooth="yes"/>
      <point x="-440" y="650"/>
      <point x="-384" y="599"/>
    </contour>
    <contour>
      <point x="-300" y="669" type="curve" smooth="yes"/>
      <point x="-336" y="669"/>
      <point x="-360" y="692"/>
      <point x="-360" y="726" type="curve" smooth="yes"/>
      <point x="-360" y="760"/>
      <point x="-336" y="783"/>
      <point x="-300" y="783" type="curve" smooth="yes"/>
      <point x="-264" y="783"/>
      <point x="-240" y="760"/>
      <point x="-240" y="726" type="curve" smooth="yes"/>
      <point x="-240" y="692"/>
      <point x="-264" y="669"/>
    </contour>
  </outline>
</glyph>
<glyph name="hungarumlautcomb" format="2">
  <unicode hex="030B"/>
  <anchor x="-300" y="550" name="_top"/>
  <anchor x="-263" y="785" name="top"/>
  <outline>
    <contour>
      <point x="-278" y="645" type="line"/>
      <point x="-145" y="645" type="line"/>
      <point x="-30" y="785" type="line"/>
      <point x="-173" y="785" type="line"/>
    </contour>
    <contour>
      <point x="-495" y="645" type="line"/>
      <point x="-362" y="645" type="line"/>
      <point x="-247" y="785" type="line"/>
      <point x="-390" y="785" type="line"/>
    </contour>
  </outline>
</glyph>
<glyph name="dotbelowcomb" format="2">
  <unicode hex="0323"/>
  <anchor x="-300" y="0" name="_bottom"/>
  <anchor x="-300" y="-233" name="bottom"/>
  <outline>
    <contour>
      <point x="-300" y="-233" type="curve" smooth="yes"/>
      <point x="-245" y="-233"/>
      <point x="-210" y="-203"/>
      <point x="-210" y="-155" type="curve" smooth="yes"/>
      <point x="-210" y="-107"/>
      <point x="-245" y="-77"/>
      <point x="-300" y="-77" type="curve" smooth="yes"/>
      <point x="-355" y="-77"/>
      <point x="-390" y="-107"/>
      <point x="-390" y="-155" type="curve" smooth="yes"/>
      <point x="-390" y="-203"/>
      <point x="-355" y="-233"/>
    </contour>
  </outline>
</glyph>
<glyph name="ringbelowcomb" format="2">
  <unicode hex="0325"/>
  <anchor x="-300" y="0" name="_bottom"/>
  <anchor x="-300" y="-260" name="bottom"/>
  <outline>
    <contour>
      <point x="-300" y="-260" type="curve" smooth="yes"/>
      <point x="-222" y="-260"/>
      <point x="-170" y="-218"/>
      <point x="-170" y="-155" type="curve" smooth="yes"/>
      <point x="-170" y="-92"/>
      <point x="-222" y="-50"/>
      <point x="-300" y="-50" type="curve" smooth="yes"/>
      <point x="-378" y="-50"/>
      <point x="-430" y="-92"/>
      <point x="-430" y="-155" type="curve" smooth="yes"/>
      <point x="-430" y="-218"/>
      <point x="-378" y="-260"/>
    </contour>
    <contour>
      <point x="-301" y="-206" type="curve" smooth="yes"/>
      <point x="-337" y="-206"/>
      <point x="-360" y="-186"/>
      <point x="-360" y="-155" type="curve" smooth="yes"/>
      <point x="-360" y="-124"/>
      <point x="-337" y="-104"/>
      <point x="-301" y="-104" type="curve" smooth="yes"/>
      <point x="-264" y="-104"/>
      <point x="-240" y="-124"/>
      <point x="-240" y="-155" type="curve" smooth="yes"/>
      <point x="-240" y="-186"/>
      <point x="-264" y="-206"/>
    </contour>
  </outline>
</glyph>
<glyph name="strokelongcomb" format="2">
  <unicode hex="0336"/>
  <anchor x="-300" y="316" name="_center"/>
  <outline>
    <contour>
      <point x="-630" y="260" type="line"/>
      <point x="30" y="260" type="line"/>
      <point x="30" y="371" type="line"/>
      <point x="-630" y="371" type="line"/>
    </contour>
  </outline>
</glyph>
<glyph name="slashlongcomb" format="2">
  <unicode hex="0338"/>
  <anchor x="-300" y="275" name="_center"/>
  <outline>
    <contour>
      <point x="-495" y="-110" type="line"/>
      <point x="-404" y="-110" type="line"/>
      <point x="-105" y="660" type="line"/>
      <point x="-196" y="660" type="line"/>
    </contour>
  </outline>
</glyph>
<glyph name="tonos" format="2">
  <advance width="600"/>
  <unicode hex="0384"/>
  <anchor x="270" y="550" name="_top"/>
  <outline>
    <contour>
      <point x="182" y="645" type="line"/>
      <point x="331" y="645" type="line"/>
      <point x="448" y="785" type="line"/>
      <point x="287" y="785" type="line"/>
    </contour>
  </outline>
</glyph>
<glyph name="Sigma" format="2">
  <advance width="600"/>
  <unicode hex="03A3"/>
  <outline>
    <contour>
      <point x="65" y="0" type="line"/>
      <point x="550" y="0" type="line"/>
      <point x="550" y="135" type="line"/>
      <point x="248" y="135" type="line"/>
      <point x="429" y="375" type="line"/>
      <point x="247" y="595" type="line"/>
      <point x="550" y="595" type="line"/>
      <point x="550" y="730" type="line"/>
      <point x="65" y="730" type="line"/>
      <point x="65" y="600" type="line"/>
      <point x="251" y="373" type="line"/>
      <point x="65" y="130" type="line"/>
    </contour>
  </outline>
</glyph>
<glyph name="beta" format="2">
  <advance width="600"/>
  <unicode hex="03B2"/>
  <outline>
    <contour>
      <point x="60" y="-180" type="line"/>
      <point x="195" y="-180" type="line"/>
      <point x="195" y="0" type="line"/>
      <point x="312" y="0" type="line" smooth="yes"/>
      <point x="461" y="0"/>
      <point x="560" y="84"/>
      <point x="560" y="209" type="curve" smooth="yes"/>
      <point x="560" y="300"/>
      <point x="505" y="365"/>
      <point x="418" y="387" type="curve"/>
      <point x="501" y="406"/>
      <point x="547" y="461"/>
      <point x="547" y="545" type="curve" smooth="yes"/>
      <point x="547" y="662"/>
      <point x="447" y="740"/>
      <point x="296" y="740" type="curve" smooth="yes"/>
      <point x="154" y="740"/>
      <point x="60" y="650"/>
      <point x="60" y="516" type="curve" smooth="yes"/>
    </contour>
    <contour>
      <point x="195" y="125" type="line"/>
      <point x="195" y="516" type="line" smooth="yes"/>
      <point x="195" y="577"/>
      <point x="234" y="615"/>
      <point x="295" y="615" type="curve" smooth="yes"/>
      <point x="357" y="615"/>
      <point x="396" y="577"/>
      <point x="396" y="517" type="curve" smooth="yes"/>
      <point x="396" y="462"/>
      <point x="361" y="428"/>
      <point x="305" y="428" type="curve" smooth="yes"/>
      <point x="260" y="428" type="line"/>
      <point x="260" y="318" type="line"/>
      <point x="307" y="318" type="line" smooth="yes"/>
      <point x="370" y="318"/>
      <point x="409" y="281"/>
      <point x="409" y="221" type="curve" smooth="yes"/>
      <point x="409" y="161"/>
      <point x="371" y="125"/>
      <point x="307" y="125" type="curve" smooth="yes"/>
    </contour>
  </outline>
</glyph>
<glyph name="gamma" format="2">
  <advance width="600"/>
  <unicode hex="03B3"/>
  <outline>
    <contour>
      <point x="226" y="-180" type="line"/>
      <point x="376" y="-180" type="line"/>
      <point x="376" y="0" type="line"/>
      <point x="573" y="550" type="line"/>
      <point x="420" y="550" type="line"/>
      <point x="326" y="240" type="line" smooth="yes"/>
      <point x="315" y="204"/>
      <point x="307" y="154"/>
      <point x="302" y="127" type="curve"/>
      <point x="296" y="154"/>
      <point x="291" y="204"/>
      <point x="279" y="241" type="curve" smooth="yes"/>
      <point x="182" y="550" type="line"/>
      <point x="27" y="550" type="line"/>
      <point x="226" y="0" type="line"/>
    </contour>
  </outline>
</glyph>
<glyph name="iota" format="2">
  <advance width="600"/>
  <unicode hex="03B9"/>
  <anchor x="300" y="550" name="top"/>
  <outline>
    <contour>
      <point x="419" y="0" type="curve" smooth="yes"/>
      <point x="560" y="0" type="line"/>
      <point x="560" y="135" type="line"/>
      <point x="434" y="135" type="line" smooth="yes"/>
      <point x="398" y="135"/>
      <point x="374" y="159"/>
      <point x="374" y="195" type="curve" smooth="yes"/>
      <point x="374" y="550" type="line"/>
      <point x="40" y="550" type="line"/>
      <point x="40" y="415" type="line"/>
      <point x="224" y="415" type="line"/>
      <point x="224" y="195" type="line" smooth="yes"/>
      <point x="224" y="78"/>
      <point x="302" y="0"/>
    </contour>
  </outline>
</glyph>
<glyph name="pi" format="2">
  <advance width="600"/>
  <unicode hex="03C0"/>
  <outline>
    <contour>
      <point x="537" y="-5" type="curve" smooth="yes"/>
      <point x="575" y="-5" type="line"/>
      <point x="575" y="130" type="line"/>
      <point x="551" y="130" type="line" smooth="yes"/>
      <point x="512" y="130"/>
      <point x="487" y="155"/>
      <point x="487" y="195" type="curve" smooth="yes"/>
      <point x="487" y="422" type="line"/>
      <point x="574" y="422" type="line"/>
      <point x="574" y="550" type="line"/>
      <point x="10" y="550" type="line"/>
      <point x="10" y="422" type="line"/>
      <point x="83" y="422" type="line"/>
      <point x="83" y="0" type="line"/>
      <point x="228" y="0" type="line"/>
      <point x="228" y="422" type="line"/>
      <point x="342" y="422" type="line"/>
      <point x="342" y="190" type="line" smooth="yes"/>
      <point x="342" y="70"/>
      <point x="417" y="-5"/>
    </contour>
  </outline>
</glyph>
<glyph name="sigmafinal" format="2">
  <advance width="600"/>
  <unicode hex="03C2"/>
  <outline>
    <contour>
      <point x="431" y="-180" type="line"/>
      <point x="581" y="-180" type="line"/>
      <point x="581" y="-34" type="line" smooth="yes"/>
      <point x="581" y="70"/>
      <point x="521" y="130"/>
      <point x="415" y="130" type="curve" smooth="yes"/>
      <point x="303" y="130" type="line" smooth="yes"/>
      <point x="243" y="130"/>
      <point x="210" y="162"/>
      <point x="210" y="220" type="curve" smooth="yes"/>
      <point x="210" y="340" type="line" smooth="yes"/>
      <point x="210" y="398"/>
      <point x="243" y="430"/>
      <point x="303" y="430" type="curve" smooth="yes"/>
      <point x="357" y="430"/>
      <point x="392" y="402"/>
      <point x="396" y="355" type="curve"/>
      <point x="546" y="355" type="line"/>
      <point x="541" y="482"/>
      <point x="448" y="560"/>
      <point x="303" y="560" type="curve" smooth="yes"/>
      <point x="156" y="560"/>
      <point x="60" y="473"/>
      <point x="60" y="340" type="curve" smooth="yes"/>
      <point x="60" y="220" type="line" smooth="yes"/>
      <point x="60" y="87"/>
      <point x="156" y="0"/>
      <point x="303" y="0" type="curve" smooth="yes"/>
      <point x="377" y="0" type="line" smooth="yes"/>
      <point x="411" y="0"/>
      <point x="431" y="-20"/>
      <point x="431" y="-54" type="curve" smooth="yes"/>
    </contour>
  </outline>
</glyph>
<glyph name="sigma" format="2">
  <advance width="600"/>
  <unicode hex="03C3"/>
  <outline>
    <contour>
      <point x="300" y="-10" type="curve" smooth="yes"/>
      <point x="447" y="-10"/>
      <point x="540" y="78"/>
      <point x="540" y="210" type="curve" smooth="yes"/>
      <point x="540" y="270" type="line" smooth="yes"/>
      <point x="540" y="366"/>
      <point x="477" y="427"/>
      <point x="376" y="427" type="curve"/>
      <point x="423" y="385" type="line"/>
      <point x="423" y="425" type="line"/>
      <point x="555" y="425" type="line"/>
      <point x="555" y="550" type="line"/>
      <point x="300" y="550" type="line" smooth="yes"/>
      <point x="153" y="550"/>
      <point x="60" y="462"/>
      <point x="60" y="330" type="curve" smooth="yes"/>
      <point x="60" y="210" type="line" smooth="yes"/>
      <point x="60" y="78"/>
      <point x="153" y="-10"/>
    </contour>
    <contour>
      <point x="300" y="120" type="curve" smooth="yes"/>
      <point x="242" y="120"/>
      <point x="210" y="152"/>
      <point x="210" y="210" type="curve" smooth="yes"/>
      <point x="210" y="330" type="line" smooth="yes"/>
      <point x="210" y="388"/>
      <point x="242" y="420"/>
      <point x="300" y="420" type="curve" smooth="yes"/>
      <point x="358" y="420"/>
      <point x="390" y="402"/>
      <point x="390" y="330" type="curve" smooth="yes"/>
      <point x="390" y="210" type="line" smooth="yes"/>
      <point x="390" y="152"/>
      <point x="358" y="120"/>
    </contour>
  </outline>
</glyph>
<glyph name="phi" format="2">
  <advance width="600"/>
  <unicode hex="03C6"/>
  <outline>
    <contour>
      <point x="239" y="-180" type="line"/>
      <point x="361" y="-180" type="line"/>
      <point x="361" y="0" type="line"/>
      <point x="483" y="0"/>
      <point x="560" y="80"/>
      <point x="560" y="207" type="curve" smooth="yes"/>
      <point x="560" y="364" type="line" smooth="yes"/>
      <point x="560" y="478"/>
      <point x="488" y="550"/>
      <point x="374" y="550" type="curve" smooth="yes"/>
      <point x="248" y="550" type="line"/>
      <point x="248" y="115" type="line"/>
      <point x="196" y="115"/>
      <point x="163" y="151"/>
      <point x="163" y="207" type="curve" smooth="yes"/>
      <point x="163" y="550" type="line"/>
      <point x="40" y="550" type="line"/>
      <point x="40" y="207" type="line" smooth="yes"/>
      <point x="40" y="80"/>
      <point x="117" y="0"/>
      <point x="239" y="0" type="curve"/>
    </contour>
    <contour>
      <point x="352" y="115" type="curve"/>
      <point x="352" y="435" type="line"/>
      <point x="368" y="435" type="line" smooth="yes"/>
      <point x="411" y="435"/>
      <point x="437" y="409"/>
      <point x="437" y="364" type="curve" smooth="yes"/>
      <point x="437" y="207" type="line" smooth="yes"/>
      <point x="437" y="149"/>
      <point x="405" y="115"/>
    </contour>
  </outline>
</glyph>
<glyph name="KaiSymbol" format="2">
  <advance width="600"/>
  <unicode hex="03CF"/>
  <anchor x="300" y="0" name="bottom"/>
  <anchor x="300" y="730" name="top"/>
  <outline>
    <contour>
      <point x="336" y="-180" type="line"/>
      <point x="403" y="-180" type="line" smooth="yes"/>
      <point x="518" y="-180"/>
      <point x="580" y="-120"/>
      <point x="580" y="-10" type="curve" smooth="yes"/>
      <point x="580" y="100" type="line"/>
      <point x="448" y="100" type="line"/>
      <point x="448" y="0" type="line" smooth="yes"/>
      <point x="448" y="-37"/>
      <point x="430" y="-55"/>
      <point x="393" y="-55" type="curve" smooth="yes"/>
      <point x="336" y="-55" type="line"/>
    </contour>
    <component base="K"/>
  </outline>
</glyph>
<glyph name="De-cy" format="2">
  <advance width="600"/>
  <unicode hex="0414"/>
  <outline>
    <contour>
      <point x="22" y="-140" type="line"/>
      <point x="162" y="-140" type="line"/>
      <point x="162" y="0" type="line"/>
      <point x="438" y="0" type="line"/>
      <point x="438" y="-140" type="line"/>
      <point x="578" y="-140" type="line"/>
      <point x="578" y="125" type="line"/>
      <point x="518" y="125" type="line"/>
      <point x="518" y="730" type="line"/>
      <point x="113" y="730" type="line"/>
      <point x="107" y="340" type="line" smooth="yes"/>
      <point x="106" y="244"/>
      <point x="75" y="160"/>
      <point x="53" y="125" type="curve"/>
      <point x="22" y="125" type="line"/>
    </contour>
    <contour>
      <point x="200" y="125" type="line"/>
      <point x="219" y="162"/>
      <point x="246" y="248"/>
      <point x="247" y="341" type="curve" smooth="yes"/>
      <point x="251" y="605" type="line"/>
      <point x="378" y="605" type="line"/>
      <point x="378" y="125" type="line"/>
    </contour>
  </outline>
</glyph>
<glyph name="Ze-cy" format="2">
  <advance width="600"/>
  <unicode hex="0417"/>
  <outline>
    <contour>
      <point x="295" y="-10" type="curve" smooth="yes"/>
      <point x="451" y="-10"/>
      <point x="555" y="80"/>
      <point x="555" y="217" type="curve" smooth="yes"/>
      <point x="555" y="325"/>
      <point x="493" y="392"/>
      <point x="396" y="390" type="curve"/>
      <point x="396" y="383" type="line"/>
      <point x="487" y="383"/>
      <point x="545" y="444"/>
      <point x="545" y="540" type="curve" smooth="yes"/>
      <point x="545" y="660"/>
      <point x="448" y="740"/>
      <point x="301" y="740" type="curve" smooth="yes"/>
      <point x="146" y="740"/>
      <point x="43" y="654"/>
      <point x="43" y="523" type="curve"/>
      <point x="193" y="523" type="line"/>
      <point x="193" y="575"/>
      <point x="233" y="610"/>
      <point x="293" y="610" type="curve" smooth="yes"/>
      <point x="353" y="610"/>
      <point x="392" y="575"/>
      <point x="392" y="523" type="curve" smooth="yes"/>
      <point x="392" y="471"/>
      <point x="353" y="437"/>
      <point x="293" y="437" type="curve" smooth="yes"/>
      <point x="190" y="437" type="line"/>
      <point x="190" y="317" type="line"/>
      <point x="291" y="317" type="line" smooth="yes"/>
      <point x="358" y="317"/>
      <point x="402" y="278"/>
      <point x="402" y="218" type="curve" smooth="yes"/>
      <point x="402" y="159"/>
      <point x="358" y="120"/>
      <point x="292" y="120" type="curve" smooth="yes"/>
      <point x="231" y="120"/>
      <point x="189" y="154"/>
      <point x="185" y="205" type="curve"/>
      <point x="35" y="205" type="line"/>
      <point x="39" y="76"/>
      <point x="144" y="-10"/>
    </contour>
  </outline>
</glyph>
<glyph name="Ii-cy" format="2">
  <advance width="600"/>
  <unicode hex="0418"/>
  <anchor x="580" y="0" name="bottomright"/>
  <anchor x="300" y="730" name="top"/>
  <outline>
    <contour>
      <point x="60" y="0" type="line"/>
      <point x="235" y="0" type="line"/>
      <point x="424" y="565" type="line"/>
      <point x="417" y="492"/>
      <point x="408" y="369"/>
      <point x="408" y="300" type="curve" smooth="yes"/>
      <point x="408" y="0" type="line"/>
      <point x="540" y="0" type="line"/>
      <point x="540" y="730" type="line"/>
      <point x="365" y="730" type="line"/>
      <point x="178" y="165" type="line"/>
      <point x="184" y="230"/>
      <point x="192" y="341"/>
      <point x="192" y="410" type="curve" smooth="yes"/>
      <point x="192" y="730" type="line"/>
      <point x="60" y="730" type="line"/>
    </contour>
  </outline>
</glyph>
<glyph name="Pe-cy" format="2">
  <advance width="600"/>
  <unicode hex="041F"/>
  <outline>
    <contour>
      <point x="66" y="0" type="line"/>
      <point x="216" y="0" type="line"/>
      <point x="216" y="595" type="line"/>
      <point x="384" y="595" type="line"/>
      <point x="384" y="0" type="line"/>
      <point x="534" y="0" type="line"/>
      <point x="534" y="730" type="line"/>
      <point x="66" y="730" type="line"/>
    </contour>
  </outline>
</glyph>
<glyph name="ii-cy" format="2">
  <advance width="600"/>
  <unicode hex="0438"/>
  <anchor x="580" y="0" name="bottomright"/>
  <anchor x="300" y="550" name="top"/>
  <outline>
    <contour>
      <point x="66" y="0" type="line"/>
      <point x="248" y="0" type="line"/>
      <point x="420" y="435" type="line"/>
      <point x="412" y="386"/>
      <point x="402" y="301"/>
      <point x="402" y="250" type="curve" smooth="yes"/>
      <point x="402" y="0" type="line"/>
      <point x="534" y="0" type="line"/>
      <point x="534" y="550" type="line"/>
      <point x="352" y="550" type="line"/>
      <point x="178" y="95" type="line"/>
      <point x="187" y="153"/>
      <point x="198" y="249"/>
      <point x="198" y="300" type="curve" smooth="yes"/>
      <point x="198" y="550" type="line"/>
      <point x="66" y="550" type="line"/>
    </contour>
  </outline>
</glyph>
<glyph name="em-cy" format="2">
  <advance width="600"/>
  <unicode hex="043C"/>
  <outline>
    <contour>
      <point x="42" y="0" type="line"/>
      <point x="179" y="0" type="line"/>
      <point x="179" y="100" type="line" smooth="yes"/>
      <point x="179" y="195"/>
      <point x="168" y="338"/>
      <point x="160" y="420" type="curve"/>
      <point x="237" y="155" type="line"/>
      <point x="364" y="155" type="line"/>
      <point x="437" y="420" type="line"/>
      <point x="430" y="334"/>
      <point x="421" y="188"/>
      <point x="421" y="100" type="curve" smooth="yes"/>
      <point x="421" y="0" type="line"/>
      <point x="558" y="0" type="line"/>
      <point x="558" y="550" type="line"/>
      <point x="389" y="550" type="line"/>
      <point x="325" y="345" type="line" smooth="yes"/>
      <point x="310" y="298"/>
      <point x="303" y="257"/>
      <point x="301" y="239" type="curve"/>
      <point x="299" y="257"/>
      <point x="291" y="298"/>
      <point x="276" y="345" type="curve" smooth="yes"/>
      <point x="211" y="550" type="line"/>
      <point x="42" y="550" type="line"/>
    </contour>
  </outline>
</glyph>
<glyph name="te-cy" format="2">
  <advance width="600"/>
  <unicode hex="0442"/>
  <outline>
    <contour>
      <point x="225" y="0" type="line"/>
      <point x="375" y="0" type="line"/>
      <point x="375" y="416" type="line"/>
      <point x="555" y="416" type="line"/>
      <point x="555" y="550" type="line"/>
      <point x="45" y="550" type="line"/>
      <point x="45" y="416" type="line"/>
      <point x="225" y="416" type="line"/>
    </contour>
  </outline>
</glyph>
<glyph name="yeru-cy" format="2">
  <advance width="600"/>
  <unicode hex="044B"/>
  <outline>
    <contour>
      <point x="40" y="0" type="line"/>
      <point x="195" y="0" type="line" smooth="yes"/>
      <point x="312" y="0"/>
      <point x="390" y="73"/>
      <point x="390" y="184" type="curve" smooth="yes"/>
      <point x="390" y="300"/>
      <point x="313" y="375"/>
      <point x="195" y="375" type="curve" smooth="yes"/>
      <point x="165" y="375" type="line"/>
      <point x="165" y="550" type="line"/>
      <point x="40" y="550" type="line"/>
    </contour>
    <contour>
      <point x="165" y="110" type="line"/>
      <point x="165" y="265" type="line"/>
      <point x="195" y="265" type="line" smooth="yes"/>
      <point x="241" y="265"/>
      <point x="270" y="234"/>
      <point x="270" y="185" type="curve" smooth="yes"/>
      <point x="270" y="139"/>
      <point x="241" y="110"/>
      <point x="195" y="110" type="curve" smooth="yes"/>
    </contour>
    <contour>
      <point x="435" y="0" type="line"/>
      <point x="560" y="0" type="line"/>
      <point x="560" y="550" type="line"/>
      <point x="435" y="550" type="line"/>
    </contour>
  </outline>
</glyph>
<glyph name="softsign-cy" format="2">
  <advance width="600"/>
  <unicode hex="044C"/>
  <outline>
    <contour>
      <point x="70" y="0" type="line"/>
      <point x="345" y="0" type="line" smooth="yes"/>
      <point x="480" y="0"/>
      <point x="565" y="73"/>
      <point x="565" y="191" type="curve" smooth="yes"/>
      <point x="565" y="312"/>
      <point x="482" y="385"/>
      <point x="344" y="385" type="curve" smooth="yes"/>
      <point x="220" y="385" type="line"/>
      <point x="220" y="550" type="line"/>
      <point x="70" y="550" type="line"/>
    </contour>
    <contour>
      <point x="220" y="130" type="line"/>
      <point x="220" y="255" type="line"/>
      <point x="335" y="255" type="line" smooth="yes"/>
      <point x="385" y="255"/>
      <point x="414" y="232"/>
      <point x="414" y="193" type="curve" smooth="yes"/>
      <point x="414" y="153"/>
      <point x="385" y="130"/>
      <point x="335" y="130" type="curve" smooth="yes"/>
    </contour>
  </outline>
</glyph>
<glyph name="kadescender-cy" format="2">
  <advance width="600"/>
  <unicode hex="049B"/>
  <outline>
    <contour>
      <point x="66" y="0" type="line"/>
      <point x="216" y="0" type="line"/>
      <point x="216" y="216" type="line"/>
      <point x="292" y="216" type="line"/>
      <point x="408" y="0" type="line"/>
      <point x="578" y="0" type="line"/>
      <point x="422" y="281" type="line"/>
      <point x="575" y="550" type="line"/>
      <point x="408" y="550" type="line"/>
      <point x="293" y="342" type="line"/>
      <point x="216" y="342" type="line"/>
      <point x="216" y="550" type="line"/>
      <point x="66" y="550" type="line"/>
    </contour>
    <contour>
      <point x="460" y="-140" type="line"/>
      <point x="590" y="-140" type="line"/>
      <point x="590" y="140" type="line"/>
      <point x="460" y="140" type="line"/>
    </contour>
  </outline>
</glyph>
<glyph name="Endescender-cy" format="2">
  <advance width="600"/>
  <unicode hex="04A2"/>
  <anchor x="290" y="0" name="bottom"/>
  <anchor x="290" y="365" name="center"/>
  <anchor x="290" y="730" name="top"/>
  <anchor x="10" y="730" name="topleft"/>
  <outline>
    <contour>
      <point x="460" y="-140" type="line"/>
      <point x="590" y="-140" type="line"/>
      <point x="590" y="140" type="line"/>
      <point x="460" y="140" type="line"/>
    </contour>
    <component base="H" xOffset="-10"/>
  </outline>
</glyph>
<glyph name="endescender-cy" format="2">
  <advance width="600"/>
  <unicode hex="04A3"/>
  <anchor x="534" y="0" name="stick-cy"/>
  <outline>
    <contour>
      <point x="56" y="0" type="line"/>
      <point x="206" y="0" type="line"/>
      <point x="206" y="209" type="line"/>
      <point x="374" y="209" type="line"/>
      <point x="374" y="0" type="line"/>
      <point x="524" y="0" type="line"/>
      <point x="524" y="550" type="line"/>
      <point x="374" y="550" type="line"/>
      <point x="374" y="349" type="line"/>
      <point x="206" y="349" type="line"/>
      <point x="206" y="550" type="line"/>
      <point x="56" y="550" type="line"/>
    </contour>
    <contour>
      <point x="459" y="-140" type="line"/>
      <point x="589" y="-140" type="line"/>
      <point x="589" y="140" type="line"/>
      <point x="459" y="140" type="line"/>
    </contour>
  </outline>
</glyph>
<glyph name="Ustraightstroke-cy" format="2">
  <advance width="600"/>
  <unicode hex="04B0"/>
  <anchor x="300" y="0" name="bottom"/>
  <anchor x="300" y="730" name="top"/>
  <anchor x="20" y="730" name="topleft"/>
  <outline>
    <contour>
      <point x="120" y="170" type="line"/>
      <point x="480" y="170" type="line"/>
      <point x="480" y="260" type="line"/>
      <point x="120" y="260" type="line"/>
    </contour>
    <component base="Y"/>
  </outline>
</glyph>
<glyph name="ustraightstroke-cy" format="2">
  <advance width="600"/>
  <unicode hex="04B1"/>
  <outline>
    <contour>
      <point x="120" y="-90" type="line"/>
      <point x="480" y="-90" type="line"/>
      <point x="480" y="0" type="line"/>
      <point x="120" y="0" type="line"/>
    </contour>
    <component base="gamma"/>
  </outline>
</glyph>
<glyph name="Chedescender-cy" format="2">
  <advance width="600"/>
  <unicode hex="04B6"/>
  <outline>
    <contour>
      <point x="445" y="-140" type="line"/>
      <point x="575" y="-140" type="line"/>
      <point x="575" y="140" type="line"/>
      <point x="445" y="140" type="line"/>
    </contour>
    <component base="Che-cy" xOffset="-10"/>
  </outline>
</glyph>
<glyph name="four-gujarati" format="2">
  <advance width="600"/>
  <unicode hex="0AEA"/>
  <outline>
    <contour>
      <point x="300" y="-10" type="curve" smooth="yes"/>
      <point x="442" y="-10"/>
      <point x="540" y="67"/>
      <point x="540" y="182" type="curve" smooth="yes"/>
      <point x="540" y="235"/>
      <point x="520" y="288"/>
      <point x="481" y="335" type="curve" smooth="yes"/>
      <point x="224" y="650" type="line"/>
      <point x="56" y="650" type="line"/>
      <point x="361" y="278" type="line" smooth="yes"/>
      <point x="381" y="254"/>
      <point x="390" y="232"/>
      <point x="390" y="207" type="curve" smooth="yes"/>
      <point x="390" y="155"/>
      <point x="353" y="120"/>
      <point x="300" y="120" type="curve" smooth="yes"/>
      <point x="247" y="120"/>
      <point x="210" y="155"/>
      <point x="210" y="207" type="curve" smooth="yes"/>
      <point x="210" y="229"/>
      <point x="217" y="252"/>
      <point x="237" y="277" type="curve" smooth="yes"/>
      <point x="544" y="650" type="line"/>
      <point x="381" y="650" type="line"/>
      <point x="127" y="342" type="line" smooth="yes"/>
      <point x="82" y="287"/>
      <point x="60" y="238"/>
      <point x="60" y="182" type="curve" smooth="yes"/>
      <point x="60" y="67"/>
      <point x="158" y="-10"/>
    </contour>
  </outline>
</glyph>
<glyph name="endash" format="2">
  <advance width="600"/>
  <unicode hex="2013"/>
  <outline>
    <contour>
      <point x="75" y="260" type="line"/>
      <point x="525" y="260" type="line"/>
      <point x="525" y="400" type="line"/>
      <point x="75" y="400" type="line"/>
    </contour>
  </outline>
</glyph>
<glyph name="undertie" format="2">
  <advance width="600"/>
  <unicode hex="203F"/>
  <outline>
    <contour>
      <point x="150" y="-180" type="curve" smooth="yes"/>
      <point x="450" y="-180" type="line" smooth="yes"/>
      <point x="553" y="-180"/>
      <point x="620" y="-113"/>
      <point x="620" y="-10" type="curve"/>
      <point x="470" y="-10" type="line"/>
      <point x="470" y="-46"/>
      <point x="451" y="-65"/>
      <point x="415" y="-65" type="curve" smooth="yes"/>
      <point x="185" y="-65" type="line" smooth="yes"/>
      <point x="149" y="-65"/>
      <point x="130" y="-46"/>
      <point x="130" y="-10" type="curve"/>
      <point x="-20" y="-10" type="line"/>
      <point x="-20" y="-113"/>
      <point x="47" y="-180"/>
    </contour>
  </outline>
</glyph>
<glyph name="bracketleftwithquill" format="2">
  <advance width="600"/>
  <unicode hex="2045"/>
  <outline>
    <contour>
      <point x="170" y="-110" type="line"/>
      <point x="475" y="-110" type="line"/>
      <point x="475" y="30" type="line"/>
      <point x="320" y="30" type="line"/>
      <point x="320" y="305" type="line"/>
      <point x="475" y="305" type="line"/>
      <point x="475" y="445" type="line"/>
      <point x="320" y="445" type="line"/>
      <point x="320" y="690" type="line"/>
      <point x="475" y="690" type="line"/>
      <point x="475" y="830" type="line"/>
      <point x="170" y="830" type="line"/>
    </contour>
  </outline>
</glyph>
<glyph name="bitcoin" format="2">
  <advance width="600"/>
  <unicode hex="20BF"/>
  <outline>
    <contour>
      <point x="177" y="-140" type="line"/>
      <point x="242" y="-140" type="line"/>
      <point x="242" y="0" type="line"/>
      <point x="312" y="0" type="line"/>
      <point x="312" y="-140" type="line"/>
      <point x="377" y="-140" type="line"/>
      <point x="377" y="6" type="line"/>
      <point x="491" y="27"/>
      <point x="560" y="103"/>
      <point x="560" y="211" type="curve" smooth="yes"/>
      <point x="560" y="323"/>
      <point x="479" y="379"/>
      <point x="380" y="381" type="curve"/>
      <point x="471" y="386"/>
      <point x="544" y="446"/>
      <point x="544" y="543" type="curve" smooth="yes"/>
      <point x="544" y="636"/>
      <point x="481" y="702"/>
      <point x="377" y="723" type="curve"/>
      <point x="377" y="871" type="line"/>
      <point x="312" y="871" type="line"/>
      <point x="312" y="730" type="line"/>
      <point x="242" y="730" type="line"/>
      <point x="242" y="871" type="line"/>
      <point x="177" y="871" type="line"/>
      <point x="177" y="730" type="line"/>
      <point x="66" y="730" type="line"/>
      <point x="66" y="0" type="line"/>
      <point x="177" y="0" type="line"/>
    </contour>
    <contour>
      <point x="211" y="121" type="line"/>
      <point x="211" y="318" type="line"/>
      <point x="304" y="318" type="line" smooth="yes"/>
      <point x="369" y="318"/>
      <point x="409" y="280"/>
      <point x="409" y="219" type="curve" smooth="yes"/>
      <point x="409" y="158"/>
      <point x="369" y="121"/>
      <point x="304" y="121" type="curve" smooth="yes"/>
    </contour>
    <contour>
      <point x="211" y="436" type="line"/>
      <point x="211" y="609" type="line"/>
      <point x="299" y="609" type="line" smooth="yes"/>
      <point x="357" y="609"/>
      <point x="393" y="577"/>
      <point x="393" y="523" type="curve" smooth="yes"/>
      <point x="393" y="469"/>
      <point x="357" y="436"/>
      <point x="299" y="436" type="curve" smooth="yes"/>
    </contour>
  </outline>
</glyph>
<glyph name="NdoubleStruck" format="2">
  <advance width="600"/>
  <unicode hex="2115"/>
  <outline>
    <contour>
      <point x="90" y="0" type="line"/>
      <point x="135" y="0" type="line"/>
      <point x="135" y="430" type="line" smooth="yes"/>
      <point x="135" y="467"/>
      <point x="134" y="526"/>
      <point x="131" y="570" type="curve"/>
      <point x="381" y="0" type="line"/>
      <point x="510" y="0" type="line"/>
      <point x="510" y="730" type="line"/>
      <point x="465" y="730" type="line"/>
      <point x="465" y="300" type="line" smooth="yes"/>
      <point x="465" y="264"/>
      <point x="466" y="204"/>
      <point x="470" y="161" type="curve"/>
      <point x="219" y="730" type="line"/>
      <point x="90" y="730" type="line"/>
    </contour>
    <contour>
      <point x="410" y="39" type="line"/>
      <point x="124" y="691" type="line"/>
      <point x="190" y="691" type="line"/>
      <point x="476" y="39" type="line"/>
    </contour>
  </outline>
</glyph>
<glyph name="leftArrow" format="2">
  <advance width="600"/>
  <unicode hex="2190"/>
  <outline>
    <contour>
      <point x="272" y="35" type="line"/>
      <point x="377" y="35" type="line"/>
      <point x="215" y="239" type="line" smooth="yes"/>
      <point x="198" y="259"/>
      <point x="179" y="278"/>
      <point x="170" y="286" type="curve"/>
      <point x="170" y="295" type="line"/>
      <point x="187" y="293"/>
      <point x="218" y="290"/>
      <point x="240" y="290" type="curve" smooth="yes"/>
      <point x="570" y="290" type="line"/>
      <point x="570" y="370" type="line"/>
      <point x="240" y="370" type="line" smooth="yes"/>
      <point x="218" y="370"/>
      <point x="187" y="368"/>
      <point x="170" y="366" type="curve"/>
      <point x="170" y="375" type="line"/>
      <point x="182" y="384"/>
      <point x="202" y="403"/>
      <point x="215" y="420" type="curve" smooth="yes"/>
      <point x="377" y="625" type="line"/>
      <point x="271" y="625" type="line"/>
      <point x="40" y="330" type="line"/>
    </contour>
  </outline>
</glyph>
<glyph name="upArrow" format="2">
  <advance width="600"/>
  <unicode hex="2191"/>
  <outline>
    <contour>
      <point x="255" y="0" type="line"/>
      <point x="345" y="0" type="line"/>
      <point x="345" y="520" type="line" smooth="yes"/>
      <point x="345" y="549"/>
      <point x="342" y="583"/>
      <point x="340" y="600" type="curve"/>
      <point x="350" y="600" type="line"/>
      <point x="356" y="592"/>
      <point x="375" y="572"/>
      <point x="404" y="547" type="curve" smooth="yes"/>
      <point x="590" y="389" type="line"/>
      <point x="590" y="494" type="line"/>
      <point x="301" y="740" type="line"/>
      <point x="10" y="493" type="line"/>
      <point x="10" y="388" type="line"/>
      <point x="195" y="546" type="line" smooth="yes"/>
      <point x="224" y="571"/>
      <point x="244" y="591"/>
      <point x="250" y="600" type="curve"/>
      <point x="260" y="600" type="line"/>
      <point x="258" y="583"/>
      <point x="255" y="549"/>
      <point x="255" y="520" type="curve" smooth="yes"/>
    </contour>
  </outline>
</glyph>
<glyph name="rightArrow" format="2">
  <advance width="600"/>
  <unicode hex="2192"/>
  <outline>
    <contour>
      <point x="233" y="35" type="line"/>
      <point x="339" y="35" type="line"/>
      <point x="570" y="330" type="line"/>
      <point x="338" y="625" type="line"/>
      <point x="233" y="625" type="line"/>
      <point x="395" y="421" type="line" smooth="yes"/>
      <point x="412" y="401"/>
      <point x="431" y="382"/>
      <point x="440" y="374" type="curve"/>
      <point x="440" y="365" type="line"/>
      <point x="423" y="367"/>
      <point x="392" y="370"/>
      <point x="370" y="370" type="curve" smooth="yes"/>
      <point x="40" y="370" type="line"/>
      <point x="40" y="290" type="line"/>
      <point x="370" y="290" type="line" smooth="yes"/>
      <point x="392" y="290"/>
      <point x="423" y="292"/>
      <point x="440" y="294" type="curve"/>
      <point x="440" y="285" type="line"/>
      <point x="428" y="276"/>
      <point x="408" y="257"/>
      <point x="395" y="240" type="curve" smooth="yes"/>
    </contour>
  </outline>
</glyph>
<glyph name="leftRightDoubleArrow" format="2">
  <advance width="600"/>
  <unicode hex="21D4"/>
  <outline>
    <contour>
      <point x="151" y="35" type="line"/>
      <point x="257" y="35" type="line"/>
      <point x="151" y="170" type="line"/>
      <point x="449" y="170" type="line"/>
      <point x="343" y="35" type="line"/>
      <point x="449" y="35" type="line"/>
      <point x="680" y="330" type="line"/>
      <point x="448" y="625" type="line"/>
      <point x="343" y="625" type="line"/>
      <point x="449" y="490" type="line"/>
      <point x="151" y="490" type="line"/>
      <point x="257" y="625" type="line"/>
      <point x="152" y="625" type="line"/>
      <point x="-80" y="330" type="line"/>
    </contour>
    <contour>
      <point x="88" y="250" type="line"/>
      <point x="25" y="330" type="line"/>
      <point x="88" y="410" type="line"/>
      <point x="512" y="410" type="line"/>
      <point x="575" y="330" type="line"/>
      <point x="512" y="250" type="line"/>
    </contour>
  </outline>
</glyph>
<glyph name="upWhiteArrow" format="2">
  <advance width="600"/>
  <unicode hex="21E7"/>
  <outline>
    <contour>
      <point x="585" y="424" type="line"/>
      <point x="300" y="755" type="line"/>
      <point x="15" y="424" type="line"/>
      <point x="143" y="424" type="line"/>
      <point x="143" y="31" type="line" smooth="yes"/>
      <point x="143" y="14"/>
      <point x="157" y="0"/>
      <point x="174" y="0" type="curve" smooth="yes"/>
      <point x="424" y="-1" type="line" smooth="yes"/>
      <point x="441" y="-1"/>
      <point x="455" y="14"/>
      <point x="455" y="31" type="curve" smooth="yes"/>
      <point x="455" y="424" type="line"/>
    </contour>
    <contour>
      <point x="440" y="485" type="line"/>
      <point x="384" y="485" type="line"/>
      <point x="384" y="64" type="line"/>
      <point x="213" y="65" type="line"/>
      <point x="213" y="485" type="line"/>
      <point x="160" y="485" type="line"/>
      <point x="300" y="653" type="line"/>
    </contour>
  </outline>
</glyph>
<glyph name="theredoesnotexist" format="2">
  <advance width="600"/>
  <unicode hex="2204"/>
  <outline>
    <contour>
      <point x="60" y="-110" type="line"/>
      <point x="152" y="-110" type="line"/>
      <point x="497" y="830" type="line"/>
      <point x="405" y="830" type="line"/>
    </contour>
    <component base="existential"/>
  </outline>
</glyph>
<glyph name="summation" format="2">
  <advance width="600"/>
  <unicode hex="2211"/>
  <outline>
    <contour>
      <point x="55" y="-180" type="line"/>
      <point x="540" y="-180" type="line"/>
      <point x="540" y="-45" type="line"/>
      <point x="232" y="-45" type="line"/>
      <point x="464" y="274" type="line"/>
      <point x="232" y="595" type="line"/>
      <point x="540" y="595" type="line"/>
      <point x="540" y="730" type="line"/>
      <point x="55" y="730" type="line"/>
      <point x="55" y="597" type="line"/>
      <point x="287" y="273" type="line"/>
      <point x="55" y="-47" type="line"/>
    </contour>
  </outline>
</glyph>
<glyph name="doesnotdivide" format="2">
  <advance width="600"/>
  <unicode hex="2224"/>
  <outline>
    <contour>
      <point x="52" y="140" type="line"/>
      <point x="165" y="140" type="line"/>
      <point x="548" y="590" type="line"/>
      <point x="435" y="590" type="line"/>
    </contour>
    <component base="divides"/>
  </outline>
</glyph>
<glyph name="union" format="2">
  <advance width="600"/>
  <unicode hex="222A"/>
  <outline>
    <contour>
      <point x="0" y="730" type="line"/>
      <point x="0" y="250" type="line" smooth="yes"/>
      <point x="0" y="88"/>
      <point x="94" y="0"/>
      <point x="268" y="0" type="curve" smooth="yes"/>
      <point x="332" y="0" type="line" smooth="yes"/>
      <point x="506" y="0"/>
      <point x="600" y="88"/>
      <point x="600" y="250" type="curve" smooth="yes"/>
      <point x="600" y="730" type="line"/>
      <point x="450" y="730" type="line"/>
      <point x="450" y="250" type="line" smooth="yes"/>
      <point x="450" y="172"/>
      <point x="408" y="130"/>
      <point x="330" y="130" type="curve" smooth="yes"/>
      <point x="270" y="130" type="line" smooth="yes"/>
      <point x="192" y="130"/>
      <point x="150" y="172"/>
      <point x="150" y="250" type="curve" smooth="yes"/>
      <point x="150" y="730" type="line"/>
    </contour>
  </outline>
</glyph>
<glyph name="dotminus" format="2">
  <advance width="600"/>
  <unicode hex="2238"/>
  <outline>
    <contour>
      <point x="300" y="335" type="curve" smooth="yes"/>
      <point x="360" y="335"/>
      <point x="400" y="371"/>
      <point x="400" y="425" type="curve" smooth="yes"/>
      <point x="400" y="479"/>
      <point x="360" y="515"/>
      <point x="300" y="515" type="curve" smooth="yes"/>
      <point x="240" y="515"/>
      <point x="200" y="479"/>
      <point x="200" y="425" type="curve" smooth="yes"/>
      <point x="200" y="371"/>
      <point x="240" y="335"/>
    </contour>
    <component base="minus" yOffset="-125"/>
  </outline>
</glyph>
<glyph name="asymptoticallyequal" format="2">
  <advance width="600"/>
  <unicode hex="2243"/>
  <outline>
    <contour>
      <point x="45" y="135" type="line"/>
      <point x="555" y="135" type="line"/>
      <point x="555" y="275" type="line"/>
      <point x="45" y="275" type="line"/>
    </contour>
    <component base="asciitilde" yOffset="114"/>
  </outline>
</glyph>
<glyph name="congruent" format="2">
  <advance width="600"/>
  <unicode hex="2245"/>
  <outline>
    <contour>
      <point x="45" y="0" type="line"/>
      <point x="555" y="0" type="line"/>
      <point x="555" y="130" type="line"/>
      <point x="45" y="130" type="line"/>
    </contour>
    <contour>
      <point x="45" y="265" type="line"/>
      <point x="555" y="265" type="line"/>
      <point x="555" y="395" type="line"/>
      <point x="45" y="395" type="line"/>
    </contour>
    <component base="asciitilde" yOffset="245"/>
  </outline>
</glyph>
<glyph name="neitherapproximatelynoractuallyequalto" format="2">
  <advance width="600"/>
  <unicode hex="2247"/>
  <outline>
    <contour>
      <point x="105" y="-100" type="line"/>
      <point x="196" y="-100" type="line"/>
      <point x="495" y="780" type="line"/>
      <point x="404" y="780" type="line"/>
    </contour>
    <contour>
      <point x="45" y="0" type="line"/>
      <point x="555" y="0" type="line"/>
      <point x="555" y="130" type="line"/>
      <point x="45" y="130" type="line"/>
    </contour>
    <contour>
      <point x="45" y="265" type="line"/>
      <point x="555" y="265" type="line"/>
      <point x="555" y="395" type="line"/>
      <point x="45" y="395" type="line"/>
    </contour>
    <component base="asciitilde" yOffset="245"/>
  </outline>
</glyph>
<glyph name="colonequals" format="2">
  <advance width="600"/>
  <unicode hex="2254"/>
  <outline>
    <contour>
      <point x="250" y="385" type="line"/>
      <point x="600" y="385" type="line"/>
      <point x="600" y="525" type="line"/>
      <point x="250" y="525" type="line"/>
    </contour>
    <contour>
      <point x="90" y="85" type="curve" smooth="yes"/>
      <point x="150" y="85"/>
      <point x="190" y="123"/>
      <point x="190" y="180" type="curve" smooth="yes"/>
      <point x="190" y="241"/>
      <point x="150" y="281"/>
      <point x="90" y="281" type="curve" smooth="yes"/>
      <point x="30" y="281"/>
      <point x="-10" y="241"/>
      <point x="-10" y="180" type="curve" smooth="yes"/>
      <point x="-10" y="123"/>
      <point x="30" y="85"/>
    </contour>
    <contour>
      <point x="90" y="379" type="curve" smooth="yes"/>
      <point x="150" y="379"/>
      <point x="190" y="417"/>
      <point x="190" y="474" type="curve" smooth="yes"/>
      <point x="190" y="535"/>
      <point x="150" y="575"/>
      <point x="90" y="575" type="curve" smooth="yes"/>
      <point x="30" y="575"/>
      <point x="-10" y="535"/>
      <point x="-10" y="474" type="curve" smooth="yes"/>
      <point x="-10" y="417"/>
      <point x="30" y="379"/>
    </contour>
    <contour>
      <point x="250" y="135" type="line"/>
      <point x="600" y="135" type="line"/>
      <point x="600" y="275" type="line"/>
      <point x="250" y="275" type="line"/>
    </contour>
  </outline>
</glyph>
<glyph name="equivalence" format="2">
  <advance width="600"/>
  <unicode hex="2261"/>
  <outline>
    <contour>
      <point x="80" y="530" type="line"/>
      <point x="520" y="530" type="line"/>
      <point x="520" y="660" type="line"/>
      <point x="80" y="660" type="line"/>
    </contour>
    <contour>
      <point x="80" y="0" type="line"/>
      <point x="520" y="0" type="line"/>
      <point x="520" y="130" type="line"/>
      <point x="80" y="130" type="line"/>
    </contour>
    <contour>
      <point x="80" y="265" type="line"/>
      <point x="520" y="265" type="line"/>
      <point x="520" y="395" type="line"/>
      <point x="80" y="395" type="line"/>
    </contour>
  </outline>
</glyph>
<glyph name="muchless" format="2">
  <advance width="600"/>
  <unicode hex="226A"/>
  <outline>
    <contour>
      <point x="600" y="48" type="line"/>
      <point x="600" y="166" type="line"/>
      <point x="416" y="297" type="line" smooth="yes"/>
      <point x="398" y="310"/>
      <point x="382" y="321"/>
      <point x="367" y="328" type="curve"/>
      <point x="382" y="335"/>
      <point x="396" y="344"/>
      <point x="416" y="358" type="curve" smooth="yes"/>
      <point x="600" y="481" type="line"/>
      <point x="600" y="608" type="line"/>
      <point x="280" y="390" type="line"/>
      <point x="280" y="267" type="line"/>
    </contour>
    <contour>
      <point x="320" y="48" type="line"/>
      <point x="320" y="166" type="line"/>
      <point x="136" y="297" type="line" smooth="yes"/>
      <point x="118" y="310"/>
      <point x="102" y="321"/>
      <point x="87" y="328" type="curve"/>
      <point x="102" y="335"/>
      <point x="116" y="344"/>
      <point x="136" y="358" type="curve" smooth="yes"/>
      <point x="320" y="481" type="line"/>
      <point x="320" y="608" type="line"/>
      <point x="0" y="390" type="line"/>
      <point x="0" y="267" type="line"/>
    </contour>
  </outline>
</glyph>
<glyph name="muchgreater" format="2">
  <advance width="600"/>
  <unicode hex="226B"/>
  <outline>
    <contour>
      <point x="280" y="48" type="line"/>
      <point x="600" y="267" type="line"/>
      <point x="600" y="390" type="line"/>
      <point x="280" y="608" type="line"/>
      <point x="280" y="481" type="line"/>
      <point x="464" y="358" type="line" smooth="yes"/>
      <point x="484" y="344"/>
      <point x="498" y="335"/>
      <point x="513" y="328" type="curve"/>
      <point x="498" y="321"/>
      <point x="482" y="310"/>
      <point x="464" y="297" type="curve" smooth="yes"/>
      <point x="280" y="166" type="line"/>
    </contour>
    <contour>
      <point x="0" y="48" type="line"/>
      <point x="320" y="267" type="line"/>
      <point x="320" y="390" type="line"/>
      <point x="0" y="608" type="line"/>
      <point x="0" y="481" type="line"/>
      <point x="184" y="358" type="line" smooth="yes"/>
      <point x="204" y="344"/>
      <point x="218" y="335"/>
      <point x="233" y="328" type="curve"/>
      <point x="218" y="321"/>
      <point x="202" y="310"/>
      <point x="184" y="297" type="curve" smooth="yes"/>
      <point x="0" y="166" type="line"/>
    </contour>
  </outline>
</glyph>
<glyph name="notless" format="2">
  <advance width="600"/>
  <unicode hex="226E"/>
  <outline>
    <contour>
      <point x="107" y="-69" type="line"/>
      <point x="198" y="-69" type="line"/>
      <point x="473" y="730" type="line"/>
      <point x="382" y="730" type="line"/>
    </contour>
    <component base="less"/>
  </outline>
</glyph>
<glyph name="notlessnorequal" format="2">
  <advance width="600"/>
  <unicode hex="2270"/>
  <outline>
    <contour>
      <point x="70" y="0" type="line"/>
      <point x="530" y="0" type="line"/>
      <point x="530" y="140" type="line"/>
      <point x="70" y="140" type="line"/>
    </contour>
    <contour>
      <point x="105" y="-110" type="line"/>
      <point x="196" y="-110" type="line"/>
      <point x="495" y="780" type="line"/>
      <point x="404" y="780" type="line"/>
    </contour>
    <component base="less" yOffset="125"/>
  </outline>
</glyph>
<glyph name="precedes" format="2">
  <advance width="600"/>
  <unicode hex="227A"/>
  <outline>
    <contour>
      <point x="400" y="55" type="curve"/>
      <point x="530" y="55" type="line"/>
      <point x="514" y="229"/>
      <point x="372" y="332"/>
      <point x="139" y="338" type="curve"/>
      <point x="139" y="336" type="line"/>
      <point x="372" y="340"/>
      <point x="514" y="436"/>
      <point x="530" y="600" type="curve"/>
      <point x="400" y="600" type="line"/>
      <point x="383" y="479"/>
      <point x="254" y="410"/>
      <point x="45" y="410" type="curve"/>
      <point x="45" y="250" type="line"/>
      <point x="256" y="250"/>
      <point x="385" y="179"/>
    </contour>
  </outline>
</glyph>
<glyph name="notsubset" format="2">
  <advance width="600"/>
  <unicode hex="2284"/>
  <outline>
    <contour>
      <point x="115" y="-60" type="line"/>
      <point x="206" y="-60" type="line"/>
      <point x="485" y="780" type="line"/>
      <point x="394" y="780" type="line"/>
    </contour>
    <component base="subset"/>
  </outline>
</glyph>
<glyph name="squareimageoforequalto" format="2">
  <advance width="600"/>
  <unicode hex="2291"/>
  <outline>
    <contour>
      <point x="25" y="185" type="line"/>
      <point x="575" y="185" type="line"/>
      <point x="575" y="325" type="line"/>
      <point x="175" y="325" type="line"/>
      <point x="175" y="555" type="line"/>
      <point x="575" y="555" type="line"/>
      <point x="575" y="695" type="line"/>
      <point x="25" y="695" type="line"/>
    </contour>
    <contour>
      <point x="25" y="0" type="line"/>
      <point x="575" y="0" type="line"/>
      <point x="575" y="140" type="line"/>
      <point x="25" y="140" type="line"/>
    </contour>
  </outline>
</glyph>
<glyph name="squareoriginaloforequalto" format="2">
  <advance width="600"/>
  <unicode hex="2292"/>
  <outline>
    <contour>
      <point x="25" y="185" type="line"/>
      <point x="575" y="185" type="line"/>
      <point x="575" y="695" type="line"/>
      <point x="25" y="695" type="line"/>
      <point x="25" y="555" type="line"/>
      <point x="425" y="555" type="line"/>
      <point x="425" y="325" type="line"/>
      <point x="25" y="325" type="line"/>
    </contour>
    <contour>
      <point x="25" y="0" type="line"/>
      <point x="575" y="0" type="line"/>
      <point x="575" y="140" type="line"/>
      <point x="25" y="140" type="line"/>
    </contour>
  </outline>
</glyph>
<glyph name="squarecap" format="2">
  <advance width="600"/>
  <unicode hex="2293"/>
  <outline>
    <contour>
      <point x="45" y="0" type="line"/>
      <point x="195" y="0" type="line"/>
      <point x="195" y="410" type="line"/>
      <point x="405" y="410" type="line"/>
      <point x="405" y="0" type="line"/>
      <point x="555" y="0" type="line"/>
      <point x="555" y="550" type="line"/>
      <point x="45" y="550" type="line"/>
    </contour>
  </outline>
</glyph>
<glyph name="operator.circled" format="2">
  <advance width="600"/>
  <unicode hex="2299"/>
  <outline>
    <contour>
      <point x="300" y="0" type="curve" smooth="yes"/>
      <point x="477" y="0"/>
      <point x="610" y="133"/>
      <point x="610" y="310" type="curve" smooth="yes"/>
      <point x="610" y="487"/>
      <point x="477" y="620"/>
      <point x="300" y="620" type="curve" smooth="yes"/>
      <point x="123" y="620"/>
      <point x="-10" y="487"/>
      <point x="-10" y="310" type="curve" smooth="yes"/>
      <point x="-10" y="133"/>
      <point x="123" y="0"/>
    </contour>
    <contour>
      <point x="300" y="50" type="curve" smooth="yes"/>
      <point x="152" y="50"/>
      <point x="40" y="162"/>
      <point x="40" y="310" type="curve" smooth="yes"/>
      <point x="40" y="458"/>
      <point x="152" y="570"/>
      <point x="300" y="570" type="curve" smooth="yes"/>
      <point x="448" y="570"/>
      <point x="560" y="458"/>
      <point x="560" y="310" type="curve" smooth="yes"/>
      <point x="560" y="162"/>
      <point x="448" y="50"/>
    </contour>
    <contour>
      <point x="300" y="254" type="curve" smooth="yes"/>
      <point x="268" y="254"/>
      <point x="244" y="278"/>
      <point x="244" y="310" type="curve" smooth="yes"/>
      <point x="244" y="342"/>
      <point x="268" y="366"/>
      <point x="300" y="366" type="curve" smooth="yes"/>
      <point x="332" y="366"/>
      <point x="356" y="342"/>
      <point x="356" y="310" type="curve" smooth="yes"/>
      <point x="356" y="278"/>
      <point x="332" y="254"/>
    </contour>
  </outline>
</glyph>
<glyph name="asteriskoperator.circled" format="2">
  <advance width="600"/>
  <unicode hex="229B"/>
  <outline>
    <contour>
      <point x="300" y="20" type="curve" smooth="yes"/>
      <point x="477" y="20"/>
      <point x="610" y="153"/>
      <point x="610" y="330" type="curve" smooth="yes"/>
      <point x="610" y="507"/>
      <point x="477" y="640"/>
      <point x="300" y="640" type="curve" smooth="yes"/>
      <point x="123" y="640"/>
      <point x="-10" y="507"/>
      <point x="-10" y="330" type="curve" smooth="yes"/>
      <point x="-10" y="153"/>
      <point x="123" y="20"/>
    </contour>
    <contour>
      <point x="300" y="70" type="curve" smooth="yes"/>
      <point x="152" y="70"/>
      <point x="40" y="182"/>
      <point x="40" y="330" type="curve" smooth="yes"/>
      <point x="40" y="478"/>
      <point x="152" y="590"/>
      <point x="300" y="590" type="curve" smooth="yes"/>
      <point x="448" y="590"/>
      <point x="560" y="478"/>
      <point x="560" y="330" type="curve" smooth="yes"/>
      <point x="560" y="182"/>
      <point x="448" y="70"/>
    </contour>
    <contour>
      <point x="197" y="75" type="line"/>
      <point x="229" y="120" type="line" smooth="yes"/>
      <point x="262" y="167"/>
      <point x="286" y="250"/>
      <point x="297" y="292" type="curve"/>
      <point x="303" y="292" type="line"/>
      <point x="314" y="250"/>
      <point x="338" y="167"/>
      <point x="371" y="120" type="curve" smooth="yes"/>
      <point x="403" y="75" type="line"/>
      <point x="509" y="149" type="line"/>
      <point x="478" y="195" type="line" smooth="yes"/>
      <point x="447" y="241"/>
      <point x="378" y="290"/>
      <point x="342" y="315" type="curve"/>
      <point x="344" y="319" type="line"/>
      <point x="389" y="319"/>
      <point x="469" y="322"/>
      <point x="521" y="341" type="curve" smooth="yes"/>
      <point x="573" y="360" type="line"/>
      <point x="528" y="482" type="line"/>
      <point x="476" y="463" type="line" smooth="yes"/>
      <point x="424" y="444"/>
      <point x="360" y="394"/>
      <point x="326" y="365" type="curve"/>
      <point x="322" y="368" type="line"/>
      <point x="337" y="409"/>
      <point x="365" y="490"/>
      <point x="365" y="548" type="curve" smooth="yes"/>
      <point x="365" y="603" type="line"/>
      <point x="235" y="603" type="line"/>
      <point x="235" y="548" type="line" smooth="yes"/>
      <point x="235" y="490"/>
      <point x="263" y="409"/>
      <point x="278" y="368" type="curve"/>
      <point x="273" y="364" type="line"/>
      <point x="239" y="393"/>
      <point x="175" y="444"/>
      <point x="123" y="463" type="curve" smooth="yes"/>
      <point x="71" y="482" type="line"/>
      <point x="27" y="360" type="line"/>
      <point x="78" y="341" type="line" smooth="yes"/>
      <point x="130" y="322"/>
      <point x="211" y="319"/>
      <point x="256" y="319" type="curve"/>
      <point x="258" y="315" type="line"/>
      <point x="222" y="290"/>
      <point x="155" y="241"/>
      <point x="122" y="194" type="curve" smooth="yes"/>
      <point x="91" y="149" type="line"/>
    </contour>
  </outline>
</glyph>
<glyph name="squaredplus" format="2">
  <advance width="600"/>
  <unicode hex="229E"/>
  <outline>
    <contour>
      <point x="0" y="30" type="line"/>
      <point x="600" y="30" type="line"/>
      <point x="600" y="630" type="line"/>
      <point x="0" y="630" type="line"/>
    </contour>
    <contour>
      <point x="50" y="80" type="line"/>
      <point x="50" y="580" type="line"/>
      <point x="550" y="580" type="line"/>
      <point x="550" y="80" type="line"/>
    </contour>
    <contour>
      <point x="117" y="42" type="line"/>
      <point x="300" y="226" type="line"/>
      <point x="482" y="42" type="line"/>
      <point x="567" y="60" type="line"/>
      <point x="582" y="149" type="line"/>
      <point x="402" y="328" type="line"/>
      <point x="589" y="513" type="line"/>
      <point x="570" y="602" type="line"/>
      <point x="487" y="618" type="line"/>
      <point x="300" y="431" type="line"/>
      <point x="113" y="618" type="line"/>
      <point x="30" y="600" type="line"/>
      <point x="12" y="513" type="line"/>
      <point x="197" y="328" type="line"/>
      <point x="18" y="149" type="line"/>
      <point x="34" y="57" type="line"/>
    </contour>
  </outline>
</glyph>
<glyph name="squaredminus" format="2">
  <advance width="600"/>
  <unicode hex="229F"/>
  <outline>
    <contour>
      <point x="140" y="260" type="line"/>
      <point x="460" y="260" type="line"/>
      <point x="460" y="400" type="line"/>
      <point x="140" y="400" type="line"/>
    </contour>
    <component base="whiteSquare" yOffset="-30"/>
  </outline>
</glyph>
<glyph name="normalsubgroupoforequalto" format="2">
  <advance width="600"/>
  <unicode hex="22B4"/>
  <outline>
    <contour>
      <point x="530" y="174" type="line"/>
      <point x="530" y="734" type="line"/>
      <point x="70" y="525" type="line"/>
      <point x="70" y="382" type="line"/>
    </contour>
    <contour>
      <point x="70" y="0" type="line"/>
      <point x="530" y="0" type="line"/>
      <point x="530" y="130" type="line"/>
      <point x="70" y="130" type="line"/>
    </contour>
    <contour>
      <point x="420" y="359" type="line"/>
      <point x="254" y="432" type="line" smooth="yes"/>
      <point x="227" y="444"/>
      <point x="194" y="451"/>
      <point x="177" y="454" type="curve"/>
      <point x="194" y="457"/>
      <point x="227" y="465"/>
      <point x="254" y="477" type="curve" smooth="yes"/>
      <point x="420" y="550" type="line"/>
    </contour>
  </outline>
</glyph>
<glyph name="staroperator" format="2">
  <advance width="600"/>
  <unicode hex="22C6"/>
  <outline>
    <contour>
      <point x="227" y="218" type="line"/>
      <point x="300" y="285" type="line"/>
      <point x="373" y="218" type="line"/>
      <point x="343" y="317" type="line"/>
      <point x="420" y="371" type="line"/>
      <point x="329" y="371" type="line"/>
      <point x="300" y="464" type="line"/>
      <point x="271" y="371" type="line"/>
      <point x="180" y="371" type="line"/>
      <point x="257" y="317" type="line"/>
    </contour>
  </outline>
</glyph>
<glyph name="curlyor" format="2">
  <advance width="600"/>
  <unicode hex="22CE"/>
  <outline>
    <contour>
      <point x="572" y="425" type="curve"/>
      <point x="572" y="555" type="line"/>
      <point x="401" y="539"/>
      <point x="302" y="393"/>
      <point x="298" y="153" type="curve"/>
      <point x="300" y="153" type="line"/>
      <point x="298" y="392"/>
      <point x="198" y="538"/>
      <point x="27" y="555" type="curve"/>
      <point x="27" y="425" type="line"/>
      <point x="148" y="408"/>
      <point x="217" y="281"/>
      <point x="217" y="77" type="curve"/>
      <point x="217" y="0" type="line"/>
      <point x="377" y="0" type="line"/>
      <point x="377" y="77" type="line"/>
      <point x="377" y="284"/>
      <point x="448" y="410"/>
    </contour>
  </outline>
</glyph>
<glyph name="doublesubset" format="2">
  <advance width="600"/>
  <unicode hex="22D0"/>
  <outline>
    <contour>
      <point x="290" y="60" type="curve" smooth="yes"/>
      <point x="575" y="60" type="line"/>
      <point x="575" y="155" type="line"/>
      <point x="290" y="155" type="line" smooth="yes"/>
      <point x="193" y="155"/>
      <point x="130" y="217"/>
      <point x="130" y="314" type="curve" smooth="yes"/>
      <point x="130" y="406" type="line" smooth="yes"/>
      <point x="130" y="503"/>
      <point x="193" y="565"/>
      <point x="290" y="565" type="curve" smooth="yes"/>
      <point x="575" y="565" type="line"/>
      <point x="575" y="660" type="line"/>
      <point x="290" y="660" type="line" smooth="yes"/>
      <point x="129" y="660"/>
      <point x="25" y="560"/>
      <point x="25" y="406" type="curve" smooth="yes"/>
      <point x="25" y="314" type="line" smooth="yes"/>
      <point x="25" y="160"/>
      <point x="129" y="60"/>
    </contour>
    <contour>
      <point x="300" y="225" type="curve" smooth="yes"/>
      <point x="575" y="225" type="line"/>
      <point x="575" y="315" type="line"/>
      <point x="319" y="315" type="line" smooth="yes"/>
      <point x="304" y="315"/>
      <point x="294" y="325"/>
      <point x="294" y="340" type="curve" smooth="yes"/>
      <point x="294" y="380" type="line" smooth="yes"/>
      <point x="294" y="395"/>
      <point x="304" y="405"/>
      <point x="319" y="405" type="curve" smooth="yes"/>
      <point x="575" y="405" type="line"/>
      <point x="575" y="495" type="line"/>
      <point x="300" y="495" type="line" smooth="yes"/>
      <point x="236" y="495"/>
      <point x="195" y="456"/>
      <point x="195" y="395" type="curve" smooth="yes"/>
      <point x="195" y="325" type="line" smooth="yes"/>
      <point x="195" y="264"/>
      <point x="236" y="225"/>
    </contour>
  </outline>
</glyph>
<glyph name="ellipsisvertical" format="2">
  <advance width="600"/>
  <unicode hex="22EE"/>
  <outline>
    <contour>
      <point x="300" y="479" type="curve" smooth="yes"/>
      <point x="348" y="479"/>
      <point x="382" y="512"/>
      <point x="382" y="560" type="curve" smooth="yes"/>
      <point x="382" y="608"/>
      <point x="348" y="641"/>
      <point x="300" y="641" type="curve" smooth="yes"/>
      <point x="252" y="641"/>
      <point x="218" y="608"/>
      <point x="218" y="560" type="curve" smooth="yes"/>
      <point x="218" y="512"/>
      <point x="252" y="479"/>
    </contour>
    <contour>
      <point x="300" y="253" type="curve" smooth="yes"/>
      <point x="348" y="253"/>
      <point x="382" y="286"/>
      <point x="382" y="334" type="curve" smooth="yes"/>
      <point x="382" y="382"/>
      <point x="348" y="415"/>
      <point x="300" y="415" type="curve" smooth="yes"/>
      <point x="252" y="415"/>
      <point x="218" y="382"/>
      <point x="218" y="334" type="curve" smooth="yes"/>
      <point x="218" y="286"/>
      <point x="252" y="253"/>
    </contour>
    <contour>
      <point x="300" y="27" type="curve" smooth="yes"/>
      <point x="348" y="27"/>
      <point x="382" y="60"/>
      <point x="382" y="108" type="curve" smooth="yes"/>
      <point x="382" y="156"/>
      <point x="348" y="189"/>
      <point x="300" y="189" type="curve" smooth="yes"/>
      <point x="252" y="189"/>
      <point x="218" y="156"/>
      <point x="218" y="108" type="curve" smooth="yes"/>
      <point x="218" y="60"/>
      <point x="252" y="27"/>
    </contour>
  </outline>
</glyph>
<glyph name="midlinehorizontalellipsis" format="2">
  <advance width="600"/>
  <unicode hex="22EF"/>
  <outline>
    <contour>
      <point x="72" y="253" type="curve" smooth="yes"/>
      <point x="120" y="253"/>
      <point x="154" y="286"/>
      <point x="154" y="334" type="curve" smooth="yes"/>
      <point x="154" y="382"/>
      <point x="120" y="415"/>
      <point x="72" y="415" type="curve" smooth="yes"/>
      <point x="24" y="415"/>
      <point x="-10" y="382"/>
      <point x="-10" y="334" type="curve" smooth="yes"/>
      <point x="-10" y="286"/>
      <point x="24" y="253"/>
    </contour>
    <contour>
      <point x="300" y="253" type="curve" smooth="yes"/>
      <point x="348" y="253"/>
      <point x="382" y="286"/>
      <point x="382" y="334" type="curve" smooth="yes"/>
      <point x="382" y="382"/>
      <point x="348" y="415"/>
      <point x="300" y="415" type="curve" smooth="yes"/>
      <point x="252" y="415"/>
      <point x="218" y="382"/>
      <point x="218" y="334" type="curve" smooth="yes"/>
      <point x="218" y="286"/>
      <point x="252" y="253"/>
    </contour>
    <contour>
      <point x="528" y="253" type="curve" smooth="yes"/>
      <point x="576" y="253"/>
      <point x="610" y="286"/>
      <point x="610" y="334" type="curve" smooth="yes"/>
      <point x="610" y="382"/>
      <point x="576" y="415"/>
      <point x="528" y="415" type="curve" smooth="yes"/>
      <point x="480" y="415"/>
      <point x="446" y="382"/>
      <point x="446" y="334" type="curve" smooth="yes"/>
      <point x="446" y="286"/>
      <point x="480" y="253"/>
    </contour>
  </outline>
</glyph>
<glyph name="control" format="2">
  <advance width="600"/>
  <unicode hex="2303"/>
  <outline>
    <contour>
      <point x="20" y="370" type="line"/>
      <point x="211" y="370" type="line"/>
      <point x="298" y="450" type="line"/>
      <point x="389" y="370" type="line"/>
      <point x="580" y="370" type="line"/>
      <point x="391" y="550" type="line"/>
      <point x="209" y="550" type="line"/>
    </contour>
  </outline>
</glyph>
<glyph name="leftCeiling" format="2">
  <advance width="600"/>
  <unicode hex="2308"/>
  <outline>
    <contour>
      <point x="170" y="-110" type="line"/>
      <point x="320" y="-110" type="line"/>
      <point x="320" y="690" type="line"/>
      <point x="475" y="690" type="line"/>
      <point x="475" y="830" type="line"/>
      <point x="170" y="830" type="line"/>
    </contour>
  </outline>
</glyph>
<glyph name="rightCeiling" format="2">
  <advance width="600"/>
  <unicode hex="2309"/>
  <outline>
    <contour>
      <point x="280" y="-110" type="line"/>
      <point x="430" y="-110" type="line"/>
      <point x="430" y="830" type="line"/>
      <point x="125" y="830" type="line"/>
      <point x="125" y="690" type="line"/>
      <point x="280" y="690" type="line"/>
    </contour>
  </outline>
</glyph>
<glyph name="propellor" format="2">
  <advance width="600"/>
  <unicode hex="2318"/>
  <outline>
    <contour>
      <point x="459" y="308" type="line"/>
      <point x="535" y="308"/>
      <point x="585" y="358"/>
      <point x="585" y="434" type="curve" smooth="yes"/>
      <point x="585" y="510"/>
      <point x="535" y="560"/>
      <point x="459" y="560" type="curve" smooth="yes"/>
      <point x="383" y="560"/>
      <point x="333" y="510"/>
      <point x="333" y="434" type="curve"/>
      <point x="410" y="434" type="line"/>
      <point x="410" y="464"/>
      <point x="429" y="483"/>
      <point x="459" y="483" type="curve" smooth="yes"/>
      <point x="489" y="483"/>
      <point x="508" y="464"/>
      <point x="508" y="434" type="curve" smooth="yes"/>
      <point x="508" y="404"/>
      <point x="489" y="385"/>
      <point x="459" y="385" type="curve"/>
    </contour>
    <contour>
      <point x="141" y="-10" type="curve" smooth="yes"/>
      <point x="217" y="-10"/>
      <point x="267" y="40"/>
      <point x="267" y="116" type="curve"/>
      <point x="190" y="116" type="line"/>
      <point x="190" y="86"/>
      <point x="171" y="67"/>
      <point x="141" y="67" type="curve" smooth="yes"/>
      <point x="111" y="67"/>
      <point x="92" y="86"/>
      <point x="92" y="116" type="curve" smooth="yes"/>
      <point x="92" y="146"/>
      <point x="111" y="165"/>
      <point x="141" y="165" type="curve"/>
      <point x="141" y="242" type="line"/>
      <point x="65" y="242"/>
      <point x="15" y="192"/>
      <point x="15" y="116" type="curve" smooth="yes"/>
      <point x="15" y="40"/>
      <point x="65" y="-10"/>
    </contour>
    <contour>
      <point x="190" y="116" type="line"/>
      <point x="267" y="116" type="line"/>
      <point x="267" y="434" type="line"/>
      <point x="190" y="434" type="line"/>
    </contour>
    <contour>
      <point x="141" y="165" type="line"/>
      <point x="459" y="165" type="line"/>
      <point x="459" y="242" type="line"/>
      <point x="141" y="242" type="line"/>
    </contour>
    <contour>
      <point x="459" y="-10" type="curve" smooth="yes"/>
      <point x="535" y="-10"/>
      <point x="585" y="40"/>
      <point x="585" y="116" type="curve" smooth="yes"/>
      <point x="585" y="192"/>
      <point x="535" y="242"/>
      <point x="459" y="242" type="curve"/>
      <point x="459" y="165" type="line"/>
      <point x="489" y="165"/>
      <point x="508" y="146"/>
      <point x="508" y="116" type="curve" smooth="yes"/>
      <point x="508" y="86"/>
      <point x="489" y="67"/>
      <point x="459" y="67" type="curve" smooth="yes"/>
      <point x="429" y="67"/>
      <point x="410" y="86"/>
      <point x="410" y="116" type="curve"/>
      <point x="333" y="116" type="line"/>
      <point x="333" y="40"/>
      <point x="383" y="-10"/>
    </contour>
    <contour>
      <point x="141" y="308" type="curve"/>
      <point x="141" y="385" type="line"/>
      <point x="111" y="385"/>
      <point x="92" y="404"/>
      <point x="92" y="434" type="curve" smooth="yes"/>
      <point x="92" y="464"/>
      <point x="111" y="483"/>
      <point x="141" y="483" type="curve" smooth="yes"/>
      <point x="171" y="483"/>
      <point x="190" y="464"/>
      <point x="190" y="434" type="curve"/>
      <point x="267" y="434" type="line"/>
      <point x="267" y="510"/>
      <point x="217" y="560"/>
      <point x="141" y="560" type="curve" smooth="yes"/>
      <point x="65" y="560"/>
      <point x="15" y="510"/>
      <point x="15" y="434" type="curve" smooth="yes"/>
      <point x="15" y="358"/>
      <point x="65" y="308"/>
    </contour>
    <contour>
      <point x="141" y="308" type="line"/>
      <point x="459" y="308" type="line"/>
      <point x="459" y="385" type="line"/>
      <point x="141" y="385" type="line"/>
    </contour>
    <contour>
      <point x="333" y="116" type="line"/>
      <point x="410" y="116" type="line"/>
      <point x="410" y="434" type="line"/>
      <point x="333" y="434" type="line"/>
    </contour>
  </outline>
</glyph>
<glyph name="optionKey" format="2">
  <advance width="600"/>
  <unicode hex="2325"/>
  <outline>
    <contour>
      <point x="336" y="0" type="line"/>
      <point x="590" y="0" type="line"/>
      <point x="590" y="140" type="line"/>
      <point x="440" y="140" type="line"/>
      <point x="265" y="550" type="line"/>
      <point x="10" y="550" type="line"/>
      <point x="10" y="410" type="line"/>
      <point x="161" y="410" type="line"/>
    </contour>
    <contour>
      <point x="386" y="410" type="line"/>
      <point x="590" y="410" type="line"/>
      <point x="590" y="550" type="line"/>
      <point x="386" y="550" type="line"/>
    </contour>
  </outline>
</glyph>
<glyph name="parenleftupperhook" format="2">
  <advance width="600"/>
  <unicode hex="239B"/>
  <outline>
    <contour>
      <point x="225" y="-300" type="line"/>
      <point x="375" y="-300" type="line"/>
      <point x="375" y="380" type="line" smooth="yes"/>
      <point x="375" y="537"/>
      <point x="447" y="659"/>
      <point x="555" y="686" type="curve"/>
      <point x="555" y="840" type="line"/>
      <point x="357" y="786"/>
      <point x="225" y="603"/>
      <point x="225" y="380" type="curve" smooth="yes"/>
    </contour>
  </outline>
</glyph>
<glyph name="parenleftlowerhook" format="2">
  <advance width="600"/>
  <unicode hex="239D"/>
  <outline>
    <contour>
      <point x="555" y="-120" type="curve"/>
      <point x="555" y="34" type="line"/>
      <point x="447" y="61"/>
      <point x="375" y="183"/>
      <point x="375" y="340" type="curve" smooth="yes"/>
      <point x="375" y="1020" type="line"/>
      <point x="225" y="1020" type="line"/>
      <point x="225" y="340" type="line" smooth="yes"/>
      <point x="225" y="117"/>
      <point x="357" y="-66"/>
    </contour>
  </outline>
</glyph>
<glyph name="leftsquarebracketuppercorner" format="2">
  <advance width="600"/>
  <unicode hex="23A1"/>
  <outline>
    <contour>
      <point x="225" y="-300" type="line"/>
      <point x="375" y="-300" type="line"/>
      <point x="375" y="690" type="line"/>
      <point x="530" y="690" type="line"/>
      <point x="530" y="830" type="line"/>
      <point x="225" y="830" type="line"/>
    </contour>
  </outline>
</glyph>
<glyph name="leftsquarebracketlowercorner" format="2">
  <advance width="600"/>
  <unicode hex="23A3"/>
  <outline>
    <contour>
      <point x="225" y="-110" type="line"/>
      <point x="530" y="-110" type="line"/>
      <point x="530" y="30" type="line"/>
      <point x="375" y="30" type="line"/>
      <point x="375" y="1020" type="line"/>
      <point x="225" y="1020" type="line"/>
    </contour>
  </outline>
</glyph>
<glyph name="leftcurlybracketupperhook" format="2">
  <advance width="600"/>
  <unicode hex="23A7"/>
  <outline>
    <contour>
      <point x="225" y="-300" type="line"/>
      <point x="375" y="-300" type="line"/>
      <point x="375" y="630" type="line" smooth="yes"/>
      <point x="375" y="673"/>
      <point x="397" y="690"/>
      <point x="435" y="690" type="curve" smooth="yes"/>
      <point x="490" y="690" type="line"/>
      <point x="490" y="830" type="line"/>
      <point x="405" y="830" type="line" smooth="yes"/>
      <point x="295" y="830"/>
      <point x="225" y="760"/>
      <point x="225" y="650" type="curve" smooth="yes"/>
    </contour>
  </outline>
</glyph>
<glyph name="leftcurlybracketmiddlepiece" format="2">
  <advance width="600"/>
  <unicode hex="23A8"/>
  <outline>
    <contour>
      <point x="225" y="-300" type="line"/>
      <point x="375" y="-300" type="line"/>
      <point x="375" y="239" type="line" smooth="yes"/>
      <point x="375" y="314"/>
      <point x="318" y="364"/>
      <point x="220" y="364" type="curve"/>
      <point x="220" y="357" type="line"/>
      <point x="318" y="357"/>
      <point x="375" y="406"/>
      <point x="375" y="479" type="curve" smooth="yes"/>
      <point x="375" y="1020" type="line"/>
      <point x="225" y="1020" type="line"/>
      <point x="225" y="499" type="line" smooth="yes"/>
      <point x="225" y="457"/>
      <point x="197" y="429"/>
      <point x="155" y="429" type="curve" smooth="yes"/>
      <point x="30" y="429" type="line"/>
      <point x="30" y="289" type="line"/>
      <point x="155" y="289" type="line" smooth="yes"/>
      <point x="197" y="289"/>
      <point x="225" y="261"/>
      <point x="225" y="219" type="curve" smooth="yes"/>
    </contour>
  </outline>
</glyph>
<glyph name="boxHeavyHorizontal" format="2">
  <advance width="600"/>
  <unicode hex="2501"/>
  <outline>
    <contour>
      <point x="-20" y="270" type="line"/>
      <point x="620" y="270" type="line"/>
      <point x="620" y="470" type="line"/>
      <point x="-20" y="470" type="line"/>
    </contour>
  </outline>
</glyph>
<glyph name="boxLightTripleDashHorizontal" format="2">
  <advance width="600"/>
  <unicode hex="2504"/>
  <outline>
    <contour>
      <point x="437" y="320" type="line"/>
      <point x="563" y="320" type="line"/>
      <point x="563" y="420" type="line"/>
      <point x="437" y="420" type="line"/>
    </contour>
    <contour>
      <point x="37" y="320" type="line"/>
      <point x="163" y="320" type="line"/>
      <point x="163" y="420" type="line"/>
      <point x="37" y="420" type="line"/>
    </contour>
    <contour>
      <point x="237" y="320" type="line"/>
      <point x="363" y="320" type="line"/>
      <point x="363" y="420" type="line"/>
      <point x="237" y="420" type="line"/>
    </contour>
  </outline>
</glyph>
<glyph name="boxLightDownAndLeft" format="2">
  <advance width="600"/>
  <unicode hex="2510"/>
  <outline>
    <contour>
      <point x="250" y="-400" type="line"/>
      <point x="350" y="-400" type="line"/>
      <point x="350" y="420" type="line"/>
      <point x="-20" y="420" type="line"/>
      <point x="-20" y="320" type="line"/>
      <point x="250" y="320" type="line"/>
    </contour>
  </outline>
</glyph>
<glyph name="boxDownHeavyAndLeftLight" format="2">
  <advance width="600"/>
  <unicode hex="2512"/>
  <outline>
    <contour>
      <point x="200" y="-400" type="line"/>
      <point x="400" y="-400" type="line"/>
      <point x="400" y="420" type="line"/>
      <point x="-20" y="420" type="line"/>
      <point x="-20" y="320" type="line"/>
      <point x="200" y="320" type="line"/>
    </contour>
  </outline>
</glyph>
<glyph name="boxLightVerticalAndLeft" format="2">
  <advance width="600"/>
  <unicode hex="2524"/>
  <outline>
    <contour>
      <point x="250" y="-400" type="line"/>
      <point x="350" y="-400" type="line"/>
      <point x="350" y="1120" type="line"/>
      <point x="250" y="1120" type="line"/>
      <point x="250" y="420" type="line"/>
      <point x="-20" y="420" type="line"/>
      <point x="-20" y="320" type="line"/>
      <point x="250" y="320" type="line"/>
    </contour>
  </outline>
</glyph>
<glyph name="boxUpLightAndLeftDownHeavy" format="2">
  <advance width="600"/>
  <unicode hex="252A"/>
  <outline>
    <contour>
      <point x="200" y="-400" type="line"/>
      <point x="400" y="-400" type="line"/>
      <point x="400" y="470" type="line"/>
      <point x="350" y="470" type="line"/>
      <point x="350" y="1120" type="line"/>
      <point x="250" y="1120" type="line"/>
      <point x="250" y="470" type="line"/>
      <point x="-20" y="470" type="line"/>
      <point x="-20" y="270" type="line"/>
      <point x="200" y="270" type="line"/>
    </contour>
  </outline>
</glyph>
<glyph name="boxUpHeavyAndDownHorizontalLight" format="2">
  <advance width="600"/>
  <unicode hex="2540"/>
  <outline>
    <contour>
      <point x="250" y="-400" type="line"/>
      <point x="350" y="-400" type="line"/>
      <point x="350" y="320" type="line"/>
      <point x="620" y="320" type="line"/>
      <point x="620" y="420" type="line"/>
      <point x="400" y="420" type="line"/>
      <point x="400" y="1120" type="line"/>
      <point x="200" y="1120" type="line"/>
      <point x="200" y="420" type="line"/>
      <point x="-20" y="420" type="line"/>
      <point x="-20" y="320" type="line"/>
      <point x="250" y="320" type="line"/>
    </contour>
  </outline>
</glyph>
<glyph name="boxLightArcDownAndRight" format="2">
  <advance width="600"/>
  <unicode hex="256D"/>
  <outline>
    <contour>
      <point x="250" y="-400" type="line"/>
      <point x="350" y="-400" type="line"/>
      <point x="350" y="80" type="line" smooth="yes"/>
      <point x="350" y="226"/>
      <point x="443" y="320"/>
      <point x="585" y="320" type="curve" smooth="yes"/>
      <point x="620" y="320" type="line"/>
      <point x="620" y="420" type="line"/>
      <point x="585" y="420" type="line" smooth="yes"/>
      <point x="383" y="420"/>
      <point x="250" y="286"/>
      <point x="250" y="80" type="curve" smooth="yes"/>
    </contour>
  </outline>
</glyph>
<glyph name="boxLightRight" format="2">
  <advance width="600"/>
  <unicode hex="2576"/>
  <outline>
    <contour>
      <point x="250" y="320" type="line"/>
      <point x="620" y="320" type="line"/>
      <point x="620" y="420" type="line"/>
      <point x="250" y="420" type="line"/>
    </contour>
  </outline>
</glyph>
<glyph name="boxLightDown" format="2">
  <advance width="600"/>
  <unicode hex="2577"/>
  <outline>
    <contour>
      <point x="250" y="-400" type="line"/>
      <point x="350" y="-400" type="line"/>
      <point x="350" y="420" type="line"/>
      <point x="250" y="420" type="line"/>
    </contour>
  </outline>
</glyph>
<glyph name="boxHeavyLeft" format="2">
  <advance width="600"/>
  <unicode hex="2578"/>
  <outline>
    <contour>
      <point x="-20" y="270" type="line"/>
      <point x="350" y="270" type="line"/>
      <point x="350" y="470" type="line"/>
      <point x="-20" y="470" type="line"/>
    </contour>
  </outline>
</glyph>
<glyph name="lowerOneQuarterBlock" format="2">
  <advance width="600"/>
  <unicode hex="2582"/>
  <outline>
    <contour>
      <point x="0" y="-300" type="line"/>
      <point x="600" y="-300" type="line"/>
      <point x="600" y="30" type="line"/>
      <point x="0" y="30" type="line"/>
    </contour>
  </outline>
</glyph>
<glyph name="lowerThreeEighthsBlock" format="2">
  <advance width="600"/>
  <unicode hex="2583"/>
  <outline>
    <contour>
      <point x="0" y="-300" type="line"/>
      <point x="600" y="-300" type="line"/>
      <point x="600" y="195" type="line"/>
      <point x="0" y="195" type="line"/>
    </contour>
  </outline>
</glyph>
<glyph name="rightWhiteTriangle" format="2">
  <advance width="600"/>
  <unicode hex="25B7"/>
  <outline>
    <contour>
      <point x="0" y="50" type="line"/>
      <point x="610" y="360" type="line"/>
      <point x="0" y="670" type="line"/>
    </contour>
    <contour>
      <point x="50" y="133" type="line"/>
      <point x="50" y="587" type="line"/>
      <point x="498" y="360" type="line"/>
    </contour>
  </outline>
</glyph>
<glyph name="leftWhiteTriangle" format="2">
  <advance width="600"/>
  <unicode hex="25C1"/>
  <outline>
    <contour>
      <point x="600" y="50" type="line"/>
      <point x="600" y="670" type="line"/>
      <point x="-10" y="360" type="line"/>
    </contour>
    <contour>
      <point x="550" y="133" type="line"/>
      <point x="102" y="360" type="line"/>
      <point x="550" y="587" type="line"/>
    </contour>
  </outline>
</glyph>
<glyph name="upperLeftWhiteCircle" format="2">
  <advance width="600"/>
  <unicode hex="25D5"/>
  <outline>
    <contour>
      <point x="300" y="50" type="curve" smooth="yes"/>
      <point x="477" y="50"/>
      <point x="610" y="183"/>
      <point x="610" y="360" type="curve" smooth="yes"/>
      <point x="610" y="537"/>
      <point x="477" y="670"/>
      <point x="300" y="670" type="curve" smooth="yes"/>
      <point x="123" y="670"/>
      <point x="-10" y="537"/>
      <point x="-10" y="360" type="curve" smooth="yes"/>
      <point x="-10" y="183"/>
      <point x="123" y="50"/>
    </contour>
    <contour>
      <point x="40" y="360" type="curve"/>
      <point x="40" y="508"/>
      <point x="152" y="620"/>
      <point x="300" y="620" type="curve"/>
      <point x="300" y="513"/>
      <point x="300" y="410"/>
      <point x="300" y="360" type="curve"/>
      <point x="232" y="360"/>
      <point x="181" y="360"/>
    </contour>
  </outline>
</glyph>
<glyph name="upperLeftDiagonalHalfBlackSquare" format="2">
  <advance width="600"/>
  <unicode hex="25E9"/>
  <outline>
    <contour>
      <point x="0" y="60" type="line"/>
      <point x="600" y="60" type="line"/>
      <point x="600" y="660" type="line"/>
      <point x="0" y="660" type="line"/>
    </contour>
    <contour>
      <point x="50" y="110" type="line"/>
      <point x="550" y="610" type="line"/>
      <point x="550" y="110" type="line"/>
    </contour>
  </outline>
</glyph>
<glyph name="highVoltageSign" format="2">
  <advance width="600"/>
  <unicode hex="26A1"/>
  <outline>
    <contour>
      <point x="469" y="840" type="line"/>
      <point x="19" y="310" type="line"/>
      <point x="294" y="310" type="line"/>
      <point x="49" y="-110" type="line"/>
      <point x="579" y="440" type="line"/>
      <point x="289" y="440" type="line"/>
    </contour>
  </outline>
</glyph>
<glyph name="ballotX" format="2">
  <advance width="600"/>
  <unicode hex="2717"/>
  <outline>
    <contour>
      <point x="113" y="72" type="line"/>
      <point x="299" y="258" type="line"/>
      <point x="486" y="71" type="line"/>
      <point x="588" y="173" type="line"/>
      <point x="401" y="360" type="line"/>
      <point x="587" y="546" type="line"/>
      <point x="487" y="646" type="line"/>
      <point x="301" y="460" type="line"/>
      <point x="114" y="647" type="line"/>
      <point x="12" y="545" type="line"/>
      <point x="199" y="358" type="line"/>
      <point x="13" y="172" type="line"/>
    </contour>
  </outline>
</glyph>
<glyph name="heavyleftpointinganglequotationmarkornament" format="2">
  <advance width="600"/>
  <unicode hex="276E"/>
  <outline>
    <contour>
      <point x="285" y="0" type="line"/>
      <point x="453" y="0" type="line"/>
      <point x="318" y="365" type="line"/>
      <point x="453" y="730" type="line"/>
      <point x="285" y="730" type="line"/>
      <point x="150" y="363" type="line"/>
    </contour>
  </outline>
</glyph>
<glyph name="heavyleftpointinganglebracketornament" format="2">
  <advance width="600"/>
  <unicode hex="2770"/>
  <outline>
    <contour>
      <point x="243" y="0" type="line"/>
      <point x="495" y="0" type="line"/>
      <point x="362" y="365" type="line"/>
      <point x="495" y="730" type="line"/>
      <point x="243" y="730" type="line"/>
      <point x="110" y="363" type="line"/>
    </contour>
  </outline>
</glyph>
<glyph name="znotationleftimagebracket" format="2">
  <advance width="600"/>
  <unicode hex="2987"/>
  <outline>
    <contour>
      <point x="495" y="-120" type="curve"/>
      <point x="495" y="840" type="line"/>
      <point x="260" y="788"/>
      <point x="125" y="646"/>
      <point x="125" y="450" type="curve" smooth="yes"/>
      <point x="125" y="269" type="line" smooth="yes"/>
      <point x="125" y="73"/>
      <point x="260" y="-69"/>
    </contour>
    <contour>
      <point x="385" y="59" type="line"/>
      <point x="308" y="103"/>
      <point x="265" y="176"/>
      <point x="265" y="269" type="curve" smooth="yes"/>
      <point x="265" y="450" type="line" smooth="yes"/>
      <point x="265" y="543"/>
      <point x="308" y="615"/>
      <point x="385" y="660" type="curve"/>
    </contour>
  </outline>
</glyph>
<glyph name="nArySquareUnionOperator" format="2">
  <advance width="600"/>
  <unicode hex="2A06"/>
  <outline>
    <contour>
      <point x="0" y="0" type="line"/>
      <point x="600" y="0" type="line"/>
      <point x="600" y="730" type="line"/>
      <point x="450" y="730" type="line"/>
      <point x="450" y="140" type="line"/>
      <point x="150" y="140" type="line"/>
      <point x="150" y="730" type="line"/>
      <point x="0" y="730" type="line"/>
    </contour>
  </outline>
</glyph>
<glyph name="FdoubleStruck" format="2">
  <advance width="600"/>
  <unicode hex="1D53D"/>
  <outline>
    <contour>
      <point x="90" y="0" type="line"/>
      <point x="236" y="0" type="line"/>
      <point x="237" y="361" type="line"/>
      <point x="500" y="361" type="line"/>
      <point x="500" y="407" type="line"/>
      <point x="237" y="407" type="line"/>
      <point x="238" y="684" type="line"/>
      <point x="525" y="684" type="line"/>
      <point x="525" y="730" type="line"/>
      <point x="90" y="730" type="line"/>
    </contour>
    <contour>
      <point x="133" y="46" type="line"/>
      <point x="133" y="684" type="line"/>
      <point x="193" y="684" type="line"/>
      <point x="193" y="46" type="line"/>
    </contour>
  </outline>
</glyph>
<glyph name="B.half" format="2">
  <advance width="400"/>
  <outline>
    <contour>
      <point x="35" y="0" type="line"/>
      <point x="254" y="0" type="line" smooth="yes"/>
      <point x="323" y="0"/>
      <point x="380" y="38"/>
      <point x="380" y="93" type="curve" smooth="yes"/>
      <point x="380" y="146"/>
      <point x="333" y="181"/>
      <point x="261" y="179" type="curve"/>
      <point x="261" y="168" type="line"/>
      <point x="323" y="166"/>
      <point x="363" y="200"/>
      <point x="363" y="251" type="curve" smooth="yes"/>
      <point x="363" y="301"/>
      <point x="307" y="335"/>
      <point x="239" y="335" type="curve" smooth="yes"/>
      <point x="35" y="335" type="line"/>
    </contour>
    <contour>
      <point x="121" y="66" type="line"/>
      <point x="121" y="137" type="line"/>
      <point x="241" y="137" type="line" smooth="yes"/>
      <point x="272" y="137"/>
      <point x="293" y="125"/>
      <point x="293" y="100" type="curve" smooth="yes"/>
      <point x="293" y="75"/>
      <point x="272" y="66"/>
      <point x="241" y="66" type="curve" smooth="yes"/>
    </contour>
    <contour>
      <point x="121" y="199" type="line"/>
      <point x="121" y="269" type="line"/>
      <point x="231" y="269" type="line" smooth="yes"/>
      <point x="258" y="269"/>
      <point x="276" y="260"/>
      <point x="276" y="235" type="curve" smooth="yes"/>
      <point x="276" y="210"/>
      <point x="257" y="199"/>
      <point x="230" y="199" type="curve" smooth="yes"/>
    </contour>
  </outline>
</glyph>
<glyph name="D.half" format="2">
  <advance width="400"/>
  <outline>
    <contour>
      <point x="35" y="0" type="line"/>
      <point x="195" y="0" type="line" smooth="yes"/>
      <point x="305" y="0"/>
      <point x="380" y="68"/>
      <point x="380" y="167" type="curve" smooth="yes"/>
      <point x="380" y="267"/>
      <point x="305" y="335"/>
      <point x="195" y="335" type="curve" smooth="yes"/>
      <point x="35" y="335" type="line"/>
    </contour>
    <contour>
      <point x="121" y="77" type="line"/>
      <point x="121" y="257" type="line"/>
      <point x="195" y="257" type="line" smooth="yes"/>
      <point x="253" y="257"/>
      <point x="292" y="220"/>
      <point x="292" y="167" type="curve" smooth="yes"/>
      <point x="292" y="114"/>
      <point x="253" y="77"/>
      <point x="195" y="77" type="curve" smooth="yes"/>
    </contour>
  </outline>
</glyph>
<glyph name="E.half" format="2">
  <advance width="400"/>
  <outline>
    <contour>
      <point x="356" y="70" type="line"/>
      <point x="134" y="70" type="line"/>
      <point x="134" y="138" type="line"/>
      <point x="326" y="138" type="line"/>
      <point x="326" y="197" type="line"/>
      <point x="134" y="197" type="line"/>
      <point x="134" y="265" type="line"/>
      <point x="356" y="265" type="line"/>
      <point x="356" y="335" type="line"/>
      <point x="48" y="335" type="line"/>
      <point x="48" y="0" type="line"/>
      <point x="356" y="0" type="line"/>
    </contour>
  </outline>
</glyph>
<glyph name="H.half" format="2">
  <advance width="400"/>
  <outline>
    <contour>
      <point x="35" y="0" type="line"/>
      <point x="121" y="0" type="line"/>
      <point x="121" y="133" type="line"/>
      <point x="279" y="133" type="line"/>
      <point x="279" y="0" type="line"/>
      <point x="365" y="0" type="line"/>
      <point x="365" y="335" type="line"/>
      <point x="279" y="335" type="line"/>
      <point x="279" y="213" type="line"/>
      <point x="121" y="213" type="line"/>
      <point x="121" y="335" type="line"/>
      <point x="35" y="335" type="line"/>
    </contour>
  </outline>
</glyph>
<glyph name="I.half" format="2">
  <advance width="400"/>
  <outline>
    <contour>
      <point x="42" y="0" type="line"/>
      <point x="358" y="0" type="line"/>
      <point x="358" y="78" type="line"/>
      <point x="243" y="78" type="line"/>
      <point x="243" y="257" type="line"/>
      <point x="358" y="257" type="line"/>
      <point x="358" y="335" type="line"/>
      <point x="42" y="335" type="line"/>
      <point x="42" y="257" type="line"/>
      <point x="157" y="257" type="line"/>
      <point x="157" y="78" type="line"/>
      <point x="42" y="78" type="line"/>
    </contour>
  </outline>
</glyph>
<glyph name="K.half" format="2">
  <advance width="400"/>
  <outline>
    <contour>
      <point x="35" y="0" type="line"/>
      <point x="121" y="0" type="line"/>
      <point x="121" y="133" type="line"/>
      <point x="185" y="133" type="line"/>
      <point x="282" y="0" type="line"/>
      <point x="380" y="0" type="line"/>
      <point x="254" y="176" type="line"/>
      <point x="370" y="335" type="line"/>
      <point x="276" y="335" type="line"/>
      <point x="185" y="211" type="line"/>
      <point x="121" y="211" type="line"/>
      <point x="121" y="335" type="line"/>
      <point x="35" y="335" type="line"/>
    </contour>
  </outline>
</glyph>
<glyph name="L.half" format="2">
  <advance width="400"/>
  <anchor x="580" y="730" name="topright"/>
  <outline>
    <contour>
      <point x="72" y="0" type="line"/>
      <point x="370" y="0" type="line"/>
      <point x="370" y="80" type="line"/>
      <point x="158" y="80" type="line"/>
      <point x="158" y="335" type="line"/>
      <point x="72" y="335" type="line"/>
    </contour>
  </outline>
</glyph>
<glyph name="N.half" format="2">
  <advance width="400"/>
  <outline>
    <contour>
      <point x="35" y="0" type="line"/>
      <point x="120" y="0" type="line"/>
      <point x="120" y="115" type="line" smooth="yes"/>
      <point x="120" y="188"/>
      <point x="115" y="204"/>
      <point x="105" y="255" type="curve"/>
      <point x="255" y="0" type="line"/>
      <point x="365" y="0" type="line"/>
      <point x="365" y="335" type="line"/>
      <point x="280" y="335" type="line"/>
      <point x="280" y="230" type="line" smooth="yes"/>
      <point x="280" y="157"/>
      <point x="285" y="130"/>
      <point x="295" y="80" type="curve"/>
      <point x="146" y="335" type="line"/>
      <point x="35" y="335" type="line"/>
    </contour>
  </outline>
</glyph>
<glyph name="O.half" format="2">
  <advance width="400"/>
  <outline>
    <contour>
      <point x="200" y="-5" type="curve" smooth="yes"/>
      <point x="305" y="-5"/>
      <point x="383" y="69"/>
      <point x="383" y="167" type="curve" smooth="yes"/>
      <point x="383" y="266"/>
      <point x="305" y="340"/>
      <point x="200" y="340" type="curve" smooth="yes"/>
      <point x="95" y="340"/>
      <point x="16" y="266"/>
      <point x="16" y="167" type="curve" smooth="yes"/>
      <point x="16" y="69"/>
      <point x="95" y="-5"/>
    </contour>
    <contour>
      <point x="200" y="73" type="curve" smooth="yes"/>
      <point x="145" y="73"/>
      <point x="104" y="113"/>
      <point x="104" y="167" type="curve" smooth="yes"/>
      <point x="104" y="221"/>
      <point x="145" y="262"/>
      <point x="200" y="262" type="curve" smooth="yes"/>
      <point x="254" y="262"/>
      <point x="295" y="221"/>
      <point x="295" y="167" type="curve" smooth="yes"/>
      <point x="295" y="113"/>
      <point x="254" y="73"/>
    </contour>
  </outline>
</glyph>
<glyph name="Q.half" format="2">
  <advance width="400"/>
  <outline>
    <contour>
      <point x="200" y="-5" type="curve" smooth="yes"/>
      <point x="229" y="-5"/>
      <point x="267" y="5"/>
      <point x="290" y="18" type="curve"/>
      <point x="256" y="89" type="line"/>
      <point x="241" y="80"/>
      <point x="217" y="73"/>
      <point x="200" y="73" type="curve" smooth="yes"/>
      <point x="145" y="73"/>
      <point x="104" y="113"/>
      <point x="104" y="167" type="curve" smooth="yes"/>
      <point x="104" y="221"/>
      <point x="145" y="261"/>
      <point x="200" y="261" type="curve" smooth="yes"/>
      <point x="255" y="261"/>
      <point x="296" y="221"/>
      <point x="296" y="167" type="curve" smooth="yes"/>
      <point x="296" y="156"/>
      <point x="293" y="143"/>
      <point x="289" y="134" type="curve"/>
      <point x="348" y="63" type="line"/>
      <point x="369" y="91"/>
      <point x="384" y="136"/>
      <point x="384" y="167" type="curve" smooth="yes"/>
      <point x="384" y="266"/>
      <point x="305" y="340"/>
      <point x="200" y="340" type="curve" smooth="yes"/>
      <point x="95" y="340"/>
      <point x="16" y="266"/>
      <point x="16" y="167" type="curve" smooth="yes"/>
      <point x="16" y="69"/>
      <point x="95" y="-5"/>
    </contour>
    <contour>
      <point x="297" y="-58" type="line"/>
      <point x="392" y="-58" type="line"/>
      <point x="250" y="125" type="line"/>
      <point x="155" y="125" type="line"/>
    </contour>
  </outline>
</glyph>
<glyph name="S.half" format="2">
  <advance width="400"/>
  <outline>
    <contour>
      <point x="166" y="-3" type="curve" smooth="yes"/>
      <point x="234" y="-3" type="line" smooth="yes"/>
      <point x="317" y="-3"/>
      <point x="369" y="37"/>
      <point x="369" y="102" type="curve" smooth="yes"/>
      <point x="369" y="159"/>
      <point x="323" y="200"/>
      <point x="249" y="208" type="curve" smooth="yes"/>
      <point x="158" y="218" type="line" smooth="yes"/>
      <point x="136" y="220"/>
      <point x="122" y="229"/>
      <point x="122" y="241" type="curve" smooth="yes"/>
      <point x="122" y="256"/>
      <point x="137" y="268"/>
      <point x="160" y="268" type="curve" smooth="yes"/>
      <point x="230" y="268" type="line" smooth="yes"/>
      <point x="257" y="268"/>
      <point x="276" y="257"/>
      <point x="278" y="244" type="curve"/>
      <point x="364" y="244" type="line"/>
      <point x="355" y="302"/>
      <point x="303" y="338"/>
      <point x="230" y="338" type="curve" smooth="yes"/>
      <point x="160" y="338" type="line" smooth="yes"/>
      <point x="84" y="338"/>
      <point x="36" y="301"/>
      <point x="36" y="241" type="curve" smooth="yes"/>
      <point x="36" y="187"/>
      <point x="81" y="147"/>
      <point x="152" y="139" type="curve" smooth="yes"/>
      <point x="240" y="129" type="line" smooth="yes"/>
      <point x="266" y="126"/>
      <point x="283" y="114"/>
      <point x="283" y="98" type="curve" smooth="yes"/>
      <point x="283" y="81"/>
      <point x="264" y="67"/>
      <point x="234" y="67" type="curve" smooth="yes"/>
      <point x="166" y="67" type="line" smooth="yes"/>
      <point x="135" y="67"/>
      <point x="115" y="83"/>
      <point x="113" y="103" type="curve"/>
      <point x="27" y="103" type="line"/>
      <point x="34" y="37"/>
      <point x="88" y="-3"/>
    </contour>
  </outline>
</glyph>
<glyph name="acutecomb.case" format="2">
  <anchor x="-310" y="730" name="_top"/>
  <anchor x="-265" y="950" name="top"/>
  <outline>
    <contour>
      <point x="-398" y="810" type="line"/>
      <point x="-249" y="810" type="line"/>
      <point x="-132" y="950" type="line"/>
      <point x="-293" y="950" type="line"/>
    </contour>
  </outline>
</glyph>
<glyph name="ampersand_ampersand_ampersand.liga" format="2">
  <advance width="600"/>
  <outline>
    <contour>
      <point x="175" y="-10" type="curve" smooth="yes"/>
      <point x="241" y="-10"/>
      <point x="297" y="11"/>
      <point x="341" y="51" type="curve"/>
      <point x="377" y="0" type="line"/>
      <point x="520" y="0" type="line"/>
      <point x="412" y="155" type="line"/>
      <point x="514" y="360" type="line"/>
      <point x="374" y="360" type="line"/>
      <point x="331" y="271" type="line"/>
      <point x="216" y="436" type="line" smooth="yes"/>
      <point x="185" y="480"/>
      <point x="165" y="518"/>
      <point x="165" y="550" type="curve" smooth="yes"/>
      <point x="165" y="592"/>
      <point x="193" y="620"/>
      <point x="235" y="620" type="curve" smooth="yes"/>
      <point x="277" y="620"/>
      <point x="305" y="592"/>
      <point x="305" y="550" type="curve"/>
      <point x="440" y="550" type="line"/>
      <point x="440" y="664"/>
      <point x="358" y="740"/>
      <point x="235" y="740" type="curve" smooth="yes"/>
      <point x="115" y="740"/>
      <point x="35" y="668"/>
      <point x="35" y="565" type="curve" smooth="yes"/>
      <point x="35" y="507"/>
      <point x="60" y="449"/>
      <point x="102" y="390" type="curve"/>
      <point x="119" y="443" type="line"/>
      <point x="27" y="434"/>
      <point x="-26" y="367"/>
      <point x="-26" y="265" type="curve" smooth="yes"/>
      <point x="-26" y="195" type="line" smooth="yes"/>
      <point x="-26" y="66"/>
      <point x="47" y="-10"/>
    </contour>
    <contour>
      <point x="-891" y="110" type="curve" smooth="yes"/>
      <point x="-936" y="110"/>
      <point x="-966" y="140"/>
      <point x="-966" y="195" type="curve" smooth="yes"/>
      <point x="-966" y="265" type="line" smooth="yes"/>
      <point x="-966" y="298"/>
      <point x="-957" y="321"/>
      <point x="-940" y="335" type="curve"/>
      <point x="-810" y="151" type="line"/>
      <point x="-830" y="125"/>
      <point x="-858" y="110"/>
    </contour>
    <contour>
      <point x="-905" y="-10" type="curve" smooth="yes"/>
      <point x="-839" y="-10"/>
      <point x="-783" y="11"/>
      <point x="-739" y="51" type="curve"/>
      <point x="-703" y="0" type="line"/>
      <point x="-560" y="0" type="line"/>
      <point x="-864" y="436" type="line" smooth="yes"/>
      <point x="-895" y="480"/>
      <point x="-915" y="518"/>
      <point x="-915" y="550" type="curve" smooth="yes"/>
      <point x="-915" y="592"/>
      <point x="-887" y="620"/>
      <point x="-845" y="620" type="curve" smooth="yes"/>
      <point x="-803" y="620"/>
      <point x="-775" y="592"/>
      <point x="-775" y="550" type="curve"/>
      <point x="-640" y="550" type="line"/>
      <point x="-640" y="664"/>
      <point x="-722" y="740"/>
      <point x="-845" y="740" type="curve" smooth="yes"/>
      <point x="-965" y="740"/>
      <point x="-1045" y="668"/>
      <point x="-1045" y="565" type="curve" smooth="yes"/>
      <point x="-1045" y="507"/>
      <point x="-1020" y="449"/>
      <point x="-978" y="390" type="curve"/>
      <point x="-961" y="443" type="line"/>
      <point x="-1053" y="434"/>
      <point x="-1106" y="367"/>
      <point x="-1106" y="265" type="curve" smooth="yes"/>
      <point x="-1106" y="195" type="line" smooth="yes"/>
      <point x="-1106" y="66"/>
      <point x="-1033" y="-10"/>
    </contour>
    <contour>
      <point x="-351" y="110" type="curve" smooth="yes"/>
      <point x="-396" y="110"/>
      <point x="-426" y="140"/>
      <point x="-426" y="195" type="curve" smooth="yes"/>
      <point x="-426" y="265" type="line" smooth="yes"/>
      <point x="-426" y="298"/>
      <point x="-417" y="321"/>
      <point x="-400" y="335" type="curve"/>
      <point x="-270" y="151" type="line"/>
      <point x="-290" y="125"/>
      <point x="-318" y="110"/>
    </contour>
    <contour>
      <point x="-365" y="-10" type="curve" smooth="yes"/>
      <point x="-299" y="-10"/>
      <point x="-243" y="11"/>
      <point x="-199" y="51" type="curve"/>
      <point x="-163" y="0" type="line"/>
      <point x="-20" y="0" type="line"/>
      <point x="-324" y="436" type="line" smooth="yes"/>
      <point x="-355" y="480"/>
      <point x="-375" y="518"/>
      <point x="-375" y="550" type="curve" smooth="yes"/>
      <point x="-375" y="592"/>
      <point x="-347" y="620"/>
      <point x="-305" y="620" type="curve" smooth="yes"/>
      <point x="-263" y="620"/>
      <point x="-235" y="592"/>
      <point x="-235" y="550" type="curve"/>
      <point x="-100" y="550" type="line"/>
      <point x="-100" y="664"/>
      <point x="-182" y="740"/>
      <point x="-305" y="740" type="curve" smooth="yes"/>
      <point x="-425" y="740"/>
      <point x="-505" y="668"/>
      <point x="-505" y="565" type="curve" smooth="yes"/>
      <point x="-505" y="507"/>
      <point x="-480" y="449"/>
      <point x="-438" y="390" type="curve"/>
      <point x="-421" y="443" type="line"/>
      <point x="-513" y="434"/>
      <point x="-566" y="367"/>
      <point x="-566" y="265" type="curve" smooth="yes"/>
      <point x="-566" y="195" type="line" smooth="yes"/>
      <point x="-566" y="66"/>
      <point x="-493" y="-10"/>
    </contour>
    <contour>
      <point x="189" y="110" type="curve" smooth="yes"/>
      <point x="144" y="110"/>
      <point x="114" y="140"/>
      <point x="114" y="195" type="curve" smooth="yes"/>
      <point x="114" y="265" type="line" smooth="yes"/>
      <point x="114" y="298"/>
      <point x="123" y="321"/>
      <point x="140" y="335" type="curve"/>
      <point x="270" y="151" type="line"/>
      <point x="250" y="125"/>
      <point x="222" y="110"/>
    </contour>
  </outline>
</glyph>
<glyph name="asciitilde_at.liga" format="2">
  <advance width="600"/>
  <outline>
    <contour>
      <point x="-108" y="225" type="curve" smooth="yes"/>
      <point x="16" y="225"/>
      <point x="108" y="321"/>
      <point x="108" y="457" type="curve"/>
      <point x="30" y="457" type="line"/>
      <point x="30" y="387"/>
      <point x="-30" y="340"/>
      <point x="-103" y="340" type="curve" smooth="yes"/>
      <point x="-230" y="340"/>
      <point x="-236" y="480"/>
      <point x="-385" y="480" type="curve" smooth="yes"/>
      <point x="-485" y="480"/>
      <point x="-560" y="411"/>
      <point x="-560" y="320" type="curve" smooth="yes"/>
      <point x="-560" y="255" type="line"/>
      <point x="-440" y="255" type="line"/>
      <point x="-440" y="310" type="line" smooth="yes"/>
      <point x="-440" y="341"/>
      <point x="-418" y="365"/>
      <point x="-385" y="365" type="curve" smooth="yes"/>
      <point x="-302" y="365"/>
      <point x="-278" y="225"/>
    </contour>
    <component base="at"/>
  </outline>
</glyph>
<glyph name="bar_hyphen_greater.liga" format="2">
  <advance width="600"/>
  <outline>
    <contour>
      <point x="-1080" y="35" type="line"/>
      <point x="-930" y="35" type="line"/>
      <point x="-930" y="260" type="line"/>
      <point x="301" y="260" type="line"/>
      <point x="298" y="255"/>
      <point x="294" y="250"/>
      <point x="290" y="245" type="curve" smooth="yes"/>
      <point x="133" y="35" type="line"/>
      <point x="309" y="35" type="line"/>
      <point x="530" y="330" type="line"/>
      <point x="310" y="625" type="line"/>
      <point x="133" y="625" type="line"/>
      <point x="289" y="414" type="line" smooth="yes"/>
      <point x="293" y="409"/>
      <point x="296" y="404"/>
      <point x="299" y="400" type="curve"/>
      <point x="-930" y="400" type="line"/>
      <point x="-930" y="625" type="line"/>
      <point x="-1080" y="625" type="line"/>
    </contour>
  </outline>
</glyph>
<glyph name="braceleft_braceleft_hyphen_hyphen.liga" format="2">
  <advance width="600"/>
  <outline>
    <contour>
      <point x="-930" y="260" type="line"/>
      <point x="520" y="260" type="line"/>
      <point x="520" y="400" type="line"/>
      <point x="-930" y="400" type="line"/>
    </contour>
    <component base="braceleft" xOffset="-1740" yOffset="-30"/>
    <component base="braceleft" xOffset="-1207" yOffset="-30"/>
  </outline>
</glyph>
<glyph name="bracketright_numbersign.liga" format="2">
  <advance width="600"/>
  <outline>
    <contour>
      <point x="73" y="0" type="line"/>
      <point x="173" y="0" type="line"/>
      <point x="203" y="175" type="line"/>
      <point x="333" y="175" type="line"/>
      <point x="303" y="0" type="line"/>
      <point x="403" y="0" type="line"/>
      <point x="433" y="175" type="line"/>
      <point x="530" y="175" type="line"/>
      <point x="530" y="275" type="line"/>
      <point x="450" y="275" type="line"/>
      <point x="479" y="455" type="line"/>
      <point x="565" y="455" type="line"/>
      <point x="565" y="555" type="line"/>
      <point x="496" y="555" type="line"/>
      <point x="527" y="730" type="line"/>
      <point x="427" y="730" type="line"/>
      <point x="396" y="555" type="line"/>
      <point x="266" y="555" type="line"/>
      <point x="297" y="730" type="line"/>
      <point x="197" y="730" type="line"/>
      <point x="166" y="555" type="line"/>
      <point x="-265" y="555" type="line"/>
      <point x="-265" y="455" type="line"/>
      <point x="149" y="455" type="line"/>
      <point x="120" y="275" type="line"/>
      <point x="-265" y="275" type="line"/>
      <point x="-265" y="175" type="line"/>
      <point x="103" y="175" type="line"/>
    </contour>
    <contour>
      <point x="220" y="275" type="line"/>
      <point x="249" y="455" type="line"/>
      <point x="379" y="455" type="line"/>
      <point x="350" y="275" type="line"/>
    </contour>
    <component base="bracketright" xOffset="-600"/>
  </outline>
</glyph>
<glyph name="brevecomb.case" format="2">
  <anchor x="-300" y="730" name="_top"/>
  <anchor x="-300" y="950" name="top"/>
  <outline>
    <contour>
      <point x="-300" y="800" type="curve" smooth="yes"/>
      <point x="-189" y="800"/>
      <point x="-115" y="860"/>
      <point x="-115" y="950" type="curve"/>
      <point x="-230" y="950" type="line"/>
      <point x="-230" y="912"/>
      <point x="-258" y="887"/>
      <point x="-300" y="887" type="curve" smooth="yes"/>
      <point x="-341" y="887"/>
      <point x="-369" y="912"/>
      <point x="-369" y="950" type="curve"/>
      <point x="-484" y="950" type="line"/>
      <point x="-484" y="860"/>
      <point x="-410" y="800"/>
    </contour>
  </outline>
</glyph>
<glyph name="brevecomb_gravecomb.case" format="2">
  <anchor x="-300" y="730" name="_top"/>
  <anchor x="-301" y="1020" name="top"/>
  <outline>
    <contour>
      <point x="-336" y="780" type="curve" smooth="yes"/>
      <point x="-265" y="780" type="line" smooth="yes"/>
      <point x="-164" y="780"/>
      <point x="-100" y="832"/>
      <point x="-100" y="915" type="curve"/>
      <point x="-195" y="915" type="line"/>
      <point x="-195" y="881"/>
      <point x="-221" y="860"/>
      <point x="-265" y="860" type="curve" smooth="yes"/>
      <point x="-336" y="860" type="line" smooth="yes"/>
      <point x="-381" y="860"/>
      <point x="-406" y="881"/>
      <point x="-406" y="915" type="curve"/>
      <point x="-501" y="915" type="line"/>
      <point x="-501" y="832"/>
      <point x="-437" y="780"/>
    </contour>
    <contour>
      <point x="-343" y="905" type="line"/>
      <point x="-233" y="905" type="line"/>
      <point x="-318" y="1020" type="line"/>
      <point x="-438" y="1020" type="line"/>
    </contour>
  </outline>
</glyph>
<glyph name="brevecomb_hookabovecomb.case" format="2">
  <anchor x="-300" y="730" name="_top"/>
  <anchor x="-301" y="1020" name="top"/>
  <outline>
    <contour>
      <point x="-351" y="890" type="line"/>
      <point x="-245" y="890" type="line"/>
      <point x="-237" y="901" type="line" smooth="yes"/>
      <point x="-226" y="916"/>
      <point x="-215" y="931"/>
      <point x="-215" y="954" type="curve" smooth="yes"/>
      <point x="-215" y="995"/>
      <point x="-245" y="1020"/>
      <point x="-300" y="1020" type="curve" smooth="yes"/>
      <point x="-400" y="1020" type="line"/>
      <point x="-400" y="949" type="line"/>
      <point x="-331" y="949" type="line" smooth="yes"/>
      <point x="-322" y="949"/>
      <point x="-317" y="945"/>
      <point x="-317" y="938" type="curve" smooth="yes"/>
      <point x="-317" y="932"/>
      <point x="-320" y="927"/>
      <point x="-326" y="920" type="curve" smooth="yes"/>
    </contour>
    <contour>
      <point x="-336" y="780" type="curve" smooth="yes"/>
      <point x="-265" y="780" type="line" smooth="yes"/>
      <point x="-164" y="780"/>
      <point x="-100" y="832"/>
      <point x="-100" y="915" type="curve"/>
      <point x="-195" y="915" type="line"/>
      <point x="-195" y="881"/>
      <point x="-221" y="860"/>
      <point x="-265" y="860" type="curve" smooth="yes"/>
      <point x="-336" y="860" type="line" smooth="yes"/>
      <point x="-381" y="860"/>
      <point x="-406" y="881"/>
      <point x="-406" y="915" type="curve"/>
      <point x="-501" y="915" type="line"/>
      <point x="-501" y="832"/>
      <point x="-437" y="780"/>
    </contour>
  </outline>
</glyph>
<glyph name="brevecomb_hookabovecomb" format="2">
  <anchor x="-300" y="550" name="_top"/>
  <anchor x="-300" y="975" name="top"/>
  <outline>
    <contour>
      <point x="-300" y="640" type="curve" smooth="yes"/>
      <point x="-192" y="640"/>
      <point x="-115" y="696"/>
      <point x="-115" y="780" type="curve"/>
      <point x="-225" y="780" type="line"/>
      <point x="-225" y="748"/>
      <point x="-252" y="730"/>
      <point x="-301" y="730" type="curve" smooth="yes"/>
      <point x="-348" y="730"/>
      <point x="-375" y="748"/>
      <point x="-375" y="780" type="curve"/>
      <point x="-485" y="780" type="line"/>
      <point x="-485" y="696"/>
      <point x="-408" y="640"/>
    </contour>
    <contour>
      <point x="-361" y="790" type="line"/>
      <point x="-251" y="790" type="line"/>
      <point x="-219" y="827" type="line" smooth="yes"/>
      <point x="-204" y="844"/>
      <point x="-196" y="867"/>
      <point x="-196" y="889" type="curve" smooth="yes"/>
      <point x="-196" y="940"/>
      <point x="-239" y="975"/>
      <point x="-302" y="975" type="curve" smooth="yes"/>
      <point x="-400" y="975" type="line"/>
      <point x="-400" y="890" type="line"/>
      <point x="-326" y="890" type="line" smooth="yes"/>
      <point x="-308" y="890"/>
      <point x="-300" y="884"/>
      <point x="-300" y="872" type="curve" smooth="yes"/>
      <point x="-300" y="864"/>
      <point x="-304" y="856"/>
      <point x="-315" y="843" type="curve" smooth="yes"/>
    </contour>
  </outline>
</glyph>
<glyph name="caroncomb.case" format="2">
  <anchor x="-300" y="730" name="_top"/>
  <anchor x="-300" y="950" name="top"/>
  <outline>
    <contour>
      <point x="-370" y="810" type="line"/>
      <point x="-230" y="810" type="line"/>
      <point x="-95" y="950" type="line"/>
      <point x="-231" y="950" type="line"/>
      <point x="-298" y="880" type="line"/>
      <point x="-370" y="950" type="line"/>
      <point x="-505" y="950" type="line"/>
    </contour>
  </outline>
</glyph>
<glyph name="circumflexcomb.case" format="2">
  <anchor x="-300" y="730" name="_top"/>
  <anchor x="-300" y="950" name="top"/>
  <outline>
    <contour>
      <point x="-505" y="810" type="line"/>
      <point x="-369" y="810" type="line"/>
      <point x="-302" y="880" type="line"/>
      <point x="-230" y="810" type="line"/>
      <point x="-95" y="810" type="line"/>
      <point x="-230" y="950" type="line"/>
      <point x="-370" y="950" type="line"/>
    </contour>
  </outline>
</glyph>
<glyph name="circumflexcomb_acutecomb.case" format="2">
  <anchor x="-300" y="730" name="_top"/>
  <anchor x="-218" y="1020" name="top"/>
  <outline>
    <contour>
      <point x="-180" y="905" type="line"/>
      <point x="-45" y="905" type="line"/>
      <point x="70" y="1020" type="line"/>
      <point x="-75" y="1020" type="line"/>
    </contour>
    <contour>
      <point x="-505" y="780" type="line"/>
      <point x="-369" y="780" type="line"/>
      <point x="-300" y="850" type="line"/>
      <point x="-231" y="780" type="line"/>
      <point x="-95" y="780" type="line"/>
      <point x="-230" y="920" type="line"/>
      <point x="-370" y="920" type="line"/>
    </contour>
  </outline>
</glyph>
<glyph name="circumflexcomb_acutecomb" format="2">
  <anchor x="-300" y="550" name="_top"/>
  <anchor x="-210" y="900" name="top"/>
  <outline>
    <contour>
      <point x="-180" y="760" type="line"/>
      <point x="-45" y="760" type="line"/>
      <point x="85" y="900" type="line"/>
      <point x="-60" y="900" type="line"/>
    </contour>
    <contour>
      <point x="-505" y="645" type="line"/>
      <point x="-369" y="645" type="line"/>
      <point x="-300" y="715" type="line"/>
      <point x="-231" y="645" type="line"/>
      <point x="-95" y="645" type="line"/>
      <point x="-230" y="785" type="line"/>
      <point x="-370" y="785" type="line"/>
    </contour>
  </outline>
</glyph>
<glyph name="circumflexcomb_hookabovecomb.case" format="2">
  <anchor x="-300" y="730" name="_top"/>
  <anchor x="-257" y="1020" name="top"/>
  <outline>
    <contour>
      <point x="-162" y="870" type="line"/>
      <point x="-52" y="870" type="line"/>
      <point x="-33" y="886" type="line" smooth="yes"/>
      <point x="-19" y="898"/>
      <point x="-9" y="921"/>
      <point x="-9" y="938" type="curve" smooth="yes"/>
      <point x="-9" y="991"/>
      <point x="-51" y="1020"/>
      <point x="-115" y="1020" type="curve" smooth="yes"/>
      <point x="-210" y="1020" type="line"/>
      <point x="-210" y="944" type="line"/>
      <point x="-140" y="944" type="line" smooth="yes"/>
      <point x="-124" y="944"/>
      <point x="-115" y="938"/>
      <point x="-115" y="927" type="curve" smooth="yes"/>
      <point x="-115" y="920"/>
      <point x="-118" y="914"/>
      <point x="-128" y="904" type="curve" smooth="yes"/>
    </contour>
    <contour>
      <point x="-505" y="780" type="line"/>
      <point x="-369" y="780" type="line"/>
      <point x="-300" y="850" type="line"/>
      <point x="-231" y="780" type="line"/>
      <point x="-95" y="780" type="line"/>
      <point x="-230" y="920" type="line"/>
      <point x="-370" y="920" type="line"/>
    </contour>
  </outline>
</glyph>
<glyph name="circumflexcomb_hookabovecomb" format="2">
  <anchor x="-300" y="550" name="_top"/>
  <anchor x="-258" y="949" name="top"/>
  <outline>
    <contour>
      <point x="-177" y="760" type="line"/>
      <point x="-67" y="760" type="line"/>
      <point x="-32" y="802" type="line" smooth="yes"/>
      <point x="-18" y="819"/>
      <point x="-10" y="841"/>
      <point x="-10" y="863" type="curve" smooth="yes"/>
      <point x="-10" y="915"/>
      <point x="-52" y="949"/>
      <point x="-115" y="949" type="curve" smooth="yes"/>
      <point x="-220" y="949" type="line"/>
      <point x="-220" y="864" type="line"/>
      <point x="-140" y="864" type="line" smooth="yes"/>
      <point x="-121" y="864"/>
      <point x="-113" y="860"/>
      <point x="-113" y="847" type="curve" smooth="yes"/>
      <point x="-113" y="839"/>
      <point x="-117" y="831"/>
      <point x="-128" y="818" type="curve" smooth="yes"/>
    </contour>
    <contour>
      <point x="-505" y="645" type="line"/>
      <point x="-369" y="645" type="line"/>
      <point x="-300" y="715" type="line"/>
      <point x="-231" y="645" type="line"/>
      <point x="-95" y="645" type="line"/>
      <point x="-230" y="785" type="line"/>
      <point x="-370" y="785" type="line"/>
    </contour>
  </outline>
</glyph>
<glyph name="circumflexcomb_tildecomb" format="2">
  <anchor x="-300" y="550" name="_top"/>
  <anchor x="-300" y="970" name="top"/>
  <outline>
    <contour>
      <point x="-230" y="826" type="curve" smooth="yes"/>
      <point x="-164" y="826"/>
      <point x="-120" y="872"/>
      <point x="-120" y="941" type="curve" smooth="yes"/>
      <point x="-120" y="964" type="line"/>
      <point x="-205" y="964" type="line"/>
      <point x="-205" y="939" type="line" smooth="yes"/>
      <point x="-205" y="922"/>
      <point x="-217" y="911"/>
      <point x="-235" y="911" type="curve" smooth="yes"/>
      <point x="-275" y="911"/>
      <point x="-285" y="970"/>
      <point x="-370" y="970" type="curve" smooth="yes"/>
      <point x="-436" y="970"/>
      <point x="-480" y="924"/>
      <point x="-480" y="855" type="curve" smooth="yes"/>
      <point x="-480" y="830" type="line"/>
      <point x="-395" y="830" type="line"/>
      <point x="-395" y="852" type="line" smooth="yes"/>
      <point x="-395" y="872"/>
      <point x="-383" y="885"/>
      <point x="-365" y="885" type="curve" smooth="yes"/>
      <point x="-325" y="885"/>
      <point x="-315" y="826"/>
    </contour>
    <contour>
      <point x="-505" y="645" type="line"/>
      <point x="-369" y="645" type="line"/>
      <point x="-300" y="715" type="line"/>
      <point x="-231" y="645" type="line"/>
      <point x="-95" y="645" type="line"/>
      <point x="-230" y="785" type="line"/>
      <point x="-370" y="785" type="line"/>
    </contour>
  </outline>
</glyph>
<glyph name="colon.case" format="2">
  <advance width="600"/>
  <outline>
    <contour>
      <point x="300" y="460" type="curve" smooth="yes"/>
      <point x="360" y="460"/>
      <point x="400" y="496"/>
      <point x="400" y="550" type="curve" smooth="yes"/>
      <point x="400" y="604"/>
      <point x="360" y="640"/>
      <point x="300" y="640" type="curve" smooth="yes"/>
      <point x="240" y="640"/>
      <point x="200" y="604"/>
      <point x="200" y="550" type="curve" smooth="yes"/>
      <point x="200" y="496"/>
      <point x="240" y="460"/>
    </contour>
    <contour>
      <point x="300" y="70" type="curve" smooth="yes"/>
      <point x="360" y="70"/>
      <point x="400" y="106"/>
      <point x="400" y="160" type="curve" smooth="yes"/>
      <point x="400" y="214"/>
      <point x="360" y="250"/>
      <point x="300" y="250" type="curve" smooth="yes"/>
      <point x="240" y="250"/>
      <point x="200" y="214"/>
      <point x="200" y="160" type="curve" smooth="yes"/>
      <point x="200" y="106"/>
      <point x="240" y="70"/>
    </contour>
  </outline>
</glyph>
<glyph name="commaaccentcomb.case" format="2">
  <anchor x="-300" y="0" name="_bottom"/>
  <anchor x="-303" y="-240" name="bottom"/>
  <outline>
    <contour>
      <point x="-425" y="-240" type="line"/>
      <point x="-295" y="-240" type="line"/>
      <point x="-180" y="-95" type="line"/>
      <point x="-330" y="-95" type="line"/>
    </contour>
  </outline>
</glyph>
<glyph name="dblgravecomb.case" format="2">
  <anchor x="-300" y="730" name="_top"/>
  <anchor x="-338" y="950" name="top"/>
  <outline>
    <contour>
      <point x="-322" y="810" type="line"/>
      <point x="-427" y="950" type="line"/>
      <point x="-570" y="950" type="line"/>
      <point x="-455" y="810" type="line"/>
    </contour>
    <contour>
      <point x="-105" y="810" type="line"/>
      <point x="-210" y="950" type="line"/>
      <point x="-353" y="950" type="line"/>
      <point x="-238" y="810" type="line"/>
    </contour>
  </outline>
</glyph>
<glyph name="equal_equal_equal.liga" format="2">
  <advance width="600"/>
  <outline>
    <contour>
      <point x="-1120" y="530" type="line"/>
      <point x="520" y="530" type="line"/>
      <point x="520" y="660" type="line"/>
      <point x="-1120" y="660" type="line"/>
    </contour>
    <contour>
      <point x="-1120" y="0" type="line"/>
      <point x="520" y="0" type="line"/>
      <point x="520" y="130" type="line"/>
      <point x="-1120" y="130" type="line"/>
    </contour>
    <contour>
      <point x="-1120" y="265" type="line"/>
      <point x="520" y="265" type="line"/>
      <point x="520" y="395" type="line"/>
      <point x="-1120" y="395" type="line"/>
    </contour>
  </outline>
</glyph>
<glyph name="equal_slash_equal.liga" format="2">
  <advance width="600"/>
  <outline>
    <contour>
      <point x="-609" y="0" type="line"/>
      <point x="-459" y="0" type="line"/>
      <point x="-372" y="135" type="line"/>
      <point x="520" y="135" type="line"/>
      <point x="520" y="275" type="line"/>
      <point x="-281" y="275" type="line"/>
      <point x="-210" y="385" type="line"/>
      <point x="520" y="385" type="line"/>
      <point x="520" y="525" type="line"/>
      <point x="-120" y="525" type="line"/>
      <point x="-29" y="665" type="line"/>
      <point x="-179" y="665" type="line"/>
      <point x="-270" y="525" type="line"/>
      <point x="-1160" y="525" type="line"/>
      <point x="-1160" y="385" type="line"/>
      <point x="-360" y="385" type="line"/>
      <point x="-431" y="275" type="line"/>
      <point x="-1160" y="275" type="line"/>
      <point x="-1160" y="135" type="line"/>
      <point x="-522" y="135" type="line"/>
    </contour>
  </outline>
</glyph>
<glyph name="greater_greater_equal.liga" format="2">
  <advance width="600"/>
  <outline>
    <contour>
      <point x="-807" y="35" type="line"/>
      <point x="-631" y="35" type="line"/>
      <point x="-556" y="135" type="line"/>
      <point x="520" y="135" type="line"/>
      <point x="520" y="275" type="line"/>
      <point x="-451" y="275" type="line"/>
      <point x="-410" y="330" type="line"/>
      <point x="-451" y="385" type="line"/>
      <point x="520" y="385" type="line"/>
      <point x="520" y="525" type="line"/>
      <point x="-555" y="525" type="line"/>
      <point x="-630" y="625" type="line"/>
      <point x="-807" y="625" type="line"/>
      <point x="-587" y="328" type="line"/>
    </contour>
    <contour>
      <point x="-1107" y="35" type="line"/>
      <point x="-931" y="35" type="line"/>
      <point x="-710" y="330" type="line"/>
      <point x="-930" y="625" type="line"/>
      <point x="-1107" y="625" type="line"/>
      <point x="-887" y="328" type="line"/>
    </contour>
  </outline>
</glyph>
<glyph name="greater_greater_hyphen.liga" format="2">
  <advance width="600"/>
  <outline>
    <contour>
      <point x="-807" y="35" type="line"/>
      <point x="-631" y="35" type="line"/>
      <point x="-462" y="260" type="line"/>
      <point x="520" y="260" type="line"/>
      <point x="520" y="400" type="line"/>
      <point x="-462" y="400" type="line"/>
      <point x="-630" y="625" type="line"/>
      <point x="-807" y="625" type="line"/>
      <point x="-587" y="328" type="line"/>
    </contour>
    <contour>
      <point x="-1107" y="35" type="line"/>
      <point x="-931" y="35" type="line"/>
      <point x="-710" y="330" type="line"/>
      <point x="-930" y="625" type="line"/>
      <point x="-1107" y="625" type="line"/>
      <point x="-887" y="328" type="line"/>
    </contour>
  </outline>
</glyph>
<glyph name="greater_hyphen.liga" format="2">
  <advance width="600"/>
  <outline>
    <contour>
      <point x="-552" y="35" type="line"/>
      <point x="-376" y="35" type="line"/>
      <point x="-207" y="260" type="line"/>
      <point x="520" y="260" type="line"/>
      <point x="520" y="400" type="line"/>
      <point x="-207" y="400" type="line"/>
      <point x="-375" y="625" type="line"/>
      <point x="-552" y="625" type="line"/>
      <point x="-396" y="414" type="line" smooth="yes"/>
      <point x="-355" y="359"/>
      <point x="-333" y="332"/>
      <point x="-327" y="328" type="curve"/>
      <point x="-332" y="324"/>
      <point x="-354" y="299"/>
      <point x="-395" y="245" type="curve" smooth="yes"/>
    </contour>
  </outline>
</glyph>
<glyph name="greater_hyphen_greater.liga" format="2">
  <advance width="600"/>
  <outline>
    <contour>
      <point x="-1107" y="35" type="line"/>
      <point x="-931" y="35" type="line"/>
      <point x="-762" y="260" type="line"/>
      <point x="301" y="260" type="line"/>
      <point x="298" y="255"/>
      <point x="294" y="250"/>
      <point x="290" y="245" type="curve" smooth="yes"/>
      <point x="133" y="35" type="line"/>
      <point x="309" y="35" type="line"/>
      <point x="530" y="330" type="line"/>
      <point x="310" y="625" type="line"/>
      <point x="133" y="625" type="line"/>
      <point x="289" y="414" type="line" smooth="yes"/>
      <point x="293" y="409"/>
      <point x="296" y="404"/>
      <point x="299" y="400" type="curve"/>
      <point x="-762" y="400" type="line"/>
      <point x="-930" y="625" type="line"/>
      <point x="-1107" y="625" type="line"/>
      <point x="-951" y="414" type="line" smooth="yes"/>
      <point x="-910" y="359"/>
      <point x="-888" y="332"/>
      <point x="-882" y="328" type="curve"/>
      <point x="-887" y="324"/>
      <point x="-909" y="299"/>
      <point x="-950" y="245" type="curve" smooth="yes"/>
    </contour>
  </outline>
</glyph>
<glyph name="hookabovecomb.case" format="2">
  <anchor x="-300" y="730" name="_top"/>
  <anchor x="-295" y="985" name="top"/>
  <outline>
    <contour>
      <point x="-357" y="796" type="line"/>
      <point x="-247" y="796" type="line"/>
      <point x="-212" y="838" type="line" smooth="yes"/>
      <point x="-198" y="855"/>
      <point x="-190" y="877"/>
      <point x="-190" y="899" type="curve" smooth="yes"/>
      <point x="-190" y="951"/>
      <point x="-232" y="985"/>
      <point x="-295" y="985" type="curve" smooth="yes"/>
      <point x="-400" y="985" type="line"/>
      <point x="-400" y="900" type="line"/>
      <point x="-320" y="900" type="line" smooth="yes"/>
      <point x="-301" y="900"/>
      <point x="-293" y="896"/>
      <point x="-293" y="883" type="curve" smooth="yes"/>
      <point x="-293" y="875"/>
      <point x="-297" y="867"/>
      <point x="-308" y="854" type="curve" smooth="yes"/>
    </contour>
  </outline>
</glyph>
<glyph name="horncomb.case" format="2">
  <anchor x="-296" y="730" name="_horn"/>
  <anchor x="-245" y="730" name="_topright"/>
  <anchor x="-10" y="840" name="topright"/>
  <outline>
    <contour>
      <point x="-225" y="630" type="line"/>
      <point x="-175" y="630" type="line" smooth="yes"/>
      <point x="-88" y="630"/>
      <point x="-30" y="684"/>
      <point x="-30" y="765" type="curve" smooth="yes"/>
      <point x="-30" y="840" type="line"/>
      <point x="-150" y="840" type="line"/>
      <point x="-150" y="765" type="line" smooth="yes"/>
      <point x="-150" y="743"/>
      <point x="-163" y="730"/>
      <point x="-185" y="730" type="curve" smooth="yes"/>
      <point x="-225" y="730" type="line"/>
    </contour>
  </outline>
</glyph>
<glyph name="hyphen_greater_greater.liga" format="2">
  <advance width="600"/>
  <outline>
    <contour>
      <point x="-187" y="35" type="line"/>
      <point x="-11" y="35" type="line"/>
      <point x="210" y="330" type="line"/>
      <point x="-10" y="625" type="line"/>
      <point x="-187" y="625" type="line"/>
      <point x="-31" y="414" type="line" smooth="yes"/>
      <point x="-27" y="409"/>
      <point x="-24" y="404"/>
      <point x="-21" y="400" type="curve"/>
      <point x="-1120" y="400" type="line"/>
      <point x="-1120" y="260" type="line"/>
      <point x="-19" y="260" type="line"/>
      <point x="-22" y="255"/>
      <point x="-26" y="250"/>
      <point x="-30" y="245" type="curve" smooth="yes"/>
    </contour>
    <contour>
      <point x="133" y="35" type="line"/>
      <point x="309" y="35" type="line"/>
      <point x="530" y="330" type="line"/>
      <point x="310" y="625" type="line"/>
      <point x="133" y="625" type="line"/>
      <point x="289" y="414" type="line" smooth="yes"/>
      <point x="330" y="359"/>
      <point x="352" y="332"/>
      <point x="358" y="328" type="curve"/>
      <point x="353" y="324"/>
      <point x="331" y="299"/>
      <point x="290" y="245" type="curve" smooth="yes"/>
    </contour>
  </outline>
</glyph>
<glyph name="hyphen_hyphen_braceright_braceright.liga" format="2">
  <advance width="600"/>
  <outline>
    <contour>
      <point x="-1720" y="260" type="line"/>
      <point x="-230" y="260" type="line"/>
      <point x="-230" y="400" type="line"/>
      <point x="-1720" y="400" type="line"/>
    </contour>
    <component base="braceright" xOffset="-555" yOffset="-30"/>
    <component base="braceright" xOffset="-25" yOffset="-30"/>
  </outline>
</glyph>
<glyph name="hyphen_hyphen_greater.liga" format="2">
  <advance width="600"/>
  <outline>
    <contour>
      <point x="133" y="625" type="line"/>
      <point x="287" y="416" type="line" smooth="yes"/>
      <point x="291" y="411"/>
      <point x="297" y="404"/>
      <point x="302" y="400" type="curve"/>
      <point x="-1120" y="400" type="line"/>
      <point x="-1120" y="260" type="line"/>
      <point x="304" y="260" type="line"/>
      <point x="301" y="257"/>
      <point x="292" y="248"/>
      <point x="288" y="243" type="curve" smooth="yes"/>
      <point x="133" y="35" type="line"/>
      <point x="309" y="35" type="line"/>
      <point x="530" y="330" type="line"/>
      <point x="310" y="625" type="line"/>
    </contour>
  </outline>
</glyph>
<glyph name="less_bar_greater.liga" format="2">
  <advance width="600"/>
  <outline>
    <contour>
      <point x="-115" y="-85" type="line"/>
      <point x="460" y="258" type="line"/>
      <point x="460" y="402" type="line"/>
      <point x="-115" y="750" type="line"/>
      <point x="-115" y="591" type="line"/>
      <point x="262" y="364" type="line" smooth="yes"/>
      <point x="287" y="349"/>
      <point x="316" y="340"/>
      <point x="331" y="337" type="curve"/>
      <point x="316" y="333"/>
      <point x="287" y="322"/>
      <point x="261" y="307" type="curve" smooth="yes"/>
      <point x="-115" y="85" type="line"/>
    </contour>
    <contour>
      <point x="-485" y="-85" type="line"/>
      <point x="-485" y="74" type="line"/>
      <point x="-862" y="296" type="line"/>
      <point x="-887" y="311"/>
      <point x="-915" y="321"/>
      <point x="-930" y="324" type="curve"/>
      <point x="-916" y="327"/>
      <point x="-887" y="337"/>
      <point x="-861" y="353" type="curve" smooth="yes"/>
      <point x="-485" y="580" type="line"/>
      <point x="-485" y="750" type="line"/>
      <point x="-1060" y="402" type="line"/>
      <point x="-1060" y="258" type="line"/>
    </contour>
    <contour>
      <point x="-375" y="-110" type="line"/>
      <point x="-225" y="-110" type="line"/>
      <point x="-225" y="780" type="line"/>
      <point x="-375" y="780" type="line"/>
    </contour>
  </outline>
</glyph>
<glyph name="less_dollar.liga" format="2">
  <advance width="600"/>
  <outline>
    <contour>
      <point x="239" y="-140" type="line"/>
      <point x="304" y="-140" type="line"/>
      <point x="304" y="-9" type="line"/>
      <point x="440" y="2"/>
      <point x="527" y="86"/>
      <point x="527" y="206" type="curve" smooth="yes"/>
      <point x="527" y="324"/>
      <point x="459" y="402"/>
      <point x="330" y="432" type="curve" smooth="yes"/>
      <point x="304" y="438" type="line"/>
      <point x="304" y="606" type="line"/>
      <point x="343" y="597"/>
      <point x="365" y="572"/>
      <point x="365" y="535" type="curve"/>
      <point x="515" y="535" type="line"/>
      <point x="515" y="651"/>
      <point x="434" y="728"/>
      <point x="304" y="739" type="curve"/>
      <point x="304" y="870" type="line"/>
      <point x="239" y="870" type="line"/>
      <point x="239" y="739" type="line"/>
      <point x="110" y="727"/>
      <point x="31" y="647"/>
      <point x="31" y="529" type="curve" smooth="yes"/>
      <point x="31" y="414"/>
      <point x="103" y="331"/>
      <point x="227" y="302" type="curve" smooth="yes"/>
      <point x="239" y="299" type="line"/>
      <point x="239" y="121" type="line"/>
      <point x="182" y="123"/>
      <point x="134" y="129"/>
      <point x="105" y="140" type="curve" smooth="yes"/>
      <point x="-346" y="307" type="line" smooth="yes"/>
      <point x="-374" y="317"/>
      <point x="-406" y="326"/>
      <point x="-423" y="329" type="curve"/>
      <point x="-406" y="332"/>
      <point x="-373" y="340"/>
      <point x="-346" y="352" type="curve" smooth="yes"/>
      <point x="-70" y="473" type="line"/>
      <point x="-70" y="609" type="line"/>
      <point x="-530" y="400" type="line"/>
      <point x="-530" y="257" type="line"/>
      <point x="56" y="24" type="line" smooth="yes"/>
      <point x="101" y="6"/>
      <point x="168" y="-6"/>
      <point x="239" y="-9" type="curve"/>
    </contour>
    <contour>
      <point x="304" y="122" type="curve"/>
      <point x="304" y="351" type="line"/>
      <point x="246" y="287" type="line"/>
      <point x="326" y="295"/>
      <point x="377" y="257"/>
      <point x="377" y="199" type="curve" smooth="yes"/>
      <point x="377" y="157"/>
      <point x="350" y="129"/>
    </contour>
    <contour>
      <point x="239" y="387" type="line"/>
      <point x="294" y="447" type="line"/>
      <point x="223" y="444"/>
      <point x="181" y="480"/>
      <point x="181" y="535" type="curve" smooth="yes"/>
      <point x="181" y="573"/>
      <point x="202" y="598"/>
      <point x="239" y="607" type="curve"/>
    </contour>
  </outline>
</glyph>
<glyph name="less_dollar_greater.liga" format="2">
  <advance width="600"/>
  <outline>
    <contour>
      <point x="-330" y="-140" type="line"/>
      <point x="-265" y="-140" type="line"/>
      <point x="-265" y="-9" type="line"/>
      <point x="-129" y="2"/>
      <point x="-42" y="86"/>
      <point x="-42" y="206" type="curve" smooth="yes"/>
      <point x="-42" y="324"/>
      <point x="-110" y="402"/>
      <point x="-239" y="432" type="curve" smooth="yes"/>
      <point x="-265" y="438" type="line"/>
      <point x="-265" y="608" type="line"/>
      <point x="-235" y="605"/>
      <point x="-208" y="598"/>
      <point x="-179" y="584" type="curve" smooth="yes"/>
      <point x="316" y="351" type="line" smooth="yes"/>
      <point x="343" y="338"/>
      <point x="376" y="331"/>
      <point x="393" y="329" type="curve"/>
      <point x="376" y="326"/>
      <point x="343" y="318"/>
      <point x="316" y="306" type="curve" smooth="yes"/>
      <point x="40" y="185" type="line"/>
      <point x="40" y="49" type="line"/>
      <point x="500" y="258" type="line"/>
      <point x="500" y="401" type="line"/>
      <point x="-128" y="694" type="line" smooth="yes"/>
      <point x="-175" y="716"/>
      <point x="-225" y="732"/>
      <point x="-265" y="737" type="curve"/>
      <point x="-265" y="870" type="line"/>
      <point x="-330" y="870" type="line"/>
      <point x="-330" y="739" type="line"/>
      <point x="-459" y="727"/>
      <point x="-538" y="647"/>
      <point x="-538" y="529" type="curve" smooth="yes"/>
      <point x="-538" y="414"/>
      <point x="-466" y="333"/>
      <point x="-342" y="302" type="curve" smooth="yes"/>
      <point x="-330" y="299" type="line"/>
      <point x="-330" y="121" type="line"/>
      <point x="-387" y="123"/>
      <point x="-435" y="129"/>
      <point x="-464" y="140" type="curve" smooth="yes"/>
      <point x="-916" y="307" type="line" smooth="yes"/>
      <point x="-944" y="317"/>
      <point x="-976" y="326"/>
      <point x="-993" y="329" type="curve"/>
      <point x="-976" y="332"/>
      <point x="-943" y="340"/>
      <point x="-916" y="352" type="curve" smooth="yes"/>
      <point x="-640" y="473" type="line"/>
      <point x="-640" y="609" type="line"/>
      <point x="-1100" y="400" type="line"/>
      <point x="-1100" y="257" type="line"/>
      <point x="-513" y="24" type="line" smooth="yes"/>
      <point x="-468" y="6"/>
      <point x="-401" y="-6"/>
      <point x="-330" y="-9" type="curve"/>
    </contour>
    <contour>
      <point x="-265" y="122" type="curve"/>
      <point x="-265" y="321" type="line"/>
      <point x="-323" y="287" type="line"/>
      <point x="-243" y="295"/>
      <point x="-192" y="257"/>
      <point x="-192" y="199" type="curve" smooth="yes"/>
      <point x="-192" y="157"/>
      <point x="-219" y="129"/>
    </contour>
    <contour>
      <point x="-330" y="417" type="line"/>
      <point x="-275" y="447" type="line"/>
      <point x="-346" y="444"/>
      <point x="-388" y="480"/>
      <point x="-388" y="535" type="curve" smooth="yes"/>
      <point x="-388" y="573"/>
      <point x="-367" y="598"/>
      <point x="-330" y="607" type="curve"/>
    </contour>
  </outline>
</glyph>
<glyph name="less_equal.liga" format="2">
  <advance width="600"/>
  <outline>
    <contour>
      <point x="305" y="150" type="line"/>
      <point x="305" y="287" type="line"/>
      <point x="-121" y="415" type="line" smooth="yes"/>
      <point x="-149" y="423"/>
      <point x="-189" y="425"/>
      <point x="-212" y="424" type="curve"/>
      <point x="-212" y="434" type="line"/>
      <point x="-190" y="433"/>
      <point x="-149" y="434"/>
      <point x="-121" y="442" type="curve" smooth="yes"/>
      <point x="305" y="564" type="line"/>
      <point x="305" y="700" type="line"/>
      <point x="-305" y="498" type="line"/>
      <point x="-305" y="351" type="line"/>
    </contour>
    <contour>
      <point x="305" y="-80" type="line"/>
      <point x="305" y="47" type="line"/>
      <point x="-305" y="248" type="line"/>
      <point x="-305" y="121" type="line"/>
    </contour>
  </outline>
</glyph>
<glyph name="less_equal_bar.liga" format="2">
  <advance width="600"/>
  <outline>
    <contour>
      <point x="-910" y="35" type="line"/>
      <point x="-733" y="35" type="line"/>
      <point x="-807" y="135" type="line"/>
      <point x="330" y="135" type="line"/>
      <point x="330" y="35" type="line"/>
      <point x="480" y="35" type="line"/>
      <point x="480" y="625" type="line"/>
      <point x="330" y="625" type="line"/>
      <point x="330" y="525" type="line"/>
      <point x="-808" y="525" type="line"/>
      <point x="-733" y="625" type="line"/>
      <point x="-909" y="625" type="line"/>
      <point x="-1130" y="330" type="line"/>
    </contour>
    <contour>
      <point x="-911" y="275" type="line"/>
      <point x="-952" y="331" type="line"/>
      <point x="-913" y="385" type="line"/>
      <point x="330" y="385" type="line"/>
      <point x="330" y="275" type="line"/>
    </contour>
  </outline>
</glyph>
<glyph name="less_equal_equal_greater.liga" format="2">
  <advance width="600"/>
  <outline>
    <contour>
      <point x="-1510" y="35" type="line"/>
      <point x="-1333" y="35" type="line"/>
      <point x="-1407" y="135" type="line"/>
      <point x="208" y="135" type="line"/>
      <point x="133" y="35" type="line"/>
      <point x="309" y="35" type="line"/>
      <point x="530" y="330" type="line"/>
      <point x="310" y="625" type="line"/>
      <point x="133" y="625" type="line"/>
      <point x="207" y="525" type="line"/>
      <point x="-1408" y="525" type="line"/>
      <point x="-1333" y="625" type="line"/>
      <point x="-1509" y="625" type="line"/>
      <point x="-1730" y="330" type="line"/>
    </contour>
    <contour>
      <point x="-1510" y="275" type="line"/>
      <point x="-1550" y="331" type="line"/>
      <point x="-1512" y="385" type="line"/>
      <point x="310" y="385" type="line"/>
      <point x="354" y="328" type="line"/>
      <point x="312" y="275" type="line"/>
    </contour>
  </outline>
</glyph>
<glyph name="less_equal_greater.liga" format="2">
  <advance width="600"/>
  <outline>
    <contour>
      <point x="-910" y="35" type="line"/>
      <point x="-733" y="35" type="line"/>
      <point x="-807" y="135" type="line"/>
      <point x="208" y="135" type="line"/>
      <point x="133" y="35" type="line"/>
      <point x="309" y="35" type="line"/>
      <point x="530" y="330" type="line"/>
      <point x="310" y="625" type="line"/>
      <point x="133" y="625" type="line"/>
      <point x="207" y="525" type="line"/>
      <point x="-808" y="525" type="line"/>
      <point x="-733" y="625" type="line"/>
      <point x="-909" y="625" type="line"/>
      <point x="-1130" y="330" type="line"/>
    </contour>
    <contour>
      <point x="-910" y="275" type="line"/>
      <point x="-951" y="331" type="line"/>
      <point x="-912" y="385" type="line"/>
      <point x="310" y="385" type="line"/>
      <point x="355" y="328" type="line"/>
      <point x="312" y="275" type="line"/>
    </contour>
  </outline>
</glyph>
